<svg xmlns="http://www.w3.org/2000/svg" width="355" height="113" fill="none" viewBox="0 0 355 113"><g filter="url(#filter0_d_1_99)"><mask id="path-1-outside-1_1_99" width="77.91" height="66.425" x="1.389" y="34.693" fill="#000" maskUnits="userSpaceOnUse"><path fill="#fff" d="M1.389 34.693h77.91v66.425H1.389z"/><path d="M32.379 94.91 27.67 51.126l3.986-1.804L71.439 77.23l-9.281 4.201L37.2 62.253l4.46 28.457zm4.484-10.873-3.724-6 21.409-9.69 3.724 6z"/></mask><path fill="#e21e1e" fill-opacity=".8" d="M32.379 94.91 27.67 51.126l3.986-1.804L71.439 77.23l-9.281 4.201L37.2 62.253l4.46 28.457zm4.484-10.873-3.724-6 21.409-9.69 3.724 6z"/><path fill="#000" d="m32.379 94.91-4.191.09.632 5.874 5.668-2.565zM27.67 51.126l-2.11-3.398-2.342 1.06.261 2.428zm3.986-1.804 2.44-2.911-2.207-1.548-2.342 1.06zM71.439 77.23l2.109 3.399 5.668-2.566-5.338-3.744zm-9.281 4.201-2.602 2.793 2.243 1.723 2.468-1.117zM37.2 62.253l2.601-2.792-8.24-6.332 1.47 9.38zm4.46 28.457 2.109 3.399 2.458-1.113-.398-2.542zm-4.797-6.672-3.644 1.65 2.109 3.398 3.644-1.649zm-3.724-6-2.11-3.4-3.644 1.65 2.11 3.399zm21.409-9.69 3.644-1.65-2.11-3.399-3.643 1.65zm3.724 6 2.11 3.399 3.643-1.65-2.109-3.398zM32.379 94.91l4.19-.09-4.708-43.783-4.19.09-4.192.09L28.188 95zM27.67 51.126l2.11 3.4 3.985-1.805-2.11-3.399-2.108-3.398-3.986 1.804zm3.986-1.804-2.44 2.912L69 80.142l2.44-2.912 2.44-2.911L34.095 46.41zM71.439 77.23l-2.11-3.398-9.28 4.2 2.109 3.4 2.109 3.398 9.281-4.201zm-9.281 4.201 2.601-2.793-24.957-19.177-2.601 2.792-2.601 2.793 24.956 19.178zM37.2 62.253l-4.169.257 4.459 28.455 4.169-.256 4.169-.256-4.46-28.456zm4.46 28.457-2.11-3.399-9.28 4.201 2.109 3.399 2.109 3.399 9.28-4.201zm-4.797-6.672 3.644-1.649-3.724-6-3.644 1.648-3.644 1.65 3.724 6zm-3.724-6 2.109 3.398 21.409-9.69-2.11-3.399-2.108-3.398-21.41 9.69zm21.409-9.69-3.644 1.649 3.724 6 3.644-1.649 3.644-1.65-3.724-6zm3.724 6-2.11-3.399-21.408 9.69 2.109 3.4 2.11 3.398 21.408-9.69z" mask="url(#path-1-outside-1_1_99)"/><mask id="path-3-outside-2_1_99" width="49.916" height="48.078" x="66.304" y="31.646" fill="#000" maskUnits="userSpaceOnUse"><path fill="#fff" d="M66.304 31.646h49.916v48.078H66.304z"/><path d="M96.884 70.932q-3.984 1.071-7.684.39a14.36 14.36 0 0 1-6.49-3.024q-2.81-2.403-4.258-6.331l-6.509-17.651 7.786-2.094 6.011 16.302q1.255 3.4 3.533 4.722 2.317 1.245 4.973.532 2.655-.715 3.658-2.853 1.041-2.214-.213-5.615l-6.012-16.302 7.786-2.094 6.509 17.65q1.448 3.93.698 7.29-.773 3.3-3.349 5.67-2.516 2.352-6.44 3.408"/></mask><path fill="#e21e1e" fill-opacity=".8" d="M96.884 70.932q-3.984 1.071-7.684.39a14.36 14.36 0 0 1-6.49-3.024q-2.81-2.403-4.258-6.331l-6.509-17.651 7.786-2.094 6.011 16.302q1.255 3.4 3.533 4.722 2.317 1.245 4.973.532 2.655-.715 3.658-2.853 1.041-2.214-.213-5.615l-6.012-16.302 7.786-2.094 6.509 17.65q1.448 3.93.698 7.29-.773 3.3-3.349 5.67-2.516 2.352-6.44 3.408"/><path fill="#000" d="m89.2 71.323-.522 3.815.016.003.016.003zm-6.49-3.025-2.619 2.805.039.033.039.032zM71.944 44.316l-1.384-3.753-3.863 1.039 1.384 3.753zm7.786-2.094 3.863-1.039-1.384-3.753-3.863 1.039zm9.544 21.024-1.945 3.283.063.036.064.035zm8.63-2.321-3.767-1.802-.002.005zM91.68 39.008l-1.384-3.753-3.862 1.039 1.383 3.753zm7.786-2.094 3.863-1.04-1.384-3.752-3.863 1.039zm7.207 24.94 4.009 1.108.004-.018.004-.017zm-3.349 5.67-2.966-2.892-.011.01-.011.01zm-6.44 3.408L95.5 67.179c-2.138.575-4.057.645-5.81.322l-.49 3.822-.49 3.82c3.18.586 6.384.395 9.558-.458zm-7.683.39.521-3.815a9.8 9.8 0 0 1-4.468-2.079l-2.542 2.87-2.542 2.87a18.9 18.9 0 0 0 8.51 3.97zm-6.49-3.024 2.62-2.805c-1.214-1.039-2.253-2.499-3.015-4.565l-3.863 1.039-3.863 1.038c1.17 3.172 2.97 5.933 5.502 8.098zm-4.258-6.331 3.863-1.04-6.51-17.65-3.862 1.039-3.863 1.039 6.51 17.65zm-6.509-17.651 1.384 3.753 7.786-2.094-1.384-3.753-1.384-3.753-7.786 2.094zm7.786-2.094-3.863 1.039 6.012 16.302 3.862-1.04 3.863-1.038-6.011-16.302zm6.011 16.302-3.862 1.039c1.03 2.793 2.716 5.38 5.45 6.966l1.945-3.283 1.945-3.283c-.304-.176-.973-.737-1.615-2.478zm3.533 4.722L87.455 66.6c2.64 1.42 5.462 1.66 8.175.93l-1.384-3.752-1.384-3.753c-.829.223-1.322.109-1.771-.133zm4.973.532 1.384 3.753c2.711-.73 4.874-2.313 6.044-4.81l-3.77-1.796-3.77-1.797c-.167.355-.443.674-1.272.897zm3.658-2.853 3.768 1.8c1.249-2.654.923-5.63-.118-8.454l-3.863 1.039-3.863 1.039c.63 1.71.447 2.478.308 2.774zm-.213-5.615 3.863-1.04-6.012-16.301-3.863 1.039-3.862 1.039 6.011 16.302zM91.68 39.008l1.384 3.753 7.786-2.094-1.384-3.753-1.384-3.753-7.786 2.094zm7.786-2.094-3.863 1.039 6.509 17.65 3.863-1.039 3.863-1.038-6.509-17.651zm6.509 17.65-3.863 1.04c.754 2.044.866 3.733.544 5.176l4.017 1.074 4.017 1.073c.679-3.038.326-6.207-.852-9.401zm.698 7.29-4.009-1.108c-.35 1.494-1.095 2.773-2.306 3.886l2.966 2.892 2.965 2.892c2.225-2.045 3.712-4.547 4.393-7.454zm-3.349 5.67-2.988-2.872c-1.176 1.1-2.746 1.965-4.835 2.527l1.384 3.753 1.384 3.753c3.142-.845 5.864-2.252 8.042-4.29z" mask="url(#path-3-outside-2_1_99)"/><mask id="path-5-outside-3_1_99" width="59.079" height="45.749" x="112.06" y="23.301" fill="#000" maskUnits="userSpaceOnUse"><path fill="#fff" d="M112.06 23.301h59.079V69.05H112.06z"/><path d="m126.431 64.082 10.122-17.43-14.778-13.77 9.309-1.11 9.577 9.045 6.31-10.94 9.309-1.109-9.798 16.7 15.324 14.398-9.868 1.176-9.594-9.924-6.045 11.788z"/></mask><path fill="#e21e1e" fill-opacity=".8" d="m126.431 64.082 10.122-17.43-14.778-13.77 9.309-1.11 9.577 9.045 6.31-10.94 9.309-1.109-9.798 16.7 15.324 14.398-9.868 1.176-9.594-9.924-6.045 11.788z"/><path fill="#000" d="m126.431 64.082-3.511-2.085-4.073 7.014 8.229-.981zm10.122-17.43 3.511 2.085 1.569-2.702-2.385-2.222zm-14.778-13.77-.646-3.948-8.274.986 6.224 5.8zm9.309-1.11 2.716-2.82-1.438-1.357-1.923.229zm9.577 9.045-2.717 2.819 3.757 3.549 2.476-4.292zm6.31-10.94-.645-3.947-1.924.23-.947 1.642zm9.309-1.109 3.503 2.1 4.127-7.034-8.275.986zm-9.798 16.7-3.502-2.1-1.581 2.695 2.375 2.232zm15.324 14.398.645 3.947 8.229-.98-6.166-5.794zm-9.868 1.176-2.854 2.683 1.458 1.508 2.041-.243zm-9.594-9.924 2.854-2.683-3.962-4.099-2.497 4.869zm-6.045 11.788.645 3.948 2.041-.244.919-1.791zm-9.868 1.176 3.511 2.085 10.122-17.43-3.511-2.085-3.511-2.085-10.122 17.43zm10.122-17.43 2.695-2.839-14.778-13.77-2.695 2.838-2.696 2.839 14.778 13.77zm-14.778-13.77.645 3.947 9.309-1.11-.645-3.947-.645-3.948-9.31 1.11zm9.309-1.11-2.717 2.818 9.577 9.046 2.717-2.819 2.716-2.819-9.577-9.045zm9.577 9.045 3.516 2.076 6.311-10.94-3.517-2.075-3.516-2.076-6.311 10.94zm6.31-10.94.645 3.948 9.31-1.11-.646-3.947-.645-3.948-9.309 1.11zm9.309-1.109-3.502-2.1-9.798 16.7 3.502 2.1 3.503 2.1 9.798-16.7zm-9.798 16.7-2.708 2.827 15.323 14.397 2.709-2.826 2.708-2.827-15.323-14.397zm15.324 14.398-.646-3.948-9.867 1.176.645 3.948.645 3.948 9.868-1.177zm-9.868 1.176 2.854-2.683-9.594-9.924-2.854 2.683-2.854 2.683 9.594 9.924zm-9.594-9.924-3.605-1.913-6.045 11.788 3.605 1.913 3.605 1.913 6.045-11.788zm-6.045 11.788-.645-3.948-9.868 1.177.645 3.947.645 3.948 9.868-1.176z" mask="url(#path-5-outside-3_1_99)"/><mask id="path-7-outside-4_1_99" width="38.076" height="52.356" x="170.02" y="13.034" fill="#000" maskUnits="userSpaceOnUse"><path fill="#fff" d="M170.02 13.034h38.076V65.39H170.02z"/><path d="M187.965 60.972a20.1 20.1 0 0 1-7.064-1.184q-3.377-1.28-5.879-3.007l-.012-8.25q2.752 1.974 6.192 3.317a19.6 19.6 0 0 0 7.252 1.307q2.625-.025 4.31-1.228 1.749-1.204 1.745-3.266-.002-1.063-.753-1.868-.689-.87-1.814-1.483a10.7 10.7 0 0 0-2.314-1.104l-6.441-2.44q-3.252-1.219-5.067-2.952t-2.568-3.851a15.3 15.3 0 0 1-.695-4.619q-.005-3.874 2.053-6.706 2.12-2.895 5.493-4.49 3.434-1.594 7.31-1.63 3.687-.034 6.688.937t5.004 2.266l.012 8.25q-2.252-1.417-5.004-2.516-2.688-1.162-5.939-1.132a8.9 8.9 0 0 0-3.124.592q-1.499.576-2.497 1.648-.936 1.071-.934 2.697.003 2.061 1.818 3.17 1.814 1.045 4.44 2.146l5.003 2.078q4.44 1.833 6.507 4.377 2.128 2.48 2.134 6.105.005 3.75-2.178 6.645-2.12 2.833-5.743 4.492-3.56 1.658-7.935 1.7"/></mask><path fill="#ffb132" d="M187.965 60.972a20.1 20.1 0 0 1-7.064-1.184q-3.377-1.28-5.879-3.007l-.012-8.25q2.752 1.974 6.192 3.317a19.6 19.6 0 0 0 7.252 1.307q2.625-.025 4.31-1.228 1.749-1.204 1.745-3.266-.002-1.063-.753-1.868-.689-.87-1.814-1.483a10.7 10.7 0 0 0-2.314-1.104l-6.441-2.44q-3.252-1.219-5.067-2.952t-2.568-3.851a15.3 15.3 0 0 1-.695-4.619q-.005-3.874 2.053-6.706 2.12-2.895 5.493-4.49 3.434-1.594 7.31-1.63 3.687-.034 6.688.937t5.004 2.266l.012 8.25q-2.252-1.417-5.004-2.516-2.688-1.162-5.939-1.132a8.9 8.9 0 0 0-3.124.592q-1.499.576-2.497 1.648-.936 1.071-.934 2.697.003 2.061 1.818 3.17 1.814 1.045 4.44 2.146l5.003 2.078q4.44 1.833 6.507 4.377 2.128 2.48 2.134 6.105.005 3.75-2.178 6.645-2.12 2.833-5.743 4.492-3.56 1.658-7.935 1.7"/><path fill="#000" d="m180.901 59.788-1.444 3.742.03.011.031.011zm-5.879-3.007-4 .037.003 2.083 1.708 1.178zm-.012-8.25 2.347-3.257-6.359-4.56.012 7.854zm6.192 3.317-1.48 3.728.011.004.012.005zm11.562.079-2.251-3.289-.028.02-.028.02zm.992-5.134-3.141 2.5.098.124.108.116zm-1.814-1.483-2.168 3.378.113.072.117.064zm-2.314-1.104-1.443 3.742.063.024.064.022zm-6.441-2.44 1.442-3.742-.012-.004zm-7.635-6.803-3.814 1.235.021.066.023.066zm1.358-11.325-3.22-2.348-.005.006-.004.006zm5.493-4.49-1.661-3.625-.012.005-.013.006zm19.002 1.573 3.999-.038-.003-2.16-1.807-1.167zm.012 8.25-2.148 3.39 6.159 3.874-.011-7.302zm-5.004-2.516-1.611 3.674.051.022.051.02zm-11.56 1.108-2.917-2.714-.044.047-.042.049zm.884 5.867-2.105 3.418.043.027.044.025zm4.44 2.146-1.57 3.691.011.005zm5.003 2.078-1.559 3.696.008.003zm6.507 4.377-3.113 2.537.034.041.035.04zm-.044 12.75-3.187-2.392-.008.01zm-5.743 4.492-1.642-3.635-.011.006-.012.005zm-7.935 1.7-.006-4a16.1 16.1 0 0 1-5.674-.949l-1.384 3.764-1.383 3.764a24.1 24.1 0 0 0 8.453 1.42zm-7.064-1.185 1.444-3.741c-2.006-.761-3.672-1.625-5.034-2.565l-2.289 3.299-2.289 3.298c1.974 1.362 4.228 2.504 6.724 3.45zm-5.879-3.007 4-.038-.013-8.25-3.999.038-4 .037.012 8.25zm-.012-8.25-2.348 3.257c2.126 1.525 4.486 2.783 7.06 3.788l1.48-3.728 1.48-3.728c-2.012-.786-3.78-1.739-5.325-2.846zm6.192 3.317-1.457 3.736a23.6 23.6 0 0 0 8.715 1.57l-.006-4-.006-4a15.6 15.6 0 0 1-5.789-1.043zm7.252 1.307.006 4c2.349-.022 4.651-.58 6.611-1.978l-2.307-3.25-2.307-3.25c-.287.206-.859.467-2.009.478zm4.31-1.228 2.251 3.289c2.228-1.535 3.498-3.852 3.494-6.593l-4 .038-4 .037c0 .06-.006.074-.001.053a.4.4 0 0 1 .042-.106.5.5 0 0 1 .051-.076c.004-.004-.019.022-.088.07zm1.745-3.266 4-.038c-.003-1.758-.664-3.334-1.818-4.571l-2.935 2.74-2.935 2.741a1.35 1.35 0 0 1-.312-.835zm-.753-1.868 3.142-2.501c-.836-1.054-1.875-1.873-3.019-2.497l-1.937 3.515-1.938 3.514c.358.195.529.366.611.47zm-1.814-1.483 2.168-3.379a14.7 14.7 0 0 0-3.167-1.512l-1.315 3.787-1.316 3.788c.548.187 1.032.42 1.462.694zm-2.314-1.104 1.442-3.742-6.441-2.44-1.442 3.742-1.443 3.743 6.441 2.44zm-6.441-2.44 1.43-3.746c-1.846-.693-3.017-1.435-3.723-2.11l-2.774 2.904-2.774 2.904c1.714 1.636 3.921 2.862 6.41 3.795zm-5.067-2.952 2.774-2.904c-.816-.779-1.301-1.551-1.572-2.314l-3.77 1.367-3.77 1.367c.733 2.061 1.96 3.856 3.564 5.388zm-2.568-3.851 3.814-1.235a11.3 11.3 0 0 1-.509-3.421l-4 .037-3.999.038c.003 2.006.289 3.951.88 5.816zm-.695-4.619 4-.037c-.003-1.832.467-3.213 1.282-4.334l-3.229-2.335-3.229-2.336c-1.93 2.655-2.828 5.745-2.823 9.08zm2.053-6.706 3.22 2.347c.999-1.364 2.293-2.435 3.959-3.222l-1.686-3.614-1.686-3.615c-2.831 1.339-5.199 3.26-7.027 5.756zm5.493-4.49 1.66 3.627c1.757-.816 3.628-1.238 5.656-1.257l-.006-4-.006-4c-3.139.029-6.141.694-8.965 2.005zm7.31-1.63.006 4c2.098-.02 3.892.248 5.423.744l1.259-3.807 1.26-3.807c-2.471-.8-5.136-1.157-7.954-1.13zm6.688.937-1.259 3.807c1.771.573 3.104 1.197 4.073 1.823l2.19-3.364 2.189-3.365c-1.699-1.099-3.703-1.985-5.933-2.708zm5.004 2.266-4 .037.012 8.25 4-.037 4-.038-.013-8.25zm.012 8.25 2.148-3.391a35 35 0 0 0-5.643-2.841l-1.509 3.716-1.509 3.716c1.637.654 3.087 1.387 4.365 2.19zm-5.004-2.516 1.611-3.674c-2.354-1.017-4.892-1.483-7.556-1.458l.006 4 .006 4c1.67-.015 3.091.274 4.322.806zm-5.939-1.132-.006-4a12.9 12.9 0 0 0-4.528.86l1.41 3.732 1.41 3.732a4.9 4.9 0 0 1 1.72-.324zm-3.124.592-1.41-3.732c-1.515.582-2.88 1.46-4.004 2.666l2.917 2.714 2.917 2.714c.207-.222.507-.444.99-.63zm-2.497 1.648-3.003-2.618c-1.362 1.558-1.933 3.447-1.93 5.352l3.999-.038 4-.037a1 1 0 0 1 .01-.154q.007-.035.001-.013a.5.5 0 0 1-.074.127zm-.934 2.697-3.999.037c.004 2.815 1.375 5.124 3.712 6.551l2.105-3.418 2.104-3.418c-.07-.043-.087-.063-.074-.05a.64.64 0 0 1 .148.27c.01.039.004.04.004-.01zm1.818 3.17-2.018 3.47c1.394.803 3.034 1.59 4.888 2.367l1.57-3.691 1.57-3.691c-1.648-.69-2.968-1.334-3.993-1.925zm4.44 2.146-1.559 3.696 5.003 2.078 1.559-3.696 1.559-3.696-5.003-2.078zm5.003 2.078-1.551 3.7c2.614 1.079 4.131 2.212 4.945 3.214l3.113-2.537 3.112-2.537c-1.941-2.39-4.761-4.174-8.068-5.539zm6.507 4.377-3.044 2.619c.737.86 1.175 1.95 1.178 3.523l4-.037 3.999-.038c-.004-3.259-.989-6.239-3.09-8.686zm2.134 6.105-4 .037c.002 1.661-.459 3.015-1.365 4.216l3.187 2.392 3.187 2.393c2.005-2.66 2.995-5.736 2.99-9.075zm-2.178 6.645-3.195-2.381c-.959 1.282-2.309 2.377-4.19 3.238l1.642 3.635 1.642 3.634c2.949-1.35 5.428-3.25 7.296-5.744zm-5.743 4.492-1.665-3.624c-1.795.836-3.864 1.3-6.276 1.323l.006 4 .006 4c3.422-.032 6.642-.7 9.594-2.075z" mask="url(#path-7-outside-4_1_99)"/><mask id="path-9-outside-5_1_99" width="61.323" height="61.709" x="201.181" y="23.461" fill="#000" maskUnits="userSpaceOnUse"><path fill="#fff" d="M201.181 23.461h61.323V85.17h-61.323z"/><path d="m212.662 74.964 17.29-20.197 15.424-21.576 8.945 1.455-32.776 41.763zm13.718-13.066-7.654-33.042 9.13 1.485 5.677 26.715z"/></mask><path fill="#ffb132" d="m212.662 74.964 17.29-20.197 15.424-21.576 8.945 1.455-32.776 41.763zm13.718-13.066-7.654-33.042 9.13 1.485 5.677 26.715z"/><path fill="#000" d="m212.662 74.964-3.041-2.443-4.504 5.262 6.674 1.085zm17.29-20.197 3.041 2.442.122-.142.109-.152zm15.424-21.576.87-3.904-2.586-.421-1.556 2.177zm8.945 1.455 3.157 2.301 4.059-5.173-6.346-1.032zm-32.776 41.763-.87 3.904 2.456.4 1.571-2.002zm4.835-14.511-3.946 1.07 1.259 5.436 4.863-3.292zm-7.654-33.042.871-3.904-6.203-1.009 1.386 5.984zm9.13 1.485 3.96-1.004-.527-2.483-2.562-.417zm5.677 26.715 2.176 3.215 2.343-1.587-.559-2.632zm-20.871 17.908 3.041 2.443 17.29-20.198-3.041-2.442-3.041-2.443-17.29 20.197zm17.29-20.197 3.272 2.148 15.423-21.576-3.271-2.148-3.272-2.148-15.424 21.575zm15.424-21.576-.871 3.904 8.945 1.455.871-3.904.87-3.904-8.945-1.455zm8.945 1.455-3.157-2.302-32.776 41.764 3.157 2.301 3.157 2.301 32.776-41.763zm-32.776 41.763.871-3.904-8.883-1.445-.871 3.904-.871 3.904 8.884 1.445zm4.835-14.511 3.945-1.071-7.654-33.042-3.945 1.071-3.946 1.07 7.654 33.042zm-7.654-33.042-.871 3.904 9.13 1.485.871-3.904.871-3.904-9.13-1.485zm9.13 1.485-3.96 1.004 5.676 26.715 3.961-1.004 3.96-1.004-5.677-26.715zm5.677 26.715-2.176-3.215-7.153 4.842 2.176 3.215 2.176 3.214 7.153-4.841z" mask="url(#path-9-outside-5_1_99)"/><mask id="path-11-outside-6_1_99" width="54.243" height="50.305" x="249.792" y="31.188" fill="#000" maskUnits="userSpaceOnUse"><path fill="#fff" d="M249.792 31.188h54.243v50.305h-54.243z"/><path d="m275.597 73.458 8.375-16.278q1.468-2.829.733-4.788-.676-1.936-3.177-2.92-1.977-.778-4.297-.22a18.3 18.3 0 0 0-4.463 1.717l3.252-6.269a19.4 19.4 0 0 1 3.362-1.35 13.5 13.5 0 0 1 3.945-.585q2.061-.057 4.038.72 3.025 1.19 4.747 3.404 1.723 2.214 1.708 5.348.072 3.1-1.914 6.93l-8.923 17.197zm-19.426-7.642L270.706 37.8l7.387 2.906-14.536 28.016z"/></mask><path fill="#ffb132" d="m275.597 73.458 8.375-16.278q1.468-2.829.733-4.788-.676-1.936-3.177-2.92-1.977-.778-4.297-.22a18.3 18.3 0 0 0-4.463 1.717l3.252-6.269a19.4 19.4 0 0 1 3.362-1.35 13.5 13.5 0 0 1 3.945-.585q2.061-.057 4.038.72 3.025 1.19 4.747 3.404 1.723 2.214 1.708 5.348.072 3.1-1.914 6.93l-8.923 17.197zm-19.426-7.642L270.706 37.8l7.387 2.906-14.536 28.016z"/><path fill="#000" d="m275.597 73.458-3.729-1.452-1.823 3.543 3.71 1.46zm8.375-16.278-3.722-1.464-.007.012zm.733-4.788-3.961 1.403.013.036.014.036zm-11.937-1.423-3.722-1.464-5.627 10.845 11.261-6.1zm3.252-6.269-1.844-3.317-1.256.654-.622 1.199zm3.362-1.35 1.039 3.645.013-.004zm3.945-.585-.279 3.84h.061l.06-.001zm10.493 9.472-4.153.245v.05l.001.049zm-10.837 24.127-1.842 3.55 3.722 1.465 1.842-3.55zm-26.812-10.548-3.722-1.464-1.843 3.55 3.723 1.465zM270.706 37.8l1.842-3.55-3.722-1.465-1.842 3.55zm7.387 2.906 3.722 1.464 1.842-3.55-3.722-1.465zm-14.536 28.016-1.842 3.55 3.723 1.465 1.842-3.55zm12.04 4.736 3.728 1.453 8.375-16.278-3.728-1.453-3.729-1.452-8.375 16.278zm8.375-16.278 3.722 1.465c1.25-2.41 1.919-5.133.946-7.728l-3.935 1.475-3.934 1.475c.006.017.186.486-.521 1.849zm.733-4.788 3.961-1.402c-.869-2.49-2.875-4.116-5.296-5.068l-1.842 3.55-1.842 3.55c.914.36 1.026.68 1.058.773zm-3.177-2.92 1.842-3.55c-2.19-.862-4.551-.954-6.921-.385l.782 3.714.782 3.714c.723-.174 1.226-.118 1.673.058zm-4.297-.22-.782-3.715a23 23 0 0 0-5.593 2.151l1.912 3.281 1.912 3.28a13.7 13.7 0 0 1 3.333-1.284zm-4.463 1.717 3.722 1.464 3.253-6.269-3.723-1.464-3.722-1.464-3.252 6.269zm3.252-6.269 1.845 3.317c.741-.386 1.589-.73 2.556-1.022l-1.039-3.645-1.039-3.644a24 24 0 0 0-4.167 1.677zm3.362-1.35 1.052 3.64a9 9 0 0 1 2.614-.384l.279-3.841.279-3.84c-1.789.001-3.554.26-5.277.785zm3.945-.585-.158 3.839a5.9 5.9 0 0 1 2.354.432l1.842-3.55 1.843-3.551a14.4 14.4 0 0 0-5.723-1.009zm4.038.72-1.842 3.55c1.448.57 2.457 1.328 3.162 2.234l3.427-2.38 3.428-2.38c-1.592-2.046-3.748-3.557-6.332-4.574zm4.747 3.404-3.427 2.38c.619.796.989 1.81.982 3.213l4.153-.245 4.153-.245c.013-2.776-.755-5.327-2.433-7.483zm1.708 5.348-4.152.344c.029 1.282-.363 2.96-1.484 5.12l3.722 1.465 3.722 1.465c1.527-2.943 2.41-5.885 2.344-8.738zm-1.914 6.93-3.722-1.465-8.923 17.198 3.722 1.464 3.722 1.465 8.923-17.198zm-8.923 17.197 1.842-3.55-7.386-2.906-1.842 3.55-1.842 3.55 7.386 2.907zm-26.812-10.548 3.722 1.465 14.536-28.017-3.723-1.464-3.722-1.465-14.535 28.017zM270.706 37.8l-1.842 3.55 7.387 2.906 1.842-3.55 1.842-3.551-7.387-2.906zm7.387 2.906-3.723-1.465-14.535 28.017 3.722 1.464 3.723 1.464 14.535-28.016zm-14.536 28.016 1.842-3.55-7.386-2.906-1.842 3.55-1.842 3.55 7.386 2.907z" mask="url(#path-11-outside-6_1_99)"/><mask id="path-13-outside-7_1_99" width="54.715" height="50.241" x="286.202" y="51.301" fill="#000" maskUnits="userSpaceOnUse"><path fill="#fff" d="M286.202 51.301h54.715v50.241h-54.715z"/><path d="M307.578 92.171q-3.207-1.551-5.239-3.977-1.976-2.4-2.724-5.307t-.216-5.951q.588-3.018 2.418-5.779a18.4 18.4 0 0 1 4.557-4.745 20.2 20.2 0 0 1 6.086-2.904 20.3 20.3 0 0 1 6.799-.84q3.517.186 6.724 1.736t4.555 3.44q1.404 1.918 1.999 3.375l-4.04 6.095q-.807-1.698-2.215-3.272-1.352-1.548-3.996-2.826-2.138-1.034-4.652-.942-2.456.12-4.63 1.27t-3.59 3.286-1.508 4.292a6.94 6.94 0 0 0 1.052 4.017q1.236 1.835 3.487 2.924 2.644 1.278 4.894 1.471 2.305.22 4.39-.01l-4.005 6.043q-1.804.368-4.416.273-2.522-.118-5.73-1.669"/></mask><path fill="#ffb132" d="M307.578 92.171q-3.207-1.551-5.239-3.977-1.976-2.4-2.724-5.307t-.216-5.951q.588-3.018 2.418-5.779a18.4 18.4 0 0 1 4.557-4.745 20.2 20.2 0 0 1 6.086-2.904 20.3 20.3 0 0 1 6.799-.84q3.517.186 6.724 1.736t4.555 3.44q1.404 1.918 1.999 3.375l-4.04 6.095q-.807-1.698-2.215-3.272-1.352-1.548-3.996-2.826-2.138-1.034-4.652-.942-2.456.12-4.63 1.27t-3.59 3.286-1.508 4.292a6.94 6.94 0 0 0 1.052 4.017q1.236 1.835 3.487 2.924 2.644 1.278 4.894 1.471 2.305.22 4.39-.01l-4.005 6.043q-1.804.368-4.416.273-2.522-.118-5.73-1.669"/><path fill="#000" d="m302.339 88.194-3.468 2.356.009.011.009.011zm-2.94-11.258-4.162-.392-.006.034-.006.033zm6.975-10.524-2.474-2.889-.031.022-.03.022zm6.086-2.904 1.04 3.573.028-.008.027-.008zm6.799-.84.541-3.756h-.017l-.016-.001zm11.279 5.177-3.612 2.168.012.018.013.017zm1.999 3.374 3.601 1.74 1.055-1.59-.672-1.646zm-4.04 6.095-3.909 1.665 3.158 6.642 4.352-6.566zm-2.215-3.272-3.403 2.433.014.016.013.015zm-8.648-3.768.119-3.758-.029.001-.028.001zm-8.676 12.865-3.738 1.978.035.059.039.056zm8.381 4.395.736-3.74-.022-.002-.022-.002zm4.39-.01 3.601 1.741 4.218-6.363-8.052.89zm-4.005 6.043.665 3.665 1.919-.39 1.017-1.534zm-4.416.273-.513 3.756.026.002h.026zm-5.73-1.669 2.21-3.334c-1.684-.814-2.997-1.825-3.999-3.022l-3.45 2.379-3.45 2.378c1.708 2.04 3.888 3.68 6.479 4.933zm-5.239-3.977 3.468-2.357c-1.01-1.227-1.693-2.562-2.07-4.027l-4.122 1.077-4.122 1.078c.62 2.41 1.753 4.612 3.378 6.585zm-2.724-5.307 4.122-1.077a10.65 10.65 0 0 1-.164-4.55l-4.174-.324-4.174-.325c-.437 2.498-.349 4.958.268 7.353zm-.216-5.951 4.162.391c.298-1.527.908-2.997 1.858-4.429l-3.602-1.74-3.601-1.742c-1.491 2.25-2.492 4.633-2.979 7.128zm2.418-5.779 3.602 1.741a14.1 14.1 0 0 1 3.49-3.64l-2.535-2.846-2.535-2.845a22.7 22.7 0 0 0-5.623 5.85zm4.557-4.745 2.474 2.89a15.4 15.4 0 0 1 4.652-2.221l-1.04-3.573-1.04-3.573a25 25 0 0 0-7.52 3.588zm6.086-2.904 1.095 3.557a15.4 15.4 0 0 1 5.195-.642l.509-3.756.508-3.756a25.1 25.1 0 0 0-8.401 1.04zm6.799-.84-.541 3.754c1.717.091 3.394.513 5.055 1.317l2.21-3.335 2.21-3.334a21.8 21.8 0 0 0-8.393-2.158zm6.724 1.736-2.21 3.335c1.804.872 2.724 1.673 3.153 2.274l3.612-2.168 3.613-2.169c-1.369-1.918-3.486-3.41-5.958-4.606zm4.555 3.44-3.587 2.204c.845 1.154 1.344 2.034 1.602 2.667l3.984-1.496 3.984-1.496c-.535-1.31-1.368-2.68-2.396-4.082zm1.999 3.375-3.601-1.741-4.04 6.095 3.601 1.74 3.601 1.742 4.04-6.095zm-4.04 6.095 3.909-1.665c-.688-1.447-1.614-2.803-2.748-4.071l-3.376 2.464-3.376 2.464c.743.831 1.294 1.657 1.682 2.472zm-2.215-3.272 3.403-2.434c-1.318-1.51-3.119-2.726-5.189-3.727l-2.21 3.335-2.21 3.334c1.455.703 2.319 1.371 2.803 1.925zm-3.996-2.826 2.21-3.334c-2.058-.995-4.33-1.455-6.743-1.366l-.119 3.758-.118 3.758c.937-.034 1.766.134 2.56.518zm-4.652-.942.062-3.756a15.8 15.8 0 0 0-6.661 1.826l1.969 3.2 1.968 3.199a6.06 6.06 0 0 1 2.601-.713zm-4.63 1.27-1.969-3.2a14.14 14.14 0 0 0-5.222 4.745l3.601 1.74 3.601 1.742c.588-.888 1.246-1.452 1.957-1.828zm-3.59 3.286-3.601-1.741c-1.279 1.928-2.037 3.994-2.129 6.15l4.222-.117 4.222-.117c.031-.72.278-1.515.887-2.434zm-1.508 4.292-4.222.117a10.2 10.2 0 0 0 1.536 5.878l3.738-1.978 3.739-1.978a3.7 3.7 0 0 1-.569-2.156zm1.052 4.017-3.664 2.094c1.198 1.78 2.877 3.166 4.941 4.164l2.21-3.334 2.209-3.334c-.937-.454-1.582-1.016-2.031-1.683zm3.487 2.924-2.21 3.334c2.07 1 4.218 1.693 6.412 1.882l.692-3.745.692-3.744c-.806-.069-1.921-.358-3.377-1.061zm4.894 1.471-.736 3.74c1.818.174 3.609.176 5.359-.017l-.233-3.733-.233-3.732a16.7 16.7 0 0 1-3.421.002zm4.39-.01-3.601-1.74-4.006 6.042 3.602 1.742 3.601 1.74 4.005-6.043zm-4.005 6.043-.666-3.664c-.706.143-1.774.233-3.29.179l-.46 3.758-.461 3.758c1.968.071 3.844-.02 5.542-.366zm-4.416.273.512-3.756c-.861-.04-2.183-.353-4.032-1.247l-2.21 3.334-2.21 3.334c2.428 1.174 4.926 1.974 7.427 2.091z" mask="url(#path-13-outside-7_1_99)"/></g><defs><filter id="filter0_d_1_99" width="321.975" height="99.358" x="19.218" y="13.516" color-interpolation-filters="sRGB" filterUnits="userSpaceOnUse"><feFlood flood-opacity="0" result="BackgroundImageFix"/><feColorMatrix in="SourceAlpha" result="hardAlpha" values="0 0 0 0 0 0 0 0 0 0 0 0 0 0 0 0 0 0 127 0"/><feOffset dy="8"/><feGaussianBlur stdDeviation="2"/><feComposite in2="hardAlpha" operator="out"/><feColorMatrix values="0 0 0 0 0 0 0 0 0 0 0 0 0 0 0 0 0 0 0.25 0"/><feBlend in2="BackgroundImageFix" result="effect1_dropShadow_1_99"/><feBlend in="SourceGraphic" in2="effect1_dropShadow_1_99" result="shape"/></filter></defs></svg>