<svg width="32" height="32" viewBox="0 0 32 32" fill="none" xmlns="http://www.w3.org/2000/svg">
<g clip-path="url(#clip0_321_2)">
<path d="M19.1329 1.33511C19.5732 1.65856 19.8575 2.1867 20.1223 2.65497C20.1223 2.70109 20.1223 2.7472 20.1223 2.79471C20.1684 2.79471 20.2145 2.79471 20.262 2.79471C20.3081 2.93305 20.3542 3.07139 20.4017 3.21393C20.4479 3.21393 20.494 3.21393 20.5415 3.21393C20.6375 3.36049 20.6375 3.36049 20.7511 3.56764C20.9445 3.90877 21.1478 4.23801 21.3668 4.56327C21.3963 4.60708 21.4258 4.65088 21.4562 4.69602C21.5167 4.78575 21.5773 4.87544 21.6379 4.96509C21.7888 5.18854 21.938 5.41307 22.0873 5.63751C22.2476 5.87814 22.408 6.11871 22.569 6.35885C22.882 6.82605 23.1887 7.29701 23.4922 7.77039C23.6172 7.96474 23.7397 8.15463 23.8829 8.3362C23.9651 8.4541 23.9651 8.4541 23.9651 8.66371C24.0112 8.66371 24.0573 8.66371 24.1048 8.66371C24.2101 8.81163 24.2101 8.81163 24.3231 9.00432C24.3608 9.06754 24.3984 9.13077 24.4372 9.19591C24.524 9.3624 24.524 9.3624 24.524 9.50214C24.5701 9.50214 24.6162 9.50214 24.6637 9.50214C24.7026 9.57149 24.7414 9.64084 24.7814 9.71229C24.9433 9.99541 25.1186 10.2685 25.2969 10.5414C25.3462 10.6174 25.3462 10.6174 25.3965 10.6948C25.5745 10.9689 25.7534 11.2424 25.9329 11.5155C25.9682 11.5696 26.0036 11.6237 26.0401 11.6794C26.1085 11.7839 26.1771 11.8883 26.2461 11.9924C26.4803 12.351 26.4803 12.351 26.4803 12.5065C26.5265 12.5065 26.5726 12.5065 26.6201 12.5065C26.6968 12.6047 26.6968 12.6047 26.7792 12.7412C26.8093 12.7904 26.8395 12.8396 26.8705 12.8902C26.9017 12.9423 26.9329 12.9944 26.9651 13.048C27.0267 13.1496 27.0885 13.2511 27.1504 13.3526C27.1794 13.4004 27.2084 13.4481 27.2382 13.4974C27.3218 13.6337 27.3218 13.6337 27.4457 13.7871C27.5284 13.9039 27.5284 13.9039 27.5284 14.1135C27.5745 14.1135 27.6206 14.1135 27.6681 14.1135C27.7735 14.2614 27.7735 14.2614 27.8865 14.4541C27.9429 14.5489 27.9429 14.5489 28.0005 14.6457C28.0873 14.8122 28.0873 14.8122 28.0873 14.9519C28.1334 14.9519 28.1796 14.9519 28.2271 14.9519C28.3281 15.1058 28.3281 15.1058 28.4454 15.3187C28.7016 15.7706 28.9835 16.1992 29.2751 16.6288C29.3757 16.7786 29.4761 16.9285 29.5764 17.0786C29.643 17.1779 29.643 17.1779 29.711 17.2792C30.0437 17.7874 30.0437 17.7874 30.0437 17.9563C30.0898 17.9563 30.1359 17.9563 30.1834 17.9563C30.2806 18.0943 30.3684 18.2305 30.4541 18.3755C30.479 18.4175 30.5039 18.4596 30.5296 18.5029C30.6006 18.6234 30.6715 18.744 30.7424 18.8646C30.775 18.9126 30.8076 18.9606 30.8412 19.0101C31.1253 19.4628 31.0819 20.0296 31.0218 20.5414C30.8263 21.128 30.3665 21.5007 29.8865 21.8646C29.8465 21.8951 29.8065 21.9256 29.7653 21.9571C29.4963 22.1608 29.2221 22.3536 28.9389 22.5373C28.7645 22.6516 28.5941 22.7708 28.4236 22.8908C28.3115 22.9694 28.1994 23.048 28.0873 23.1266C28.0218 23.1727 28.0218 23.1727 27.955 23.2197C27.6842 23.4061 27.6842 23.4061 27.5284 23.4061C27.5284 23.4522 27.5284 23.4983 27.5284 23.5458C27.3799 23.6517 27.3799 23.6517 27.179 23.7729C26.8881 23.9491 26.6166 24.1392 26.3462 24.3447C26.1108 24.5219 25.8698 24.6909 25.6288 24.8602C25.577 24.8967 25.5252 24.9332 25.4719 24.9707C25.0972 25.2343 24.721 25.4954 24.3436 25.7551C24.1576 25.8838 23.9735 26.0149 23.7896 26.1465C23.7354 26.1852 23.6813 26.2238 23.6255 26.2636C23.5186 26.34 23.4119 26.4167 23.3054 26.4937C23.2569 26.5283 23.2085 26.5628 23.1586 26.5985C23.1153 26.6296 23.0721 26.6607 23.0275 26.6928C22.917 26.7598 22.917 26.7598 22.7773 26.7598C22.7773 26.8059 22.7773 26.852 22.7773 26.8995C22.6436 26.9956 22.6436 26.9956 22.4541 27.1091C22.0729 27.3436 21.7113 27.5977 21.3518 27.8636C21.0453 28.0873 21.0453 28.0873 20.8908 28.0873C20.8908 28.1334 20.8908 28.1795 20.8908 28.227C20.7325 28.3403 20.7325 28.3403 20.524 28.4672C20.2383 28.6419 20.2383 28.6419 19.9662 28.8365C19.8428 28.9257 19.8428 28.9257 19.7031 28.9257C19.7031 28.9718 19.7031 29.0179 19.7031 29.0655C19.5647 29.1116 19.4264 29.1577 19.2838 29.2052C19.2838 29.2513 19.2838 29.2974 19.2838 29.3449C19.188 29.4208 19.188 29.4208 19.0437 29.5109C18.8143 29.6579 18.5897 29.8094 18.3684 29.9683C18.3172 30.005 18.266 30.0417 18.2133 30.0795C18.111 30.1531 18.0088 30.227 17.9069 30.3011C17.5871 30.5301 17.2659 30.7185 16.9083 30.882C16.8517 30.9103 16.7952 30.9386 16.7369 30.9677C16.4741 31.0476 16.2209 31.0484 15.9476 31.048C15.8917 31.0481 15.8358 31.0482 15.7783 31.0483C15.3498 31.0406 15.0453 30.9633 14.6725 30.7423C14.6725 30.6962 14.6725 30.6501 14.6725 30.6026C14.6307 30.5838 14.5889 30.5651 14.5458 30.5458C14.255 30.3879 14.1446 30.1864 13.9833 29.9007C13.8283 29.6342 13.6555 29.3789 13.485 29.1221C13.2751 28.801 13.2751 28.801 13.2751 28.6462C13.229 28.6462 13.1829 28.6462 13.1354 28.6462C13.0528 28.5275 12.9771 28.4041 12.9039 28.2794C12.6482 27.8512 12.3812 27.4311 12.1092 27.0131C12.071 26.9541 12.0328 26.8952 11.9935 26.8345C11.8236 26.5735 11.652 26.3168 11.4659 26.0671C11.3188 25.8515 11.3188 25.8515 11.3188 25.6419C11.2727 25.6419 11.2265 25.6419 11.179 25.6419C11.0737 25.4939 11.0737 25.4939 10.9607 25.3013C10.923 25.238 10.8854 25.1748 10.8466 25.1097C10.7598 24.9432 10.7598 24.9432 10.7598 24.8034C10.7137 24.8034 10.6676 24.8034 10.6201 24.8034C10.5049 24.6337 10.3977 24.464 10.2926 24.2882C10.0952 23.9646 9.89843 23.644 9.67685 23.3362C9.47373 23.0521 9.28825 22.7598 9.1048 22.4628C8.81719 21.9977 8.51817 21.5414 8.21325 21.0874C7.92896 20.6637 7.65082 20.2362 7.37569 19.8065C7.25568 19.6196 7.13805 19.438 7.00027 19.2636C6.91703 19.1441 6.91703 19.1441 6.91703 18.9345C6.87091 18.9345 6.8248 18.9345 6.77729 18.9345C6.67194 18.7865 6.67194 18.7865 6.55895 18.5938C6.5213 18.5306 6.48365 18.4674 6.44486 18.4022C6.35807 18.2358 6.35807 18.2358 6.35807 18.096C6.31196 18.096 6.26585 18.096 6.21834 18.096C6.17943 18.0266 6.14052 17.9571 6.10043 17.8856C5.93961 17.6044 5.76633 17.3325 5.58951 17.0611C5.55628 17.0099 5.52305 16.9587 5.4888 16.9059C5.21142 16.4797 4.92944 16.0566 4.64644 15.6341C4.36369 15.2113 4.08661 14.785 3.81236 14.3567C3.69235 14.1698 3.57473 13.9882 3.43695 13.8138C3.35371 13.6943 3.35371 13.6943 3.35371 13.4847C3.30759 13.4847 3.26148 13.4847 3.21397 13.4847C3.10862 13.3367 3.10862 13.3367 2.99563 13.1441C2.95798 13.0808 2.92033 13.0176 2.88154 12.9525C2.79475 12.786 2.79475 12.786 2.79475 12.6462C2.74864 12.6462 2.70253 12.6462 2.65502 12.6462C2.5756 12.5243 2.50248 12.3982 2.43231 12.2707C2.27429 11.9915 2.11289 11.7234 1.92576 11.4628C1.63431 11.056 1.37194 10.6318 1.1179 10.2008C1.09007 10.1563 1.06224 10.1118 1.03356 10.066C0.88177 9.66969 0.91046 9.08142 1.04093 8.68036C1.1179 8.52834 1.1179 8.52834 1.25764 8.31436C1.30375 8.31436 1.34986 8.31436 1.39737 8.31436C1.41665 8.2723 1.43592 8.23024 1.45578 8.18691C1.76311 7.61248 2.43763 7.42003 3.00354 7.18585C3.20717 7.1 3.40695 7.0065 3.60698 6.91262C3.91334 6.77 4.2216 6.63399 4.53275 6.50214C4.61308 6.46755 4.69342 6.43297 4.7762 6.39733C4.90761 6.34093 5.03908 6.28464 5.17126 6.23003C5.31424 6.17078 5.45625 6.10955 5.59825 6.04799C5.6421 6.03038 5.68595 6.01278 5.73113 5.99465C6.09112 5.83504 6.18909 5.64835 6.35807 5.31C6.53142 5.11442 6.66343 4.98165 6.89956 4.86895C7.0868 4.75679 7.0868 4.75679 7.10043 4.48904C7.10412 4.43977 7.10782 4.3905 7.11162 4.33974C7.15849 3.87868 7.39274 3.62145 7.72773 3.33621C8.01638 3.12542 8.33383 2.99774 8.66375 2.86458C8.80707 2.80516 8.95035 2.74566 9.09361 2.68609C9.16331 2.65738 9.23301 2.62867 9.30482 2.59909C9.47985 2.52472 9.6506 2.44572 9.82123 2.36185C10.4076 2.07562 10.9359 1.90425 11.5982 2.02615C11.7868 2.10838 11.9591 2.20354 12.1367 2.30699C12.3735 2.40823 12.5269 2.35377 12.7656 2.27943C13.1008 2.18805 13.478 2.19379 13.8111 2.28925C14.1655 2.31421 14.429 2.16792 14.7467 2.02179C14.8119 1.99281 14.8771 1.96384 14.9443 1.93399C15.1337 1.84944 15.3224 1.76347 15.5109 1.67681C15.5589 1.65479 15.607 1.63277 15.6564 1.61008C15.7754 1.55538 15.8943 1.50039 16.0131 1.44537C16.0836 1.41303 16.1541 1.3807 16.2268 1.34739C16.3482 1.29071 16.4687 1.23184 16.5876 1.16998C17.3997 0.780883 18.3765 0.87904 19.1329 1.33511ZM17.2096 2.84711C16.9601 2.97626 16.7121 3.10261 16.4541 3.21393C16.0621 3.38432 15.6824 3.57945 15.3013 3.77288C15.3916 4.05655 15.4968 4.28728 15.6506 4.54144C15.8034 4.94408 15.7594 5.41133 15.5882 5.7999C15.2954 6.32617 14.6623 6.55415 14.1441 6.79471C14.061 6.83404 13.9778 6.87336 13.8921 6.91388C13.3041 7.19152 12.7123 7.4609 12.1193 7.72771C11.6875 7.92243 11.2638 8.12856 10.8414 8.34302C10.4693 8.52977 10.0916 8.70301 9.71178 8.87331C9.65072 8.90241 9.58966 8.9315 9.52674 8.96147C8.89451 9.24568 8.3334 9.20474 7.67849 9.0095C7.63472 8.98762 7.59094 8.96573 7.54585 8.94318C7.52279 8.87401 7.49973 8.80484 7.47598 8.73358C7.42122 8.68026 7.36646 8.62694 7.31004 8.572C7.12267 8.38017 7.02468 8.20865 6.91703 7.96502C6.87091 7.96502 6.8248 7.96502 6.77729 7.96502C6.75423 7.87279 6.73117 7.78056 6.70742 7.68554C5.90187 8.00447 5.11328 8.35994 4.33187 8.73358C4.24937 8.77294 4.16687 8.81229 4.08187 8.85285C4.00586 8.88986 3.92984 8.92688 3.85152 8.96502C3.78397 8.99789 3.71642 9.03077 3.64683 9.06464C3.48405 9.13939 3.48405 9.13939 3.42357 9.29253C3.51869 9.46587 3.61747 9.62917 3.72489 9.79471C3.75652 9.84439 3.78816 9.89408 3.82075 9.94526C4.06743 10.3308 4.32094 10.7118 4.57718 11.091C4.78526 11.4001 4.97741 11.7158 5.15938 12.0412C5.18604 12.0794 5.2127 12.1177 5.24017 12.1572C5.28628 12.1572 5.3324 12.1572 5.37991 12.1572C5.39765 12.2067 5.41539 12.2562 5.43367 12.3073C5.52761 12.525 5.6432 12.7041 5.77729 12.8995C5.96142 13.1711 6.14326 13.4433 6.31877 13.7205C6.37876 13.8152 6.37876 13.8152 6.43995 13.9118C6.4821 13.9784 6.52425 14.0449 6.56768 14.1135C6.90827 14.6488 7.25414 15.1801 7.60698 15.7074C7.89206 16.1336 8.17498 16.5611 8.45414 16.9912C8.50074 17.0627 8.50074 17.0627 8.54827 17.1357C8.73688 17.4272 8.91322 17.7232 9.08296 18.0262C9.12908 18.0262 9.17519 18.0262 9.2227 18.0262C9.23999 18.0737 9.25729 18.1213 9.2751 18.1703C9.37935 18.4152 9.50695 18.6351 9.64192 18.8646C9.68803 18.8646 9.73414 18.8646 9.78165 18.8646C9.79462 18.9193 9.80759 18.9741 9.82096 19.0305C9.93646 19.3218 10.0939 19.5419 10.2767 19.7947C10.405 19.9748 10.5244 20.1578 10.6419 20.3449C10.8337 20.6496 11.031 20.9499 11.2314 21.2489C11.5218 21.6821 11.8063 22.1188 12.0886 22.5573C12.2818 22.8568 12.4779 23.154 12.6768 23.4497C12.8662 23.732 13.0425 24.016 13.2052 24.3144C13.2513 24.3144 13.2975 24.3144 13.345 24.3144C13.3579 24.3691 13.3709 24.4239 13.3843 24.4803C13.4961 24.7623 13.6435 24.9706 13.8204 25.2153C14.0083 25.4811 14.1858 25.7528 14.3624 26.0262C14.3956 26.0774 14.4288 26.1286 14.463 26.1814C14.6798 26.5179 14.8874 26.8584 15.0832 27.2076C15.1091 27.2443 15.1349 27.281 15.1616 27.3187C15.2077 27.3187 15.2538 27.3187 15.3013 27.3187C15.3186 27.3666 15.3359 27.4144 15.3537 27.4637C15.4562 27.7036 15.5841 27.9224 15.7205 28.1441C15.7454 28.1858 15.7702 28.2275 15.7958 28.2706C15.8599 28.3751 15.9295 28.4761 16 28.5764C16.0461 28.5764 16.0922 28.5764 16.1397 28.5764C16.1858 28.6917 16.232 28.8069 16.2795 28.9257C16.4178 28.8565 16.5562 28.7874 16.6987 28.7161C16.6987 28.67 16.6987 28.6239 16.6987 28.5764C16.7563 28.562 16.814 28.5476 16.8734 28.5327C17.1385 28.4286 17.3218 28.2948 17.542 28.1179C17.6749 28.0188 17.8062 27.9471 17.9563 27.8777C17.9563 27.8316 17.9563 27.7855 17.9563 27.7379C18.0335 27.7094 18.0335 27.7094 18.1123 27.6803C18.2955 27.6025 18.4425 27.5162 18.6056 27.4031C18.6884 27.346 18.6884 27.346 18.7729 27.2878C18.8594 27.2275 18.8594 27.2275 18.9476 27.1659C19.0072 27.1247 19.0668 27.0835 19.1281 27.0411C19.4761 26.8004 19.8226 26.5575 20.1687 26.3141C20.9946 25.7409 20.9946 25.7409 21.3698 25.5294C21.4193 25.4974 21.4687 25.4653 21.5196 25.4323C21.5196 25.3862 21.5196 25.34 21.5196 25.2925C21.5691 25.2748 21.6185 25.257 21.6695 25.2388C21.8881 25.1446 22.0695 25.0289 22.2664 24.8951C22.3773 24.82 22.3773 24.82 22.4904 24.7434C22.7334 24.5759 22.9744 24.4059 23.2151 24.2352C23.3642 24.1333 23.5142 24.0355 23.667 23.9394C23.712 23.911 23.7569 23.8827 23.8032 23.8535C23.8926 23.7975 23.9821 23.742 24.072 23.6869C24.1785 23.6202 24.2817 23.5485 24.3843 23.4759C24.3843 23.4298 24.3843 23.3837 24.3843 23.3362C24.4336 23.3186 24.4829 23.3011 24.5337 23.283C24.7559 23.1868 24.9383 23.0678 25.1375 22.9304C25.175 22.9047 25.2124 22.879 25.251 22.8526C25.3699 22.771 25.4885 22.689 25.607 22.6069C25.7256 22.5252 25.8442 22.4436 25.9629 22.3621C26.0707 22.288 26.1783 22.2136 26.2859 22.1393C26.4803 22.0087 26.4803 22.0087 26.6803 21.8954C26.7542 21.8477 26.7542 21.8477 26.8297 21.7991C26.8297 21.753 26.8297 21.7069 26.8297 21.6593C26.9043 21.6325 26.9043 21.6325 26.9803 21.605C27.1942 21.5131 27.3708 21.4016 27.5633 21.2707C27.6725 21.1967 27.6725 21.1967 27.7838 21.1211C27.8617 21.0677 27.9396 21.0142 28.0175 20.9607C28.058 20.9329 28.0985 20.9051 28.1403 20.8765C28.6791 20.5081 28.6791 20.5081 29.2052 20.1222C29.1063 19.7668 28.9497 19.5041 28.7424 19.2052C28.6791 19.1122 28.6159 19.0192 28.5527 18.9263C28.5212 18.8804 28.4898 18.8346 28.4575 18.7874C28.0659 18.2153 27.6892 17.634 27.3188 17.048C27.188 16.8433 27.0572 16.6387 26.9263 16.4342C26.8297 16.2794 26.8297 16.2794 26.7598 16.1397C26.7137 16.1397 26.6676 16.1397 26.6201 16.1397C26.5918 16.0635 26.5918 16.0635 26.563 15.9858C26.4818 15.7938 26.3887 15.633 26.2751 15.4585C26.2325 15.3926 26.1899 15.3268 26.146 15.259C26.122 15.2221 26.0979 15.1852 26.0731 15.1472C25.9435 14.9486 25.8146 14.7496 25.6857 14.5505C25.6164 14.4435 25.5469 14.3366 25.4774 14.2297C25.4454 14.1804 25.4134 14.1312 25.3805 14.0805C25.3517 14.0363 25.323 13.9922 25.2934 13.9467C25.2227 13.834 25.2227 13.834 25.1528 13.6943C25.1067 13.6943 25.0606 13.6943 25.0131 13.6943C24.9957 13.6456 24.9783 13.597 24.9604 13.5469C24.8607 13.3156 24.7363 13.119 24.5982 12.9082C24.5711 12.8666 24.544 12.8249 24.516 12.782C24.4572 12.6917 24.3982 12.6014 24.3392 12.5112C24.2054 12.3071 24.0723 12.1025 23.9394 11.8978C23.8737 11.7967 23.8079 11.6957 23.742 11.5947C23.5493 11.2985 23.369 10.9983 23.1965 10.6899C23.1504 10.6899 23.1043 10.6899 23.0568 10.6899C23.0394 10.6413 23.022 10.5926 23.0041 10.5425C22.9044 10.3112 22.78 10.1146 22.6419 9.90388C22.5853 9.81709 22.5287 9.7303 22.4722 9.64351C22.4423 9.59792 22.4124 9.55232 22.3816 9.50534C22.2857 9.35853 22.1905 9.21125 22.0955 9.06382C21.6791 8.4174 21.2571 7.77504 20.8267 7.13778C20.5511 6.72797 20.2836 6.31385 20.0218 5.89515C19.9913 5.84627 19.9607 5.79738 19.9292 5.74702C19.7125 5.39868 19.7125 5.39868 19.6332 5.24013C19.5871 5.24013 19.541 5.24013 19.4934 5.24013C19.4762 5.19257 19.4589 5.14502 19.441 5.09602C19.3368 4.85105 19.2092 4.63113 19.0742 4.4017C19.0281 4.4017 18.982 4.4017 18.9345 4.4017C18.8653 4.19419 18.8653 4.19419 18.7948 3.98249C18.7486 3.98249 18.7025 3.98249 18.655 3.98249C18.642 3.92773 18.6291 3.87297 18.6157 3.81655C18.4741 3.45933 18.2516 3.17348 18.0262 2.86458C17.957 2.76083 17.957 2.76083 17.8865 2.65497C17.5838 2.65497 17.4722 2.70846 17.2096 2.84711ZM10.75 3.1094C10.6929 3.13213 10.6359 3.15487 10.5771 3.17829C10.5163 3.20302 10.4556 3.22775 10.393 3.25323C10.3309 3.27827 10.2687 3.30332 10.2047 3.32912C9.72701 3.5237 9.25926 3.73471 8.79448 3.95819C8.59388 4.05235 8.59388 4.05235 8.38427 4.12222C8.38427 4.16834 8.38427 4.21445 8.38427 4.26196C8.3151 4.28502 8.24593 4.30807 8.17467 4.33183C8.15496 4.67349 8.16038 4.84068 8.38427 5.10039C8.43231 5.25759 8.43231 5.25759 8.45414 5.37987C8.3893 5.39428 8.32445 5.40869 8.25764 5.42353C7.81681 5.5491 7.31396 5.76262 7.05676 6.14842C7.07615 6.46074 7.1579 6.6481 7.34497 6.89515C7.57929 7.21222 7.78613 7.53898 7.98771 7.87768C8.11514 8.04877 8.18915 8.09682 8.38427 8.17462C8.9064 8.21756 9.35653 7.9672 9.80785 7.73794C9.94374 7.67055 10.0797 7.60323 10.2156 7.53598C10.2825 7.50263 10.3494 7.46927 10.4184 7.43491C10.6801 7.30682 10.9451 7.18662 11.2108 7.06706C11.4607 6.95437 11.7085 6.83765 11.9563 6.72048C12.0587 6.67216 12.161 6.62386 12.2634 6.57555C12.3149 6.5512 12.3665 6.52685 12.4197 6.50176C12.5754 6.42838 12.7313 6.35535 12.8873 6.28243C13.8793 5.88741 13.8793 5.88741 14.7424 5.31C14.8078 4.90207 14.6337 4.67798 14.4061 4.3624C14.343 4.2721 14.28 4.18176 14.217 4.09138C14.187 4.04888 14.1569 4.00637 14.126 3.96258C14.0214 3.81042 13.9286 3.65192 13.8341 3.4934C13.6644 3.31119 13.5628 3.28514 13.3144 3.24449C12.9346 3.25526 12.6133 3.44426 12.28 3.61131C12.0873 3.70301 12.0873 3.70301 11.9476 3.70301C11.9101 3.62663 11.8727 3.55026 11.8341 3.47157C11.6855 3.21034 11.5354 3.10794 11.2489 3.00432C11.0407 3.00432 10.9396 3.03356 10.75 3.1094Z" fill="black"/>
<path d="M20.2773 16.012C20.4745 16.1037 20.5643 16.2396 20.6812 16.4192C20.6812 16.5114 20.6812 16.6037 20.6812 16.6987C20.5095 16.8335 20.5095 16.8335 20.2751 16.9694C20.1997 17.0139 20.1243 17.0584 20.0467 17.1043C19.8363 17.2236 19.6236 17.3384 19.4107 17.4533C18.9826 17.6861 18.5654 17.9356 18.1485 18.1878C18.0716 18.2341 17.9947 18.2804 17.9155 18.3281C17.7637 18.4196 17.6119 18.5111 17.4602 18.6027C17.211 18.753 16.9614 18.9028 16.7118 19.0524C16.6313 19.1007 16.5507 19.149 16.4702 19.1973C16.271 19.3169 16.0718 19.4364 15.8725 19.556C15.8133 19.5915 15.754 19.6271 15.6929 19.6638C15.5726 19.7359 15.4522 19.808 15.3318 19.8799C15.0528 20.0466 14.775 20.2147 14.5 20.3878C14.4522 20.4176 14.4043 20.4474 14.3551 20.478C14.2664 20.5334 14.1781 20.5894 14.0903 20.6462C13.9248 20.7487 13.8063 20.8221 13.6083 20.8169C13.4574 20.7366 13.3859 20.6552 13.2882 20.5153C13.2575 20.473 13.2268 20.4306 13.1951 20.387C13.1354 20.262 13.1354 20.262 13.2052 20.0524C13.3671 19.9441 13.3671 19.9441 13.5939 19.821C13.6825 19.772 13.7711 19.7228 13.8597 19.6736C13.9353 19.6318 13.9353 19.6318 14.0125 19.5891C14.3557 19.397 14.6951 19.1981 15.0349 19C15.1045 18.9597 15.1742 18.9193 15.2459 18.8778C15.6552 18.6395 16.0574 18.393 16.4547 18.1353C16.6891 17.9884 16.9314 17.8592 17.1755 17.7293C17.5147 17.5424 17.8461 17.3423 18.1773 17.1416C18.226 17.1124 18.2748 17.0833 18.325 17.0532C18.3684 17.027 18.4119 17.0008 18.4566 16.9737C18.5914 16.9051 18.717 16.8694 18.8646 16.8384C18.8646 16.7923 18.8646 16.7462 18.8646 16.6987C19.0496 16.5966 19.1367 16.559 19.3537 16.559C19.3537 16.5128 19.3537 16.4667 19.3537 16.4192C19.4754 16.3469 19.5978 16.2758 19.7205 16.2052C19.7886 16.1655 19.8567 16.1258 19.9268 16.0849C20.1223 16 20.1223 16 20.2773 16.012Z" fill="black"/>
<path d="M18.1659 12.5764C18.3053 12.7623 18.4454 12.9685 18.4454 13.2052C18.2057 13.3457 17.9653 13.4851 17.7249 13.6244C17.6567 13.6644 17.5884 13.7044 17.5182 13.7456C17.4526 13.7834 17.3871 13.8212 17.3196 13.8602C17.229 13.9129 17.229 13.9129 17.1367 13.9666C16.9782 14.0436 16.9782 14.0436 16.7686 14.0436C16.7686 14.0897 16.7686 14.1358 16.7686 14.1834C16.7101 14.2114 16.6517 14.2394 16.5914 14.2682C16.1372 14.4901 15.6971 14.7221 15.2664 14.9868C14.9381 15.1885 14.6089 15.3727 14.262 15.5414C13.8295 15.7521 13.4176 15.9887 13.0046 16.2351C12.6635 16.4385 12.3194 16.634 11.9686 16.8204C11.8189 16.9022 11.6767 16.9914 11.5328 17.0829C11.3188 17.1877 11.3188 17.1877 11.1659 17.1615C10.9896 17.0034 10.877 16.8339 10.7598 16.6288C10.7598 16.5596 10.7598 16.4904 10.7598 16.4192C10.8068 16.3944 10.8537 16.3696 10.902 16.3441C11.4317 16.0618 11.9544 15.7685 12.476 15.4716C12.9584 15.1971 13.4405 14.9318 13.9402 14.6902C14.1795 14.5692 14.405 14.4286 14.6332 14.2882C14.8962 14.1342 15.1697 14.0038 15.4435 13.8703C15.7026 13.7375 15.9472 13.5864 16.1919 13.4287C16.3614 13.3385 16.5096 13.3034 16.6987 13.2751C16.6987 13.2289 16.6987 13.1828 16.6987 13.1353C17.0247 12.9723 17.3508 12.8093 17.6769 12.6462C17.7291 12.6165 17.7813 12.5868 17.8352 12.5562C17.9563 12.5065 17.9563 12.5065 18.1659 12.5764Z" fill="black"/>
<path d="M15.7205 9.01306C16.0759 9.36476 16.0759 9.36476 16.2096 9.57201C16.2096 9.64118 16.2096 9.71035 16.2096 9.78162C16.1031 9.83485 16.1031 9.83485 15.9945 9.88915C15.9484 9.91225 15.9022 9.93536 15.8546 9.95916C15.7531 10.0099 15.6516 10.0606 15.55 10.1112C15.3121 10.2299 15.0744 10.349 14.8382 10.471C14.7647 10.5087 14.6913 10.5463 14.6157 10.5851C14.5178 10.6359 14.5178 10.6359 14.4178 10.6877C14.2533 10.7598 14.2533 10.7598 14.0437 10.7598C14.0437 10.8059 14.0437 10.852 14.0437 10.8995C13.9301 10.9563 13.8166 11.0131 13.7031 11.0698C13.6026 11.1201 13.5021 11.1703 13.4016 11.2206C13.1494 11.3468 12.8971 11.4728 12.6444 11.5979C12.1137 11.8611 11.5882 12.1322 11.0655 12.411C10.5924 12.6627 10.1144 12.9045 9.63288 13.1396C9.53944 13.1865 9.44703 13.2355 9.35538 13.2858C9.28228 13.3252 9.28228 13.3252 9.20769 13.3654C9.14177 13.402 9.14177 13.402 9.07452 13.4394C8.91208 13.4954 8.82374 13.4698 8.66375 13.4148C8.6407 13.3226 8.61764 13.2304 8.59388 13.1353C8.54777 13.1353 8.50166 13.1353 8.45415 13.1353C8.43109 13.02 8.40803 12.9048 8.38428 12.786C9.19917 12.3163 10.0307 11.8872 10.8831 11.4898C11.3403 11.2752 11.7868 11.0435 12.2326 10.8062C12.7617 10.5248 13.297 10.257 13.8341 9.99123C14.4696 9.67663 15.1014 9.35934 15.7205 9.01306Z" fill="black"/>
<path d="M22.6376 19.4236C22.8472 19.7186 22.8472 19.7186 22.8472 19.9127C22.8933 19.9127 22.9394 19.9127 22.9869 19.9127C22.9869 19.9818 22.9869 20.051 22.9869 20.1223C22.8655 20.2206 22.8655 20.2206 22.6954 20.3218C22.6025 20.378 22.6025 20.378 22.5077 20.4353C22.4411 20.4747 22.3744 20.514 22.3057 20.5546C22.1703 20.6364 22.0349 20.7182 21.8996 20.8002C21.8339 20.8398 21.7683 20.8794 21.7006 20.9202C21.2901 21.1706 20.8934 21.442 20.4987 21.7164C20.414 21.7747 20.414 21.7747 20.3275 21.8341C20.2792 21.8679 20.2308 21.9018 20.181 21.9367C20.0524 22.0087 20.0524 22.0087 19.8428 22.0087C19.8428 22.0549 19.8428 22.101 19.8428 22.1485C19.6982 22.25 19.6982 22.25 19.4847 22.3755C19.4014 22.4254 19.3182 22.4753 19.235 22.5254C19.1879 22.5537 19.1407 22.5821 19.0922 22.6113C18.7821 22.8004 18.4765 22.9967 18.1703 23.1921C18.071 23.2555 18.071 23.2555 17.9696 23.3202C17.8393 23.4033 17.709 23.4865 17.5787 23.5697C17.4162 23.6736 17.2536 23.7773 17.0909 23.881C17.0038 23.9367 16.9168 23.9923 16.8297 24.048C16.756 24.0951 16.6824 24.1422 16.6065 24.1908C16.4213 24.3097 16.4213 24.3097 16.2626 24.4353C16.1398 24.524 16.1398 24.524 16 24.5328C15.778 24.4078 15.676 24.197 15.5808 23.9651C15.5808 23.8959 15.5808 23.8267 15.5808 23.7555C15.728 23.6471 15.8692 23.5545 16.0262 23.4629C16.0684 23.4372 16.1105 23.4115 16.154 23.385C16.4686 23.1965 16.4686 23.1965 16.6288 23.1965C16.6288 23.1504 16.6288 23.1043 16.6288 23.0568C16.6795 23.0298 16.7301 23.0027 16.7822 22.9749C17.2239 22.7393 17.2239 22.7393 17.6463 22.4716C17.8166 22.3581 17.8166 22.3581 17.9564 22.3581C17.9564 22.312 17.9564 22.2659 17.9564 22.2183C18.0857 22.1321 18.0857 22.1321 18.2795 22.0262C18.7135 21.7804 19.1344 21.5175 19.5546 21.2489C19.6217 21.206 19.6889 21.1632 19.758 21.119C20.0829 20.9112 20.4073 20.7028 20.7314 20.4938C20.8831 20.3961 21.0349 20.2986 21.1868 20.2013C21.2766 20.1437 21.3663 20.086 21.456 20.0282C21.6094 19.9295 21.7632 19.8315 21.9171 19.7336C21.9649 19.7027 22.0127 19.6718 22.0619 19.6399C22.4041 19.4236 22.4041 19.4236 22.6376 19.4236Z" fill="black"/>
<path d="M22.8824 13.5437C23.1557 13.6703 23.2558 13.8931 23.4018 14.1485C23.4624 14.2507 23.5232 14.3529 23.5841 14.455C23.6132 14.5045 23.6423 14.554 23.6724 14.6049C23.8079 14.8291 23.9602 15.041 24.1144 15.2525C24.1343 15.2917 24.1542 15.3308 24.1747 15.3712C24.1048 15.5808 24.1048 15.5808 23.9741 15.666C23.9149 15.6955 23.8557 15.7251 23.7948 15.7555C23.3489 15.9873 22.9247 16.2495 22.4992 16.5165C22.4468 16.5491 22.3944 16.5817 22.3403 16.6152C22.2933 16.6447 22.2462 16.6743 22.1977 16.7047C22.0786 16.7686 22.0786 16.7686 21.9389 16.7686C21.8591 16.6631 21.8591 16.6631 21.7718 16.5156C21.7397 16.462 21.7076 16.4084 21.6745 16.3532C21.6238 16.267 21.6238 16.267 21.5721 16.1791C21.503 16.0633 21.4339 15.9476 21.3646 15.8319C21.3313 15.7763 21.298 15.7206 21.2637 15.6632C21.1227 15.4332 20.9687 15.2132 20.809 14.9959C20.7899 14.9584 20.7708 14.9208 20.7511 14.8821C20.9183 14.3806 21.7345 14.0974 22.1829 13.8592C22.362 13.7662 22.362 13.7662 22.5333 13.643C22.7074 13.5546 22.7074 13.5546 22.8824 13.5437Z" fill="black"/>
<path d="M20.7511 10.131C20.9607 10.4373 20.9607 10.4373 20.9607 10.6201C21.0068 10.6201 21.0529 10.6201 21.1005 10.6201C21.1828 10.7464 21.2589 10.8768 21.3319 11.0087C21.4757 11.2647 21.6184 11.5066 21.7991 11.738C21.9389 11.9476 21.9389 11.9476 21.9298 12.0892C21.8501 12.27 21.7669 12.3132 21.5944 12.4072C21.5389 12.4378 21.4833 12.4684 21.4261 12.5C21.3676 12.531 21.3091 12.5619 21.2489 12.5939C21.191 12.6259 21.1331 12.658 21.0734 12.691C20.641 12.9257 20.641 12.9257 20.4018 12.9257C20.4018 12.9719 20.4018 13.018 20.4018 13.0655C20.3117 13.1124 20.2214 13.1589 20.131 13.2052C20.0808 13.2312 20.0305 13.2571 19.9787 13.2838C19.8428 13.345 19.8428 13.345 19.7031 13.345C19.607 13.2161 19.607 13.2161 19.4935 13.0305C19.4298 12.9267 19.4298 12.9267 19.3649 12.8207C19.3295 12.7627 19.3295 12.7627 19.2934 12.7035C19.2054 12.5626 19.1138 12.4245 19.0216 12.2863C18.9562 12.1865 18.8907 12.0867 18.8253 11.9869C18.7928 11.939 18.7602 11.891 18.7267 11.8417C18.5086 11.5041 18.5086 11.5041 18.5385 11.2999C18.7031 11.1292 18.8765 11.0513 19.0917 10.9519C19.5074 10.7555 19.9057 10.5398 20.3008 10.3049C20.5972 10.131 20.5972 10.131 20.7511 10.131Z" fill="black"/>
<path d="M25.0796 16.92C25.2751 16.9995 25.3301 17.1029 25.4413 17.2809C25.4804 17.3424 25.5196 17.404 25.5599 17.4674C25.5999 17.5322 25.64 17.597 25.6812 17.6638C25.7613 17.7909 25.8414 17.918 25.9216 18.045C25.9568 18.1017 25.992 18.1583 26.0282 18.2167C26.1283 18.3773 26.1283 18.3773 26.2489 18.5229C26.3406 18.655 26.3406 18.655 26.3406 18.8646C26.2212 18.9663 26.2212 18.9663 26.0546 19.0715C25.9638 19.1296 25.9638 19.1296 25.8712 19.1889C25.807 19.2289 25.7429 19.2689 25.6768 19.3101C25.6149 19.3495 25.5529 19.389 25.4891 19.4296C25.3662 19.5077 25.2429 19.5852 25.1192 19.6621C25.0058 19.7335 24.8934 19.8068 24.7825 19.8822C24.7339 19.9148 24.6854 19.9473 24.6353 19.9809C24.5933 20.01 24.5513 20.039 24.508 20.069C24.3843 20.1223 24.3843 20.1223 24.2358 20.105C24.0409 20.0268 23.9879 19.9039 23.8821 19.7249C23.7395 19.4883 23.5968 19.2529 23.4443 19.0227C23.4155 18.979 23.3867 18.9353 23.357 18.8903C23.3002 18.8044 23.2431 18.7186 23.1857 18.633C22.9869 18.3291 22.9869 18.3291 22.9869 18.0961C23.0937 18.0082 23.0937 18.0082 23.2418 17.9228C23.2947 17.8919 23.3477 17.8611 23.4023 17.8293C23.4583 17.7977 23.5143 17.7662 23.572 17.7336C23.6275 17.7013 23.683 17.6689 23.7402 17.6355C24.154 17.3974 24.154 17.3974 24.3144 17.3974C24.3144 17.3513 24.3144 17.3052 24.3144 17.2577C24.4127 17.1969 24.5119 17.1375 24.6113 17.0786C24.6665 17.0454 24.7216 17.0121 24.7784 16.9779C24.9432 16.9083 24.9432 16.9083 25.0796 16.92Z" fill="black"/>
<path d="M18.655 7.61572C18.8164 7.63878 18.9778 7.66184 19.1441 7.68559C19.2391 7.97064 19.1463 8.17086 19.0568 8.44542C19.0339 8.51959 19.0339 8.51959 19.0106 8.59525C18.9215 8.87527 18.8194 9.11589 18.655 9.36245C18.1858 9.30895 17.8318 9.08778 17.4319 8.85489C17.3054 8.78152 17.1781 8.70984 17.0506 8.63824C16.9708 8.59217 16.8909 8.5461 16.8087 8.49864C16.7356 8.45664 16.6625 8.41464 16.5872 8.37137C16.4192 8.24454 16.4192 8.24454 16.3556 8.09684C16.3493 7.96507 16.3493 7.96507 16.4192 7.83843C16.5932 7.7351 16.7069 7.75257 16.9026 7.78471C17.1942 7.86615 17.4477 8.02692 17.7074 8.17904C17.7652 8.21205 17.823 8.24506 17.8825 8.27907C18.024 8.36003 18.165 8.44168 18.3057 8.52402C18.3192 8.47601 18.3327 8.42801 18.3466 8.37855C18.3648 8.31559 18.383 8.25264 18.4017 8.18778C18.4196 8.12536 18.4374 8.06294 18.4558 7.99864C18.5153 7.82533 18.5153 7.82533 18.655 7.61572Z" fill="black"/>
</g>
<defs>
<clipPath id="clip0_321_2">
<rect width="32" height="32" fill="white"/>
</clipPath>
</defs>
</svg>
