<?xml version="1.0" encoding="UTF-8"?>
<svg version="1.1" xmlns="http://www.w3.org/2000/svg" width="458" height="458">
<path d="M0 0 C6.30125433 4.62949298 10.37085264 12.18845535 14.16015625 18.890625 C14.16015625 19.550625 14.16015625 20.210625 14.16015625 20.890625 C14.82015625 20.890625 15.48015625 20.890625 16.16015625 20.890625 C16.82015625 22.870625 17.48015625 24.850625 18.16015625 26.890625 C18.82015625 26.890625 19.48015625 26.890625 20.16015625 26.890625 C21.53515625 28.98828125 21.53515625 28.98828125 23.16015625 31.953125 C25.92799548 36.83552464 28.83869492 41.54789423 31.97265625 46.203125 C32.39466309 46.83009277 32.81666992 47.45706055 33.25146484 48.10302734 C34.11777617 49.38731021 34.98496952 50.67099852 35.85302734 51.95410156 C38.01177515 55.15230619 40.14746665 58.3658242 42.28515625 61.578125 C44.57942082 65.02217419 46.87494642 68.46529275 49.1796875 71.90234375 C53.6588286 78.5891267 58.04853521 85.32970017 62.39233398 92.10498047 C64.18193127 94.88664063 65.93437402 97.60440855 67.984375 100.203125 C69.16015625 101.890625 69.16015625 101.890625 69.16015625 104.890625 C69.82015625 104.890625 70.48015625 104.890625 71.16015625 104.890625 C72.66796875 107.0078125 72.66796875 107.0078125 74.28515625 109.765625 C74.82398438 110.67054688 75.3628125 111.57546875 75.91796875 112.5078125 C77.16015625 114.890625 77.16015625 114.890625 77.16015625 116.890625 C77.82015625 116.890625 78.48015625 116.890625 79.16015625 116.890625 C79.71574219 117.88320312 80.27132813 118.87578125 80.84375 119.8984375 C83.16062591 123.95068295 85.67009393 127.85892308 88.22265625 131.765625 C88.92805542 132.85242554 88.92805542 132.85242554 89.64770508 133.96118164 C92.1948269 137.88421351 94.75535788 141.79820559 97.32421875 145.70703125 C97.83073975 146.48127441 98.33726074 147.25551758 98.85913086 148.05322266 C99.83781857 149.54894384 100.82029985 151.04219088 101.80688477 152.53271484 C105.16015625 157.66543609 105.16015625 157.66543609 105.16015625 159.890625 C105.82015625 159.890625 106.48015625 159.890625 107.16015625 159.890625 C108.25756836 161.29589844 108.25756836 161.29589844 109.4375 163.25 C109.86869141 163.95382813 110.29988281 164.65765625 110.74414062 165.3828125 C111.19080078 166.12789062 111.63746094 166.87296875 112.09765625 167.640625 C112.98014392 169.0947386 113.86421464 170.54789285 114.75 172 C115.16491699 172.68384766 115.57983398 173.36769531 116.00732422 174.07226562 C117.20294642 176.02336072 117.20294642 176.02336072 118.9765625 178.21875 C120.16015625 179.890625 120.16015625 179.890625 120.16015625 182.890625 C120.82015625 182.890625 121.48015625 182.890625 122.16015625 182.890625 C123.66796875 185.0078125 123.66796875 185.0078125 125.28515625 187.765625 C126.09339844 189.12300781 126.09339844 189.12300781 126.91796875 190.5078125 C128.16015625 192.890625 128.16015625 192.890625 128.16015625 194.890625 C128.82015625 194.890625 129.48015625 194.890625 130.16015625 194.890625 C131.60546875 197.09375 131.60546875 197.09375 133.28515625 200.140625 C136.95147911 206.60792744 140.98722851 212.74229991 145.16015625 218.890625 C146.5999898 221.03489324 148.03753503 223.18070002 149.47265625 225.328125 C150.42591797 226.74931641 150.42591797 226.74931641 151.3984375 228.19921875 C156.16015625 235.47377356 156.16015625 235.47377356 156.16015625 237.890625 C156.82015625 237.890625 157.48015625 237.890625 158.16015625 237.890625 C159.55150498 239.86621973 160.80767229 241.81598424 162.03515625 243.890625 C162.39158203 244.49221436 162.74800781 245.09380371 163.11523438 245.71362305 C164.13133567 247.43862681 165.14579077 249.16459994 166.16015625 250.890625 C166.62679688 251.57769531 167.0934375 252.26476562 167.57421875 252.97265625 C171.64075124 259.45277817 171.02027472 267.56478837 170.16015625 274.890625 C167.36157076 283.28638146 160.78108449 288.62065246 153.91015625 293.828125 C153.3380542 294.26487549 152.76595215 294.70162598 152.17651367 295.15161133 C148.3256094 298.06830774 144.40092588 300.82687651 140.34765625 303.45703125 C137.85192951 305.0926236 135.41269895 306.79815447 132.97265625 308.515625 C131.36856574 309.64073359 129.76440605 310.76574356 128.16015625 311.890625 C127.22236328 312.54998047 127.22236328 312.54998047 126.265625 313.22265625 C122.39094247 315.890625 122.39094247 315.890625 120.16015625 315.890625 C120.16015625 316.550625 120.16015625 317.210625 120.16015625 317.890625 C118.03515625 319.40625 118.03515625 319.40625 115.16015625 321.140625 C110.99591767 323.66230281 107.11042012 326.38380327 103.23974609 329.32470703 C99.8715936 331.86090451 96.42222264 334.27945196 92.97265625 336.703125 C92.23144531 337.22519531 91.49023438 337.74726563 90.7265625 338.28515625 C85.36417976 342.05731514 79.97895378 345.79479857 74.578125 349.51171875 C71.91632497 351.35339227 69.2802453 353.22901476 66.6484375 355.11328125 C65.87371094 355.66628906 65.09898437 356.21929687 64.30078125 356.7890625 C62.77061087 357.88277489 61.24317439 358.98032419 59.71875 360.08203125 C59.02523438 360.57703125 58.33171875 361.07203125 57.6171875 361.58203125 C56.9981958 362.02748291 56.3792041 362.47293457 55.74145508 362.93188477 C54.16015625 363.890625 54.16015625 363.890625 52.16015625 363.890625 C52.16015625 364.550625 52.16015625 365.210625 52.16015625 365.890625 C50.24609375 367.265625 50.24609375 367.265625 47.53515625 368.890625 C42.07893514 372.24666217 36.90337242 375.88282474 31.75732422 379.68945312 C27.37122244 382.890625 27.37122244 382.890625 25.16015625 382.890625 C25.16015625 383.550625 25.16015625 384.210625 25.16015625 384.890625 C22.89453125 386.51171875 22.89453125 386.51171875 19.91015625 388.328125 C15.82020272 390.82812364 15.82020272 390.82812364 11.92578125 393.61328125 C10.16015625 394.890625 10.16015625 394.890625 8.16015625 394.890625 C8.16015625 395.550625 8.16015625 396.210625 8.16015625 396.890625 C6.18015625 397.550625 4.20015625 398.210625 2.16015625 398.890625 C2.16015625 399.550625 2.16015625 400.210625 2.16015625 400.890625 C0.7890625 401.9765625 0.7890625 401.9765625 -1.27734375 403.265625 C-4.55971345 405.37050969 -7.77442615 407.53899348 -10.94140625 409.8125 C-11.67431885 410.3379541 -12.40723145 410.8634082 -13.16235352 411.40478516 C-14.62663523 412.45779123 -16.08818795 413.51460535 -17.54663086 414.57568359 C-22.12425732 417.85275769 -26.72161755 420.54918198 -31.83984375 422.890625 C-32.649375 423.29539062 -33.45890625 423.70015625 -34.29296875 424.1171875 C-38.05420551 425.25940357 -41.67814272 425.27208662 -45.58984375 425.265625 C-46.3895459 425.26691406 -47.18924805 425.26820313 -48.01318359 425.26953125 C-54.14559356 425.15960009 -58.50350419 424.05290029 -63.83984375 420.890625 C-63.83984375 420.230625 -63.83984375 419.570625 -63.83984375 418.890625 C-64.43796875 418.6225 -65.03609375 418.354375 -65.65234375 418.078125 C-69.81492102 415.81844019 -71.3954174 412.93364953 -73.703125 408.8449707 C-75.92158039 405.03080933 -78.39612174 401.37619216 -80.8359375 397.70117188 C-83.83984375 393.10549471 -83.83984375 393.10549471 -83.83984375 390.890625 C-84.49984375 390.890625 -85.15984375 390.890625 -85.83984375 390.890625 C-87.02104933 389.19167314 -88.10526441 387.42536837 -89.15234375 385.640625 C-92.81234054 379.51115896 -96.63391295 373.49941073 -100.52734375 367.515625 C-101.07366455 366.67225586 -101.61998535 365.82888672 -102.18286133 364.95996094 C-104.61413797 361.2245385 -107.07038138 357.55041817 -109.734375 353.9765625 C-111.83984375 350.890625 -111.83984375 350.890625 -111.83984375 347.890625 C-112.49984375 347.890625 -113.15984375 347.890625 -113.83984375 347.890625 C-115.34765625 345.7734375 -115.34765625 345.7734375 -116.96484375 343.015625 C-117.50367188 342.11070312 -118.0425 341.20578125 -118.59765625 340.2734375 C-119.83984375 337.890625 -119.83984375 337.890625 -119.83984375 335.890625 C-120.49984375 335.890625 -121.15984375 335.890625 -121.83984375 335.890625 C-123.48880562 333.46089325 -125.02246948 331.03270637 -126.52734375 328.515625 C-129.35268502 323.88497972 -132.16844352 319.29576805 -135.33984375 314.890625 C-138.24703165 310.82462794 -140.90167082 306.64061581 -143.52734375 302.390625 C-147.64367642 295.73289746 -151.92345851 289.20212 -156.28759766 282.70458984 C-160.35657107 276.6398631 -164.33739715 270.52201412 -168.27514648 264.37133789 C-169.99284547 261.6972262 -171.67644309 259.09743448 -173.6484375 256.6015625 C-174.83984375 254.890625 -174.83984375 254.890625 -174.83984375 251.890625 C-175.49984375 251.890625 -176.15984375 251.890625 -176.83984375 251.890625 C-178.34765625 249.7734375 -178.34765625 249.7734375 -179.96484375 247.015625 C-180.50367188 246.11070312 -181.0425 245.20578125 -181.59765625 244.2734375 C-182.83984375 241.890625 -182.83984375 241.890625 -182.83984375 239.890625 C-183.49984375 239.890625 -184.15984375 239.890625 -184.83984375 239.890625 C-185.39671875 238.89675781 -185.95359375 237.90289062 -186.52734375 236.87890625 C-188.82912015 232.8538262 -191.30914634 228.96219538 -193.83984375 225.078125 C-194.31550781 224.34529297 -194.79117188 223.61246094 -195.28125 222.85742188 C-199.2513529 216.75714627 -203.28712182 210.70160791 -207.33764648 204.65454102 C-211.38443364 198.60315342 -215.3500923 192.50192954 -219.27539062 186.37109375 C-220.99295084 183.6970167 -222.67650796 181.09735238 -224.6484375 178.6015625 C-225.83984375 176.890625 -225.83984375 176.890625 -225.83984375 173.890625 C-226.49984375 173.890625 -227.15984375 173.890625 -227.83984375 173.890625 C-229.34765625 171.7734375 -229.34765625 171.7734375 -230.96484375 169.015625 C-231.50367188 168.11070312 -232.0425 167.20578125 -232.59765625 166.2734375 C-233.83984375 163.890625 -233.83984375 163.890625 -233.83984375 161.890625 C-234.49984375 161.890625 -235.15984375 161.890625 -235.83984375 161.890625 C-236.9765413 160.14508945 -238.02296764 158.34050974 -239.02734375 156.515625 C-241.28904292 152.520268 -243.59896982 148.6819621 -246.27734375 144.953125 C-250.44867959 139.13024216 -254.20381715 133.05933221 -257.83984375 126.890625 C-258.23816406 126.25382813 -258.63648438 125.61703125 -259.046875 124.9609375 C-261.21942309 119.28876762 -260.80880272 110.86912061 -258.94140625 105.12890625 C-257.83984375 102.953125 -257.83984375 102.953125 -255.83984375 99.890625 C-255.17984375 99.890625 -254.51984375 99.890625 -253.83984375 99.890625 C-253.56398437 99.28863281 -253.288125 98.68664062 -253.00390625 98.06640625 C-248.60530714 89.84486362 -238.9511478 87.09051567 -230.8515625 83.73876953 C-227.93716377 82.51005337 -225.07771761 81.17185133 -222.21484375 79.828125 C-217.83007185 77.78693808 -213.41808203 75.84025961 -208.96484375 73.953125 C-207.815 73.458125 -206.66515625 72.963125 -205.48046875 72.453125 C-203.59957199 71.64587317 -201.71786018 70.84022248 -199.82617188 70.05859375 C-197.77969977 69.21057598 -195.74721616 68.33431602 -193.71484375 67.453125 C-193.08723145 67.20119385 -192.45961914 66.9492627 -191.81298828 66.68969727 C-186.66067403 64.40531291 -185.25842493 61.73327167 -182.83984375 56.890625 C-180.35880439 54.09150367 -178.46944388 52.19111597 -175.08984375 50.578125 C-172.4100089 48.97282449 -172.4100089 48.97282449 -172.21484375 45.140625 C-172.16199219 44.43550781 -172.10914063 43.73039062 -172.0546875 43.00390625 C-171.38381661 36.40497619 -168.03115605 32.72330591 -163.23657227 28.64086914 C-159.10529356 25.62394573 -154.5618597 23.79642073 -149.83984375 21.890625 C-147.78862261 21.04012265 -145.73784274 20.18855527 -143.6875 19.3359375 C-142.68992676 18.92504883 -141.69235352 18.51416016 -140.66455078 18.09082031 C-138.15941791 17.02640949 -135.71551103 15.895719 -133.2734375 14.6953125 C-124.88169772 10.59855764 -117.3192766 8.14594411 -107.83984375 9.890625 C-105.14054982 11.06753234 -102.67517525 12.42953064 -100.1328125 13.91015625 C-96.74417642 15.35913011 -94.54862931 14.57966705 -91.1328125 13.515625 C-86.33474794 12.20780502 -80.93624754 12.28990111 -76.16796875 13.65625 C-71.09629767 14.01340994 -67.32452882 11.91959408 -62.77734375 9.828125 C-61.8443042 9.41344971 -60.91126465 8.99877441 -59.94995117 8.5715332 C-57.23853796 7.36142867 -54.5375559 6.13092854 -51.83984375 4.890625 C-51.15245117 4.57544922 -50.46505859 4.26027344 -49.75683594 3.93554688 C-48.05398026 3.15268736 -46.35308009 2.3655781 -44.65234375 1.578125 C-43.64300781 1.11535156 -42.63367188 0.65257812 -41.59375 0.17578125 C-39.85553683 -0.6353849 -38.13133935 -1.47798101 -36.4296875 -2.36328125 C-24.80653588 -7.93230381 -10.82543446 -6.52743819 0 0 Z M-27.52734375 21.640625 C-31.09887032 23.48900876 -34.64716705 25.2974409 -38.33984375 26.890625 C-43.95091441 29.32932238 -49.38601531 32.12218417 -54.83984375 34.890625 C-53.54799546 38.95071962 -52.04155021 42.25302302 -49.83984375 45.890625 C-47.65397017 51.65338261 -48.28325669 58.3409393 -50.73364258 63.90234375 C-54.92432247 71.43465385 -63.98562708 74.69757883 -71.40234375 78.140625 C-72.59239014 78.70346191 -73.78243652 79.26629883 -75.00854492 79.84619141 C-83.42457293 83.81999919 -91.89544305 87.67543148 -100.3828125 91.49414062 C-106.56263965 94.28103147 -112.62686435 97.2313314 -118.671875 100.30078125 C-123.99777578 102.97358226 -129.4030542 105.45320126 -134.83984375 107.890625 C-135.71382813 108.30699219 -136.5878125 108.72335938 -137.48828125 109.15234375 C-146.53715511 113.22005519 -154.56801944 112.63411837 -163.94140625 109.83984375 C-164.56789062 109.52660156 -165.194375 109.21335937 -165.83984375 108.890625 C-166.16984375 107.900625 -166.49984375 106.910625 -166.83984375 105.890625 C-167.62359375 105.1275 -168.40734375 104.364375 -169.21484375 103.578125 C-171.89658848 100.83252921 -173.29907813 98.37762087 -174.83984375 94.890625 C-175.49984375 94.890625 -176.15984375 94.890625 -176.83984375 94.890625 C-177.16984375 93.570625 -177.49984375 92.250625 -177.83984375 90.890625 C-189.36924872 95.45524072 -200.6558792 100.54295263 -211.83984375 105.890625 C-213.020625 106.45394531 -214.20140625 107.01726562 -215.41796875 107.59765625 C-216.5059375 108.12746094 -217.59390625 108.65726562 -218.71484375 109.203125 C-219.68164062 109.67363281 -220.6484375 110.14414063 -221.64453125 110.62890625 C-223.97422926 111.69887209 -223.97422926 111.69887209 -224.83984375 113.890625 C-223.4785263 116.37158782 -222.0647421 118.70875549 -220.52734375 121.078125 C-220.07456055 121.7892041 -219.62177734 122.5002832 -219.15527344 123.23291016 C-215.62463733 128.75090155 -211.99637158 134.204057 -208.32885742 139.63183594 C-205.35079657 144.05584013 -202.60054726 148.57425098 -199.99609375 153.23046875 C-199.61453125 153.77832031 -199.23296875 154.32617188 -198.83984375 154.890625 C-198.17984375 154.890625 -197.51984375 154.890625 -196.83984375 154.890625 C-196.58589844 155.59960938 -196.33195312 156.30859375 -196.0703125 157.0390625 C-194.72580011 160.15491661 -193.07142767 162.71806062 -191.15234375 165.515625 C-188.51697806 169.40231541 -185.91438055 173.29801548 -183.40234375 177.265625 C-182.54382813 178.62107422 -182.54382813 178.62107422 -181.66796875 180.00390625 C-181.0646875 180.95652344 -180.46140625 181.90914062 -179.83984375 182.890625 C-174.96521184 190.55211042 -170.01491188 198.15596624 -164.96484375 205.703125 C-160.88468892 211.80342377 -156.83533091 217.9219794 -152.83984375 224.078125 C-152.17299561 225.10160034 -152.17299561 225.10160034 -151.49267578 226.14575195 C-148.79321988 230.31871673 -146.26931936 234.55468589 -143.83984375 238.890625 C-143.17984375 238.890625 -142.51984375 238.890625 -141.83984375 238.890625 C-141.59234375 239.57125 -141.34484375 240.251875 -141.08984375 240.953125 C-139.59786467 244.45927583 -137.77148864 247.60682868 -135.83984375 250.890625 C-135.17984375 250.890625 -134.51984375 250.890625 -133.83984375 250.890625 C-133.65421875 251.674375 -133.46859375 252.458125 -133.27734375 253.265625 C-131.6242312 257.4343436 -129.37045591 260.58517979 -126.75390625 264.203125 C-124.91851967 266.78015758 -123.20962822 269.39922651 -121.52734375 272.078125 C-118.78173818 276.43807326 -115.95901765 280.73670911 -113.08984375 285.015625 C-108.93457029 291.21624032 -104.86267661 297.46700388 -100.82104492 303.7421875 C-98.05626811 308.0292446 -95.25027887 312.28335036 -92.40234375 316.515625 C-89.69240364 320.55549465 -87.16895109 324.62059488 -84.83984375 328.890625 C-84.17984375 328.890625 -83.51984375 328.890625 -82.83984375 328.890625 C-82.65421875 329.674375 -82.46859375 330.458125 -82.27734375 331.265625 C-80.67673331 335.30194699 -78.56746404 338.28336661 -76.03515625 341.78515625 C-73.34577018 345.58953689 -70.80523717 349.47773685 -68.27734375 353.390625 C-67.80248535 354.1237793 -67.32762695 354.85693359 -66.83837891 355.61230469 C-63.7354562 360.42900709 -60.7639668 365.30190704 -57.9609375 370.30078125 C-57.59097656 370.82542969 -57.22101563 371.35007812 -56.83984375 371.890625 C-56.17984375 371.890625 -55.51984375 371.890625 -54.83984375 371.890625 C-54.59234375 372.57511719 -54.34484375 373.25960938 -54.08984375 373.96484375 C-52.62275023 377.39875951 -50.7918507 380.5311137 -48.83984375 383.703125 C-48.4840625 384.30060547 -48.12828125 384.89808594 -47.76171875 385.51367188 C-46.84539933 387.00952914 -45.84849128 388.45540362 -44.83984375 389.890625 C-44.17984375 389.890625 -43.51984375 389.890625 -42.83984375 389.890625 C-42.17984375 391.540625 -41.51984375 393.190625 -40.83984375 394.890625 C-38.85984375 393.900625 -36.87984375 392.910625 -34.83984375 391.890625 C-34.83984375 391.230625 -34.83984375 390.570625 -34.83984375 389.890625 C-34.01484375 389.684375 -33.18984375 389.478125 -32.33984375 389.265625 C-28.54545495 387.77497226 -25.92194097 385.860181 -22.76953125 383.328125 C-20.86705384 381.91089486 -18.98887875 380.88395674 -16.83984375 379.890625 C-16.83984375 379.230625 -16.83984375 378.570625 -16.83984375 377.890625 C-15.73515747 377.48203247 -15.73515747 377.48203247 -14.6081543 377.06518555 C-11.98479542 375.95212623 -9.88201792 374.71667091 -7.546875 373.09765625 C-6.36170288 372.28107544 -6.36170288 372.28107544 -5.15258789 371.44799805 C-3.91496704 370.58428589 -3.91496704 370.58428589 -2.65234375 369.703125 C-1.79954834 369.11378174 -0.94675293 368.52443848 -0.06811523 367.91723633 C4.91193812 364.47148267 9.87120838 360.99620499 14.82421875 357.51171875 C26.64605704 349.30760021 26.64605704 349.30760021 32.015625 346.28125 C32.72332031 345.82234375 33.43101562 345.3634375 34.16015625 344.890625 C34.16015625 344.230625 34.16015625 343.570625 34.16015625 342.890625 C34.86785156 342.63667969 35.57554687 342.38273437 36.3046875 342.12109375 C39.4335549 340.772813 42.03045449 339.11761858 44.84765625 337.203125 C46.43513672 336.12804687 46.43513672 336.12804687 48.0546875 335.03125 C51.53175289 332.6344804 54.98101621 330.20066875 58.42578125 327.7578125 C60.56096922 326.29978414 62.70690314 324.89924188 64.89453125 323.5234375 C65.53793457 323.11794678 66.18133789 322.71245605 66.84423828 322.29467773 C68.12246205 321.49349672 69.4046225 320.69855709 70.69091797 319.91040039 C72.21444567 318.95570996 73.69241555 317.92904097 75.16015625 316.890625 C75.16015625 316.230625 75.16015625 315.570625 75.16015625 314.890625 C75.86591797 314.63917725 76.57167969 314.38772949 77.29882812 314.12866211 C80.47880061 312.75275422 83.08975939 311.04962114 85.94140625 309.08203125 C86.47737427 308.7146434 87.01334229 308.34725555 87.56555176 307.96873474 C89.26691889 306.80139064 90.96371014 305.62760626 92.66015625 304.453125 C94.3573902 303.28340971 96.05557027 302.1150982 97.75476074 300.94822693 C99.29730033 299.888115 100.83720231 298.82416817 102.37695312 297.76000977 C105.16015625 295.890625 105.16015625 295.890625 108.02148438 294.26928711 C109.08012695 293.58684937 109.08012695 293.58684937 110.16015625 292.890625 C110.16015625 292.230625 110.16015625 291.570625 110.16015625 290.890625 C111.2275 290.50583984 111.2275 290.50583984 112.31640625 290.11328125 C115.37760831 288.79713256 117.90535099 287.20124121 120.66015625 285.328125 C122.2225 284.26851563 122.2225 284.26851563 123.81640625 283.1875 C124.93145613 282.42255464 126.04602659 281.65691003 127.16015625 280.890625 C127.74023438 280.49294922 128.3203125 280.09527344 128.91796875 279.68554688 C136.62928995 274.41419988 136.62928995 274.41419988 144.16015625 268.890625 C142.74455956 263.80381052 140.50273076 260.04339062 137.53515625 255.765625 C136.63016778 254.43492341 135.72522038 253.10419389 134.8203125 251.7734375 C134.37059082 251.11762695 133.92086914 250.46181641 133.45751953 249.78613281 C127.85280185 241.59738082 122.46163215 233.27767902 117.16015625 224.890625 C115.28851795 221.96175389 113.41638329 219.03320403 111.54296875 216.10546875 C110.16015625 213.890625 110.16015625 213.890625 109.16015625 211.890625 C108.50015625 211.890625 107.84015625 211.890625 107.16015625 211.890625 C106.75603516 210.80007812 106.75603516 210.80007812 106.34375 209.6875 C105.18092211 206.93969548 103.84909797 204.63794872 102.22265625 202.140625 C101.61292969 201.19832031 101.00320313 200.25601563 100.375 199.28515625 C100.03065918 198.75744629 99.68631836 198.22973633 99.33154297 197.68603516 C97.47688604 194.84336174 95.63201914 191.99435587 93.78686523 189.14550781 C92.79437998 187.61394058 91.8004274 186.0833231 90.80493164 184.55371094 C90.34723389 183.84891602 89.88953613 183.14412109 89.41796875 182.41796875 C89.00691895 181.78624756 88.59586914 181.15452637 88.17236328 180.50366211 C87.16015625 178.890625 87.16015625 178.890625 86.16015625 176.890625 C85.50015625 176.890625 84.84015625 176.890625 84.16015625 176.890625 C83.91136719 176.19453125 83.66257812 175.4984375 83.40625 174.78125 C81.97925659 171.47098315 80.1987476 168.65657636 78.22265625 165.640625 C77.83440674 165.04435303 77.44615723 164.44808105 77.04614258 163.83374023 C76.20408486 162.54083528 75.36018168 161.2491308 74.51464844 159.95849609 C72.60055754 157.03629892 70.6949183 154.10866459 68.79272461 151.17871094 C67.85296286 149.73136035 66.91117607 148.28532191 65.96704102 146.84082031 C63.21029885 142.60092752 60.62903624 138.30468317 58.16015625 133.890625 C57.50015625 133.890625 56.84015625 133.890625 56.16015625 133.890625 C55.91136719 133.19453125 55.66257812 132.4984375 55.40625 131.78125 C53.97925659 128.47098315 52.1987476 125.65657636 50.22265625 122.640625 C49.41272876 121.39845814 48.60283443 120.15626966 47.79296875 118.9140625 C47.36532227 118.26147461 46.93767578 117.60888672 46.49707031 116.93652344 C45.12398008 114.8352641 43.76168404 112.72736508 42.40234375 110.6171875 C36.44173538 101.36534998 30.40213989 92.17152542 24.2421875 83.05078125 C20.29784579 77.18544277 16.46972805 71.2582586 12.72265625 65.265625 C12.28518066 64.56598633 11.84770508 63.86634766 11.39697266 63.14550781 C8.29481162 58.15993574 8.29481162 58.15993574 7.16015625 55.890625 C6.50015625 55.890625 5.84015625 55.890625 5.16015625 55.890625 C4.91265625 55.21 4.66515625 54.529375 4.41015625 53.828125 C2.91817717 50.32197417 1.09180114 47.17442132 -0.83984375 43.890625 C-1.49984375 43.890625 -2.15984375 43.890625 -2.83984375 43.890625 C-3.82984375 40.920625 -3.82984375 40.920625 -4.83984375 37.890625 C-5.49984375 37.890625 -6.15984375 37.890625 -6.83984375 37.890625 C-7.02546875 37.106875 -7.21109375 36.323125 -7.40234375 35.515625 C-9.42979973 30.40290992 -12.61345809 26.31168648 -15.83984375 21.890625 C-16.82984375 20.405625 -16.82984375 20.405625 -17.83984375 18.890625 C-22.17177304 18.890625 -23.7694944 19.65608757 -27.52734375 21.640625 Z M-119.98046875 25.39453125 C-120.79717041 25.71993896 -121.61387207 26.04534668 -122.45532227 26.38061523 C-123.32471436 26.73454346 -124.19410645 27.08847168 -125.08984375 27.453125 C-125.97921631 27.81156494 -126.86858887 28.17000488 -127.78491211 28.53930664 C-134.62193222 31.32425978 -141.31656438 34.34438223 -147.96875 37.54296875 C-150.83984375 38.890625 -150.83984375 38.890625 -153.83984375 39.890625 C-153.83984375 40.550625 -153.83984375 41.210625 -153.83984375 41.890625 C-154.82984375 42.220625 -155.81984375 42.550625 -156.83984375 42.890625 C-157.12196288 47.78068997 -157.04428643 50.17347149 -153.83984375 53.890625 C-153.15234375 56.140625 -153.15234375 56.140625 -152.83984375 57.890625 C-153.76796875 58.096875 -154.69609375 58.303125 -155.65234375 58.515625 C-161.96171738 60.31276216 -169.15867354 63.36886969 -172.83984375 68.890625 C-172.56234843 73.36071261 -171.39225299 76.04226392 -168.71484375 79.578125 C-165.36122301 84.11618674 -162.40082428 88.79293933 -159.515625 93.640625 C-157.69188748 96.08927957 -156.63251897 96.77698346 -153.83984375 97.890625 C-146.36689771 98.50514586 -139.9244648 94.92183835 -133.46484375 91.640625 C-131.52005343 90.6760298 -129.57474204 89.71248446 -127.62890625 88.75 C-126.67129395 88.27264404 -125.71368164 87.79528809 -124.72705078 87.3034668 C-120.98066194 85.47018824 -117.18858216 83.74983435 -113.38525391 82.03857422 C-109.80905286 80.42575077 -106.26124527 78.75521079 -102.71484375 77.078125 C-101.25003523 76.38664411 -99.78519039 75.69524016 -98.3203125 75.00390625 C-97.58216309 74.65537598 -96.84401367 74.3068457 -96.08349609 73.94775391 C-93.85434862 72.89745918 -91.62290002 71.85222288 -89.390625 70.80859375 C-75.19267995 65.15487191 -75.19267995 65.15487191 -62.83984375 56.890625 C-61.90259651 51.05217662 -64.39496642 47.84496115 -67.65234375 43.328125 C-68.55557209 42.03577404 -69.45793514 40.74281784 -70.359375 39.44921875 C-70.78903564 38.84086182 -71.21869629 38.23250488 -71.66137695 37.60571289 C-73.15780705 35.42787543 -74.48683074 33.15939681 -75.83984375 30.890625 C-78.26786562 28.28274966 -79.72223391 27.90987025 -83.27734375 27.328125 C-88.71336679 27.48226554 -93.31141018 30.1872801 -98.08203125 32.578125 C-100.83984375 33.890625 -100.83984375 33.890625 -102.83984375 33.890625 C-103.37609375 32.7975 -103.91234375 31.704375 -104.46484375 30.578125 C-106.59156704 26.83933032 -108.7395528 25.37370896 -112.83984375 23.890625 C-115.8199462 23.890625 -117.26606521 24.30907076 -119.98046875 25.39453125 Z " fill="#000000" transform="translate(273.83984375,19.109375)"/>
<path d="M0 0 C2.82334041 1.31260563 4.10763195 3.25792585 5.78125 5.828125 C5.78125 7.148125 5.78125 8.468125 5.78125 9.828125 C3.32421875 11.7578125 3.32421875 11.7578125 -0.03125 13.703125 C-1.11019531 14.33992187 -2.18914062 14.97671875 -3.30078125 15.6328125 C-6.31206348 17.34069795 -9.35604089 18.98447344 -12.40234375 20.62890625 C-18.53052722 23.96040867 -24.50115474 27.53127054 -30.46875 31.140625 C-31.56920654 31.80360596 -32.66966309 32.46658691 -33.8034668 33.1496582 C-35.97610426 34.45861272 -38.14824276 35.76839586 -40.31982422 37.07910156 C-43.88648723 39.23099425 -47.45813089 41.37447725 -51.03125 43.515625 C-52.1836371 44.20695899 -53.33598032 44.89836614 -54.48828125 45.58984375 C-57.33984375 47.30078125 -60.19140625 49.01171875 -63.04296875 50.72265625 C-63.89141357 51.23199707 -64.7398584 51.74133789 -65.61401367 52.26611328 C-67.33585522 53.29866949 -69.05865904 54.32962292 -70.7824707 55.35888672 C-74.77516016 57.74533066 -78.75127494 60.1502484 -82.6875 62.62890625 C-83.37199219 63.05494141 -84.05648437 63.48097656 -84.76171875 63.91992188 C-86.03118944 64.71175738 -87.29466778 65.5133138 -88.55078125 66.32617188 C-90.91986026 67.79391163 -92.61624121 68.84395273 -95.44921875 68.76953125 C-97.60944202 67.6202734 -98.63268971 66.45589713 -100.03125 64.453125 C-100.47082031 63.84726562 -100.91039062 63.24140625 -101.36328125 62.6171875 C-102.21875 60.828125 -102.21875 60.828125 -101.21875 57.828125 C-98.90234375 56.27734375 -98.90234375 56.27734375 -95.65625 54.515625 C-94.38714021 53.81409073 -93.11898712 53.11082421 -91.8515625 52.40625 C-90.7692334 51.80780273 -90.7692334 51.80780273 -89.66503906 51.19726562 C-84.7521111 48.44759497 -79.89515019 45.60080096 -75.03125 42.765625 C-74.03472412 42.1883667 -73.03819824 41.6111084 -72.01147461 41.01635742 C-66.15361974 37.6065613 -60.39708029 34.07848609 -54.71020508 30.39013672 C-51.35580015 28.28710068 -47.88746494 26.43832703 -44.39453125 24.578125 C-39.5399305 21.90301905 -34.79581423 19.03997955 -30.05615234 16.16674805 C-29.35828613 15.74949463 -28.66041992 15.33224121 -27.94140625 14.90234375 C-27.32015869 14.52682373 -26.69891113 14.15130371 -26.05883789 13.7644043 C-24.12940284 12.7826631 -22.33173725 12.2709212 -20.21875 11.828125 C-20.21875 11.168125 -20.21875 10.508125 -20.21875 9.828125 C-17.57136084 8.3674965 -16.32426666 7.828125 -13.21875 7.828125 C-13.21875 7.168125 -13.21875 6.508125 -13.21875 5.828125 C-11.47752451 4.79239604 -9.72538405 3.7749998 -7.96875 2.765625 C-6.99421875 2.19714844 -6.0196875 1.62867188 -5.015625 1.04296875 C-2.21875 -0.171875 -2.21875 -0.171875 0 0 Z " fill="#000000" transform="translate(290.21875,229.171875)"/>
<path d="M0 0 C1.99396257 2.66083969 4 5.61242325 4 9 C0.56853286 11.01048951 -2.87110912 13.00655245 -6.3125 15 C-7.28896484 15.57234375 -8.26542969 16.1446875 -9.27148438 16.734375 C-10.20927734 17.27578125 -11.14707031 17.8171875 -12.11328125 18.375 C-13.40939331 19.12910156 -13.40939331 19.12910156 -14.73168945 19.8984375 C-17 21 -17 21 -20 21 C-20 21.66 -20 22.32 -20 23 C-20.83660156 23.40089844 -21.67320312 23.80179688 -22.53515625 24.21484375 C-29.03636491 27.38985263 -35.33491464 30.71057819 -41.5 34.5 C-46.19797551 37.38547562 -50.90991281 40.02312694 -55.875 42.4375 C-62.06553532 45.45214347 -67.96027301 48.83940988 -73.87207031 52.36547852 C-78.75421963 55.27676476 -83.6779886 58.07537331 -88.69921875 60.7421875 C-90.84226735 61.91376925 -92.87751093 63.19028063 -94.9375 64.5 C-98 66 -98 66 -100.1875 65.625 C-102.71172499 63.36190173 -104.32237331 60.93584671 -106 58 C-106 57.01 -106 56.02 -106 55 C-105.32839844 54.64550781 -104.65679687 54.29101562 -103.96484375 53.92578125 C-96.38382898 49.88583402 -88.90321116 45.68676804 -81.4375 41.4375 C-74.53247657 37.50981102 -67.63290748 33.71143435 -60.48046875 30.25390625 C-57.05572882 28.52265976 -53.82881813 26.51004193 -50.5625 24.5 C-46.79847669 22.29666928 -42.88310051 20.43075302 -38.96484375 18.51953125 C-35.25587556 16.61862397 -31.75508106 14.45632129 -28.25390625 12.19921875 C-25.82698485 10.90794515 -23.7065928 10.40575024 -21 10 C-21 9.34 -21 8.68 -21 8 C-16.33333333 5.66666667 -11.66666667 3.33333333 -7 1 C-6.25234375 0.57460937 -5.5046875 0.14921875 -4.734375 -0.2890625 C-3 -1 -3 -1 0 0 Z " fill="#000000" transform="translate(260,180)"/>
<path d="M0 0 C5.08628319 5.03373894 5.08628319 5.03373894 7 8 C7 8.99 7 9.98 7 11 C5.47632813 11.76183594 5.47632813 11.76183594 3.921875 12.5390625 C3.26082764 12.86970703 2.59978027 13.20035156 1.91870117 13.54101562 C0.46612878 14.26705653 -0.98683749 14.99230991 -2.44018555 15.71679688 C-5.8459122 17.4157136 -9.24720012 19.12087331 -12.62890625 20.8671875 C-13.67949219 21.40601563 -14.73007813 21.94484375 -15.8125 22.5 C-17.21435547 23.22703125 -17.21435547 23.22703125 -18.64453125 23.96875 C-21 25 -21 25 -24 25 C-24 25.66 -24 26.32 -24 27 C-25.62490234 27.81245117 -27.24981256 28.6248866 -28.87475586 29.43725586 C-30.31319941 30.15656026 -31.75150941 30.87613176 -33.18969727 31.59594727 C-36.79925373 33.40209527 -40.4102822 35.20501724 -44.02734375 36.99609375 C-51.62226626 40.76323595 -59.14436631 44.64308761 -66.62451172 48.63330078 C-73.39628543 52.2350428 -80.23711653 55.69564329 -87.12939453 59.06103516 C-88.46680043 59.73235636 -89.78940189 60.43350144 -91.10107422 61.15380859 C-92.14739014 61.71769287 -92.14739014 61.71769287 -93.21484375 62.29296875 C-94.15831665 62.81733521 -94.15831665 62.81733521 -95.12084961 63.35229492 C-97.44584843 64.15367492 -98.71020163 63.78778194 -101 63 C-101.33 61.68 -101.66 60.36 -102 59 C-102.66 59 -103.32 59 -104 59 C-104.33 57.35 -104.66 55.7 -105 54 C-93.3368059 47.27704485 -81.43626313 41.1367445 -69.23608398 35.44873047 C-62.69252221 32.37730338 -56.30130156 29.06038132 -49.92114258 25.66479492 C-42.34863959 21.63673438 -34.68706667 17.80359558 -27 14 C-17.90431883 9.49727262 -8.86082272 4.95605339 0 0 Z " fill="#000000" transform="translate(225,129)"/>
<path d="M0 0 C3 4.22222222 3 4.22222222 3 7 C3.66 7 4.32 7 5 7 C5 7.99 5 8.98 5 10 C3.26269531 11.40698242 3.26269531 11.40698242 0.828125 12.85546875 C-0.5017041 13.6597229 -0.5017041 13.6597229 -1.85839844 14.48022461 C-2.81262695 15.04362549 -3.76685547 15.60702637 -4.75 16.1875 C-6.68841778 17.35785626 -8.62592367 18.52972422 -10.5625 19.703125 C-11.50222656 20.26966797 -12.44195312 20.83621094 -13.41015625 21.41992188 C-19.28511431 25.00426657 -24.96319968 28.88921951 -30.61328125 32.81640625 C-31.82564453 33.64978516 -31.82564453 33.64978516 -33.0625 34.5 C-33.75472656 34.9846875 -34.44695312 35.469375 -35.16015625 35.96875 C-37 37 -37 37 -40 37 C-40 37.66 -40 38.32 -40 39 C-42.0703125 40.453125 -42.0703125 40.453125 -45.125 42.25 C-46.31757701 42.96288884 -47.50888627 43.67790092 -48.69921875 44.39453125 C-49.37388184 44.80010254 -50.04854492 45.20567383 -50.74365234 45.62353516 C-55.18172919 48.33094451 -59.55557602 51.14047156 -63.9375 53.9375 C-65.3596582 54.84447632 -65.3596582 54.84447632 -66.81054688 55.76977539 C-68.67565118 56.95988803 -70.54040687 58.15054721 -72.40478516 59.34179688 C-74.73119239 60.82824635 -77.05886235 62.31269678 -79.38671875 63.796875 C-80.63295792 64.59352255 -81.87906375 65.39037877 -83.125 66.1875 C-84.17945313 66.86167969 -85.23390625 67.53585937 -86.3203125 68.23046875 C-88.97022033 69.93312402 -88.97022033 69.93312402 -91.2421875 71.73046875 C-93 73 -93 73 -95 73.125 C-98.17831037 71.33720042 -99.63732768 68.31970171 -101 65 C-101 64.01 -101 63.02 -101 62 C-98.8940354 60.44870495 -96.87244957 59.12351225 -94.625 57.8125 C-94.02171875 57.44447266 -93.4184375 57.07644531 -92.796875 56.69726562 C-88.29309195 54 -88.29309195 54 -86 54 C-86 53.34 -86 52.68 -86 52 C-85.27554688 51.61328125 -84.55109375 51.2265625 -83.8046875 50.828125 C-77.48302047 47.45666625 -77.48302047 47.45666625 -71.4375 43.625 C-69 42 -69 42 -67 42 C-67 41.34 -67 40.68 -67 40 C-65.1484375 38.765625 -65.1484375 38.765625 -62.375 37.25 C-56.16398065 33.73238477 -50.1388949 29.96931228 -44.125 26.125 C-43.16432617 25.51140625 -42.20365234 24.8978125 -41.21386719 24.265625 C-36.56440817 21.29148994 -31.92090641 18.30816288 -27.28198242 15.31762695 C-25.11138407 13.91906697 -22.93842251 12.52420396 -20.76416016 11.13134766 C-19.47893068 10.307136 -18.19491369 9.48103274 -16.91162109 8.65380859 C-14.71626606 7.24143607 -12.51504593 5.83862574 -10.3125 4.4375 C-9.62816895 3.9950293 -8.94383789 3.55255859 -8.23876953 3.09667969 C-3.34206767 0 -3.34206767 0 0 0 Z " fill="#000000" transform="translate(324,278)"/>
<path d="M0 0 C3.91131437 1.81181385 5.34426715 5.00146442 7.43359375 8.65625 C8.3020586 10.119278 9.17184444 11.5815227 10.04296875 13.04296875 C10.45998047 13.75114746 10.87699219 14.45932617 11.30664062 15.18896484 C13.2461677 18.39682797 15.42601807 21.42938068 17.6328125 24.45703125 C17.91769531 25.01777344 18.20257813 25.57851562 18.49609375 26.15625 C17.49609375 29.15625 17.49609375 29.15625 15.625 30.375 C14.77808594 30.7978125 13.93117188 31.220625 13.05859375 31.65625 C6.67682059 34.97342497 0.60612277 38.72604548 -5.48413086 42.54882812 C-6.2344458 43.01482422 -6.98476074 43.48082031 -7.7578125 43.9609375 C-8.43142822 44.38358887 -9.10504395 44.80624023 -9.79907227 45.24169922 C-11.50390625 46.15625 -11.50390625 46.15625 -13.50390625 46.15625 C-14.64550781 44.64672852 -14.64550781 44.64672852 -15.89453125 42.53515625 C-16.3544043 41.76824463 -16.81427734 41.00133301 -17.28808594 40.21118164 C-18.01366699 38.97742798 -18.01366699 38.97742798 -18.75390625 37.71875 C-19.74181147 36.06149851 -20.73137899 34.40523673 -21.72265625 32.75 C-22.19960938 31.95335937 -22.6765625 31.15671875 -23.16796875 30.3359375 C-25.18577984 27.04371941 -27.38904631 23.89486447 -29.67578125 20.78515625 C-29.9490625 20.24761719 -30.22234375 19.71007812 -30.50390625 19.15625 C-28.11119822 11.97812591 -16.42836396 7.92506633 -10.01171875 4.515625 C-7.44815535 3.18450044 -7.44815535 3.18450044 -4.99609375 1.421875 C-2.50390625 0.15625 -2.50390625 0.15625 0 0 Z " fill="#000000" transform="translate(327.50390625,193.84375)"/>
<path d="M0 0 C3 4.38461538 3 4.38461538 3 7 C3.66 7 4.32 7 5 7 C6.17850314 8.80782975 7.26761406 10.67429148 8.3125 12.5625 C10.37059644 16.22565278 12.41342923 19.68889961 15 23 C17 26 17 26 16.87060547 28.02636719 C15.72913272 30.61404685 14.53786159 31.23238725 12.0703125 32.578125 C11.27496094 33.01640625 10.47960937 33.4546875 9.66015625 33.90625 C8.82355469 34.3496875 7.98695313 34.793125 7.125 35.25 C6.29613281 35.70890625 5.46726562 36.1678125 4.61328125 36.640625 C-1.57556734 40 -1.57556734 40 -5 40 C-5 40.66 -5 41.32 -5 42 C-6.28913487 42.67154933 -7.58140204 43.33708859 -8.875 44 C-9.59429687 44.37125 -10.31359375 44.7425 -11.0546875 45.125 C-13 46 -13 46 -15 46 C-16.375 44.15625 -16.375 44.15625 -18 41.5 C-18.91072266 40.01306641 -18.91072266 40.01306641 -19.83984375 38.49609375 C-20.34620361 37.66634033 -20.34620361 37.66634033 -20.86279297 36.81982422 C-22.12297394 34.80321002 -23.43454131 32.82602194 -24.75390625 30.84765625 C-25.6901348 29.41929091 -26.62633289 27.99090561 -27.5625 26.5625 C-28.02849609 25.87671875 -28.49449219 25.1909375 -28.97460938 24.484375 C-32.09552145 19.65291722 -32.09552145 19.65291722 -31.66796875 16.73046875 C-29.31245593 14.28669316 -26.83010513 13.17264945 -23.75 11.75 C-17.80078836 8.93856809 -12.1003511 5.85105374 -6.44433594 2.48925781 C-2.20346956 0 -2.20346956 0 0 0 Z " fill="#000000" transform="translate(297,145)"/>
<path d="M0 0 C2.79838486 1.13816774 3.58498936 2.61827647 5.17700195 5.16503906 C5.73709961 6.04611328 6.29719727 6.9271875 6.87426758 7.83496094 C7.44725586 8.76244141 8.02024414 9.68992188 8.6105957 10.64550781 C9.7566908 12.46517388 10.90379103 14.28420735 12.05200195 16.10253906 C12.55546143 16.91311768 13.0589209 17.72369629 13.57763672 18.55883789 C15.01041713 20.85853218 15.01041713 20.85853218 16.73535156 22.94116211 C18.0480957 24.83300781 18.0480957 24.83300781 18.0480957 27.83300781 C16.33911133 29.28759766 16.33911133 29.28759766 13.9543457 30.79394531 C12.6549707 31.62539063 12.6549707 31.62539063 11.3293457 32.47363281 C10.4115332 33.04597656 9.4937207 33.61832031 8.5480957 34.20800781 C7.6612207 34.77261719 6.7743457 35.33722656 5.8605957 35.91894531 C4.1016001 37.03642487 2.33730802 38.1456143 0.56762695 39.24609375 C-1.05656053 40.26908005 -2.66506057 41.31762716 -4.25268555 42.39648438 C-4.94749023 42.86280273 -5.64229492 43.32912109 -6.3581543 43.80957031 C-6.95950195 44.2254541 -7.56084961 44.64133789 -8.18041992 45.06982422 C-9.9519043 45.83300781 -9.9519043 45.83300781 -12.07617188 45.58520508 C-14.86615023 44.46638127 -15.62455577 42.70765903 -17.1394043 40.14550781 C-19.18062029 36.75975172 -21.22191909 33.39061184 -23.4050293 30.09472656 C-23.8172876 29.46977295 -24.2295459 28.84481934 -24.65429688 28.20092773 C-25.46783648 26.97056769 -26.28529275 25.74278711 -27.10693359 24.51782227 C-29.9519043 20.16774633 -29.9519043 20.16774633 -29.9519043 16.83300781 C-28.4230957 15.57446289 -28.4230957 15.57446289 -26.3034668 14.35253906 C-25.54549805 13.91103516 -24.7875293 13.46953125 -24.0065918 13.01464844 C-23.20479492 12.56283203 -22.40299805 12.11101562 -21.5769043 11.64550781 C-20.7828418 11.18208984 -19.9887793 10.71867188 -19.1706543 10.24121094 C-13.24770925 6.83300781 -13.24770925 6.83300781 -10.9519043 6.83300781 C-10.9519043 6.17300781 -10.9519043 5.51300781 -10.9519043 4.83300781 C-9.54439209 3.96383895 -8.1254522 3.11315633 -6.7019043 2.27050781 C-5.91299805 1.79484375 -5.1240918 1.31917969 -4.3112793 0.82910156 C-1.9519043 -0.16699219 -1.9519043 -0.16699219 0 0 Z " fill="#000000" transform="translate(358.951904296875,242.1669921875)"/>
<path d="M0 0 C2.31 0.33 4.62 0.66 7 1 C8.35989821 5.07969464 7.03153873 7.9454199 5.75 11.875 C5.42322266 12.93654297 5.42322266 12.93654297 5.08984375 14.01953125 C3.81364752 18.0272352 2.3526106 21.47108411 0 25 C-6.71561193 24.23427828 -11.78280728 21.06877206 -17.50610352 17.7355957 C-19.3160855 16.68541965 -21.13847122 15.65960743 -22.96289062 14.63476562 C-24.10564453 13.97541016 -25.24839844 13.31605469 -26.42578125 12.63671875 C-27.47161377 12.03561279 -28.51744629 11.43450684 -29.5949707 10.81518555 C-32 9 -32 9 -32.91088867 6.88598633 C-33 5 -33 5 -32 3.1875 C-29.50926443 1.70862576 -27.88247479 1.95865702 -25.08154297 2.41870117 C-20.90809932 3.58419136 -17.27903426 5.88528774 -13.5625 8.0625 C-12.73556641 8.53494141 -11.90863281 9.00738281 -11.05664062 9.49414062 C-9.03178315 10.65287409 -7.01342134 11.82154414 -5 13 C-4.80664062 12.31292969 -4.61328125 11.62585938 -4.4140625 10.91796875 C-4.15367187 10.01691406 -3.89328125 9.11585937 -3.625 8.1875 C-3.36976563 7.29417969 -3.11453125 6.40085937 -2.8515625 5.48046875 C-2 3 -2 3 0 0 Z " fill="#000000" transform="translate(267,109)"/>
</svg>
