<svg width="55" height="55" viewBox="0 0 55 55" fill="none" xmlns="http://www.w3.org/2000/svg">
<path d="M51.5753 16.875C49.5592 12.4156 46.6738 9.24599 42.4564 6.58155C38.2391 3.91711 33.3079 2.49862 28.2677 2.5C14.84 2.5 3.79486 12.3675 2.5 25" stroke="black" stroke-width="5" stroke-linecap="round" stroke-linejoin="round"/>
<path d="M39.5513 17.5H50.946C51.1501 17.5 51.3521 17.4612 51.5406 17.3858C51.7292 17.3104 51.9005 17.1999 52.0447 17.0607C52.189 16.9214 52.3035 16.756 52.3816 16.574C52.4597 16.392 52.4999 16.197 52.4999 16V5M3.29541 38.125C7.29393 46.955 16.1117 52.5 26.7296 52.5C40.1599 52.5 51.2024 42.6325 52.4999 30" stroke="black" stroke-width="5" stroke-linecap="round" stroke-linejoin="round"/>
<path d="M15.6888 37.5H4.29407C3.88196 37.5 3.48674 37.658 3.19534 37.9393C2.90394 38.2206 2.74023 38.6022 2.74023 39V50" stroke="black" stroke-width="5" stroke-linecap="round" stroke-linejoin="round"/>
</svg>
