<svg width="352" height="113" viewBox="0 0 352 113" fill="none" xmlns="http://www.w3.org/2000/svg">
<g filter="url(#filter0_d_1_99)">
<mask id="path-1-outside-1_1_99" maskUnits="userSpaceOnUse" x="1.38885" y="34.6495" width="77.91" height="66.4253" fill="black">
<rect fill="white" x="1.38885" y="34.6495" width="77.91" height="66.4253"/>
<path d="M32.3786 94.8669L27.6701 51.0834L31.6558 49.2793L71.4387 77.1872L62.1577 81.388L37.201 62.2103L41.6597 90.666L32.3786 94.8669ZM36.8628 83.9943L33.1387 77.9935L54.5478 68.3032L58.2719 74.304L36.8628 83.9943Z"/>
</mask>
<path d="M32.3786 94.8669L27.6701 51.0834L31.6558 49.2793L71.4387 77.1872L62.1577 81.388L37.201 62.2103L41.6597 90.666L32.3786 94.8669ZM36.8628 83.9943L33.1387 77.9935L54.5478 68.3032L58.2719 74.304L36.8628 83.9943Z" fill="#E21E1E" fill-opacity="0.8"/>
<path d="M32.3786 94.8669L28.1877 94.9566L28.8195 100.831L34.4878 98.2656L32.3786 94.8669ZM27.6701 51.0834L25.5608 47.6847L23.2181 48.7451L23.4792 51.1731L27.6701 51.0834ZM31.6558 49.2793L34.0955 46.3679L31.8893 44.8202L29.5466 45.8806L31.6558 49.2793ZM71.4387 77.1872L73.548 80.5859L79.2163 78.0202L73.8784 74.2757L71.4387 77.1872ZM62.1577 81.388L59.5563 84.1807L61.7987 85.9039L64.2669 84.7867L62.1577 81.388ZM37.201 62.2103L39.8024 59.4176L31.5623 53.0856L33.0322 62.4665L37.201 62.2103ZM41.6597 90.666L43.7689 94.0647L46.2269 92.9522L45.8285 90.4098L41.6597 90.666ZM36.8628 83.9943L33.2187 85.6438L35.328 89.0425L38.9721 87.393L36.8628 83.9943ZM33.1387 77.9935L31.0295 74.5948L27.3854 76.2442L29.4946 79.6429L33.1387 77.9935ZM54.5478 68.3032L58.1919 66.6538L56.0827 63.2551L52.4386 64.9045L54.5478 68.3032ZM58.2719 74.304L60.3811 77.7027L64.0252 76.0533L61.916 72.6546L58.2719 74.304ZM32.3786 94.8669L36.5695 94.7772L31.8609 50.9937L27.6701 51.0834L23.4792 51.1731L28.1877 94.9566L32.3786 94.8669ZM27.6701 51.0834L29.7793 54.4821L33.765 52.678L31.6558 49.2793L29.5466 45.8806L25.5608 47.6847L27.6701 51.0834ZM31.6558 49.2793L29.2161 52.1908L68.9991 80.0986L71.4387 77.1872L73.8784 74.2757L34.0955 46.3679L31.6558 49.2793ZM71.4387 77.1872L69.3295 73.7885L60.0485 77.9893L62.1577 81.388L64.2669 84.7867L73.548 80.5859L71.4387 77.1872ZM62.1577 81.388L64.7591 78.5953L39.8024 59.4176L37.201 62.2103L34.5996 65.0031L59.5563 84.1807L62.1577 81.388ZM37.201 62.2103L33.0322 62.4665L37.4908 90.9222L41.6597 90.666L45.8285 90.4098L41.3699 61.9542L37.201 62.2103ZM41.6597 90.666L39.5504 87.2673L30.2694 91.4682L32.3786 94.8669L34.4878 98.2656L43.7689 94.0647L41.6597 90.666ZM36.8628 83.9943L40.5069 82.3449L36.7828 76.3441L33.1387 77.9935L29.4946 79.6429L33.2187 85.6438L36.8628 83.9943ZM33.1387 77.9935L35.248 81.3922L56.657 71.7019L54.5478 68.3032L52.4386 64.9045L31.0295 74.5948L33.1387 77.9935ZM54.5478 68.3032L50.9037 69.9526L54.6278 75.9534L58.2719 74.304L61.916 72.6546L58.1919 66.6538L54.5478 68.3032ZM58.2719 74.304L56.1627 70.9053L34.7536 80.5956L36.8628 83.9943L38.9721 87.393L60.3811 77.7027L58.2719 74.304Z" fill="black" mask="url(#path-1-outside-1_1_99)"/>
<mask id="path-3-outside-2_1_99" maskUnits="userSpaceOnUse" x="66.3037" y="31.6035" width="49.9157" height="48.0776" fill="black">
<rect fill="white" x="66.3037" y="31.6035" width="49.9157" height="48.0776"/>
<path d="M96.8838 70.8887C94.2281 71.6029 91.6668 71.7332 89.1996 71.2795C86.7727 70.815 84.6098 69.8068 82.7107 68.255C80.8374 66.6533 79.4179 64.5428 78.452 61.9235L71.9431 44.2729L79.7289 42.1789L85.7404 58.4808C86.5766 60.7482 87.7541 62.3222 89.273 63.2028C90.8177 64.0335 92.4752 64.2108 94.2456 63.7346C96.0161 63.2585 97.2354 62.3074 97.9038 60.8815C98.5979 59.4057 98.5269 57.5341 97.6908 55.2667L91.6793 38.9648L99.4651 36.8708L105.974 54.5214C106.94 57.1407 107.172 59.5704 106.672 61.8106C106.157 64.0118 105.04 65.9019 103.323 67.4811C101.645 69.0494 99.4992 70.1853 96.8838 70.8887Z"/>
</mask>
<path d="M96.8838 70.8887C94.2281 71.6029 91.6668 71.7332 89.1996 71.2795C86.7727 70.815 84.6098 69.8068 82.7107 68.255C80.8374 66.6533 79.4179 64.5428 78.452 61.9235L71.9431 44.2729L79.7289 42.1789L85.7404 58.4808C86.5766 60.7482 87.7541 62.3222 89.273 63.2028C90.8177 64.0335 92.4752 64.2108 94.2456 63.7346C96.0161 63.2585 97.2354 62.3074 97.9038 60.8815C98.5979 59.4057 98.5269 57.5341 97.6908 55.2667L91.6793 38.9648L99.4651 36.8708L105.974 54.5214C106.94 57.1407 107.172 59.5704 106.672 61.8106C106.157 64.0118 105.04 65.9019 103.323 67.4811C101.645 69.0494 99.4992 70.1853 96.8838 70.8887Z" fill="#E21E1E" fill-opacity="0.8"/>
<path d="M89.1996 71.2795L88.6782 75.0949L88.6941 75.0979L88.71 75.1009L89.1996 71.2795ZM82.7107 68.255L80.0914 71.0605L80.1296 71.0932L80.1686 71.125L82.7107 68.255ZM71.9431 44.2729L70.5592 40.5199L66.6964 41.5588L68.0804 45.3118L71.9431 44.2729ZM79.7289 42.1789L83.5917 41.14L82.2077 37.387L78.345 38.4259L79.7289 42.1789ZM89.273 63.2028L87.3276 66.4856L87.3909 66.5223L87.4554 66.557L89.273 63.2028ZM97.9038 60.8815L94.1356 59.0803L94.1336 59.0846L97.9038 60.8815ZM91.6793 38.9648L90.2953 35.2118L86.4326 36.2507L87.8165 40.0037L91.6793 38.9648ZM99.4651 36.8708L103.328 35.8319L101.944 32.0789L98.0812 33.1178L99.4651 36.8708ZM106.672 61.8106L110.681 62.9187L110.685 62.9015L110.689 62.8842L106.672 61.8106ZM103.323 67.4811L100.357 64.5889L100.346 64.5991L100.335 64.6094L103.323 67.4811ZM96.8838 70.8887L95.4998 67.1357C93.3623 67.7106 91.4432 67.7807 89.6893 67.4582L89.1996 71.2795L88.71 75.1009C91.8904 75.6857 95.094 75.4952 98.2677 74.6416L96.8838 70.8887ZM89.1996 71.2795L89.7211 67.4641C88.0234 67.1392 86.5608 66.4538 85.2528 65.385L82.7107 68.255L80.1686 71.125C82.6587 73.1598 85.522 74.4908 88.6782 75.0949L89.1996 71.2795ZM82.7107 68.255L85.33 65.4495C84.1158 64.4113 83.0768 62.9513 82.3147 60.8846L78.452 61.9235L74.5892 62.9624C75.7589 66.1342 77.5591 68.8952 80.0914 71.0605L82.7107 68.255ZM78.452 61.9235L82.3147 60.8846L75.8059 43.234L71.9431 44.2729L68.0804 45.3118L74.5892 62.9624L78.452 61.9235ZM71.9431 44.2729L73.3271 48.0258L81.1129 45.9318L79.7289 42.1789L78.345 38.4259L70.5592 40.5199L71.9431 44.2729ZM79.7289 42.1789L75.8662 43.2177L81.8777 59.5197L85.7404 58.4808L89.6032 57.4419L83.5917 41.14L79.7289 42.1789ZM85.7404 58.4808L81.8777 59.5197C82.9079 62.3133 84.5938 64.9006 87.3276 66.4856L89.273 63.2028L91.2183 59.92C90.9144 59.7438 90.2453 59.1831 89.6032 57.4419L85.7404 58.4808ZM89.273 63.2028L87.4554 66.557C90.0949 67.9764 92.9174 68.217 95.6296 67.4876L94.2456 63.7346L92.8617 59.9817C92.0331 60.2045 91.5404 60.0906 91.0905 59.8486L89.273 63.2028ZM94.2456 63.7346L95.6296 67.4876C98.341 66.7583 100.504 65.1749 101.674 62.6785L97.9038 60.8815L94.1336 59.0846C93.967 59.44 93.6911 59.7586 92.8617 59.9817L94.2456 63.7346ZM97.9038 60.8815L101.672 62.6828C102.921 60.0277 102.595 57.0525 101.554 54.2278L97.6908 55.2667L93.828 56.3056C94.4587 58.0157 94.2751 58.7838 94.1356 59.0803L97.9038 60.8815ZM97.6908 55.2667L101.554 54.2278L95.542 37.9259L91.6793 38.9648L87.8165 40.0037L93.828 56.3056L97.6908 55.2667ZM91.6793 38.9648L93.0632 42.7177L100.849 40.6237L99.4651 36.8708L98.0812 33.1178L90.2953 35.2118L91.6793 38.9648ZM99.4651 36.8708L95.6024 37.9097L102.111 55.5603L105.974 54.5214L109.837 53.4825L103.328 35.8319L99.4651 36.8708ZM105.974 54.5214L102.111 55.5603C102.865 57.6046 102.977 59.2944 102.655 60.737L106.672 61.8106L110.689 62.8842C111.368 59.8464 111.015 56.6767 109.837 53.4825L105.974 54.5214ZM106.672 61.8106L102.663 60.7025C102.313 62.1974 101.568 63.4759 100.357 64.5889L103.323 67.4811L106.288 70.3732C108.513 68.3279 110 65.8261 110.681 62.9187L106.672 61.8106ZM103.323 67.4811L100.335 64.6094C99.1591 65.7093 97.5886 66.5739 95.4998 67.1357L96.8838 70.8887L98.2677 74.6416C101.41 73.7966 104.132 72.3895 106.31 70.3527L103.323 67.4811Z" fill="black" mask="url(#path-3-outside-2_1_99)"/>
<mask id="path-5-outside-3_1_99" maskUnits="userSpaceOnUse" x="112.06" y="23.2583" width="59.0792" height="45.7494" fill="black">
<rect fill="white" x="112.06" y="23.2583" width="59.0792" height="45.7494"/>
<path d="M126.431 64.0392L136.553 46.6088L121.775 32.8382L131.084 31.7286L140.661 40.7741L146.971 29.8348L156.28 28.7251L146.482 45.4252L161.806 59.8226L151.938 60.9988L142.344 51.0749L136.299 62.863L126.431 64.0392Z"/>
</mask>
<path d="M126.431 64.0392L136.553 46.6088L121.775 32.8382L131.084 31.7286L140.661 40.7741L146.971 29.8348L156.28 28.7251L146.482 45.4252L161.806 59.8226L151.938 60.9988L142.344 51.0749L136.299 62.863L126.431 64.0392Z" fill="#E21E1E" fill-opacity="0.8"/>
<path d="M126.431 64.0392L122.92 61.9541L118.847 68.9677L127.076 67.9868L126.431 64.0392ZM136.553 46.6088L140.064 48.694L141.633 45.9922L139.248 43.7703L136.553 46.6088ZM121.775 32.8382L121.129 28.8906L112.855 29.8769L119.079 35.6767L121.775 32.8382ZM131.084 31.7286L133.8 28.9097L132.362 27.5516L130.439 27.7809L131.084 31.7286ZM140.661 40.7741L137.944 43.5929L141.701 47.1417L144.177 42.85L140.661 40.7741ZM146.971 29.8348L146.326 25.8872L144.402 26.1165L143.455 27.7589L146.971 29.8348ZM156.28 28.7251L159.783 30.8248L163.91 23.7912L155.635 24.7775L156.28 28.7251ZM146.482 45.4252L142.98 43.3255L141.399 46.0201L143.774 48.2517L146.482 45.4252ZM161.806 59.8226L162.451 63.7702L170.68 62.7893L164.514 56.9961L161.806 59.8226ZM151.938 60.9988L149.084 63.6817L150.542 65.1898L152.583 64.9464L151.938 60.9988ZM142.344 51.0749L145.198 48.392L141.236 44.2934L138.739 49.1619L142.344 51.0749ZM136.299 62.863L136.944 66.8106L138.985 66.5673L139.904 64.776L136.299 62.863ZM126.431 64.0392L129.942 66.1244L140.064 48.694L136.553 46.6088L133.042 44.5237L122.92 61.9541L126.431 64.0392ZM136.553 46.6088L139.248 43.7703L124.47 29.9997L121.775 32.8382L119.079 35.6767L133.857 49.4474L136.553 46.6088ZM121.775 32.8382L122.42 36.7858L131.729 35.6762L131.084 31.7286L130.439 27.7809L121.129 28.8906L121.775 32.8382ZM131.084 31.7286L128.367 34.5474L137.944 43.5929L140.661 40.7741L143.377 37.9552L133.8 28.9097L131.084 31.7286ZM140.661 40.7741L144.177 42.85L150.488 31.9107L146.971 29.8348L143.455 27.7589L137.144 38.6982L140.661 40.7741ZM146.971 29.8348L147.616 33.7824L156.926 32.6728L156.28 28.7251L155.635 24.7775L146.326 25.8872L146.971 29.8348ZM156.28 28.7251L152.778 26.6254L142.98 43.3255L146.482 45.4252L149.985 47.5249L159.783 30.8248L156.28 28.7251ZM146.482 45.4252L143.774 48.2517L159.097 62.6491L161.806 59.8226L164.514 56.9961L149.191 42.5987L146.482 45.4252ZM161.806 59.8226L161.16 55.875L151.293 57.0512L151.938 60.9988L152.583 64.9464L162.451 63.7702L161.806 59.8226ZM151.938 60.9988L154.792 58.3159L145.198 48.392L142.344 51.0749L139.49 53.7579L149.084 63.6817L151.938 60.9988ZM142.344 51.0749L138.739 49.1619L132.694 60.95L136.299 62.863L139.904 64.776L145.949 52.9879L142.344 51.0749ZM136.299 62.863L135.654 58.9154L125.786 60.0916L126.431 64.0392L127.076 67.9868L136.944 66.8106L136.299 62.863Z" fill="black" mask="url(#path-5-outside-3_1_99)"/>
<mask id="path-7-outside-4_1_99" maskUnits="userSpaceOnUse" x="170.02" y="12.9906" width="38.0762" height="52.3558" fill="black">
<rect fill="white" x="170.02" y="12.9906" width="38.0762" height="52.3558"/>
<path d="M187.965 60.929C185.507 60.952 183.152 60.5574 180.901 59.7451C178.65 58.8912 176.69 57.8887 175.022 56.7376L175.01 48.4876C176.845 49.8038 178.909 50.9095 181.202 51.8047C183.536 52.6995 185.954 53.1352 188.454 53.1118C190.204 53.0954 191.64 52.6861 192.764 51.8839C193.93 51.0813 194.511 49.9926 194.509 48.6176C194.508 47.9092 194.257 47.2866 193.756 46.7496C193.297 46.1705 192.692 45.6762 191.942 45.2666C191.233 44.8149 190.461 44.4471 189.628 44.1632L183.187 41.7235C181.019 40.9104 179.33 39.9262 178.12 38.7709C176.91 37.6155 176.054 36.3319 175.552 34.9199C175.091 33.4659 174.86 31.9263 174.857 30.3013C174.853 27.718 175.538 25.4824 176.91 23.5945C178.323 21.6646 180.154 20.1683 182.403 19.1055C184.693 18.0424 187.129 17.4988 189.713 17.4746C192.171 17.4515 194.4 17.764 196.401 18.4119C198.402 19.0599 200.07 19.8151 201.405 20.6776L201.417 28.9276C199.916 27.9833 198.248 27.1448 196.413 26.4119C194.621 25.637 192.641 25.2597 190.474 25.28C189.391 25.2902 188.35 25.4874 187.35 25.8718C186.351 26.2562 185.518 26.8056 184.853 27.5202C184.229 28.2344 183.918 29.1331 183.919 30.2165C183.921 31.5915 184.527 32.6483 185.737 33.387C186.946 34.084 188.426 34.7993 190.177 35.5329L195.18 37.6111C198.14 38.8334 200.309 40.2923 201.687 41.9878C203.106 43.6412 203.817 45.6762 203.821 48.0929C203.824 50.5929 203.099 52.808 201.643 54.7383C200.229 56.6266 198.315 58.1237 195.9 59.2297C193.527 60.3352 190.882 60.9017 187.965 60.929Z"/>
</mask>
<path d="M187.965 60.929C185.507 60.952 183.152 60.5574 180.901 59.7451C178.65 58.8912 176.69 57.8887 175.022 56.7376L175.01 48.4876C176.845 49.8038 178.909 50.9095 181.202 51.8047C183.536 52.6995 185.954 53.1352 188.454 53.1118C190.204 53.0954 191.64 52.6861 192.764 51.8839C193.93 51.0813 194.511 49.9926 194.509 48.6176C194.508 47.9092 194.257 47.2866 193.756 46.7496C193.297 46.1705 192.692 45.6762 191.942 45.2666C191.233 44.8149 190.461 44.4471 189.628 44.1632L183.187 41.7235C181.019 40.9104 179.33 39.9262 178.12 38.7709C176.91 37.6155 176.054 36.3319 175.552 34.9199C175.091 33.4659 174.86 31.9263 174.857 30.3013C174.853 27.718 175.538 25.4824 176.91 23.5945C178.323 21.6646 180.154 20.1683 182.403 19.1055C184.693 18.0424 187.129 17.4988 189.713 17.4746C192.171 17.4515 194.4 17.764 196.401 18.4119C198.402 19.0599 200.07 19.8151 201.405 20.6776L201.417 28.9276C199.916 27.9833 198.248 27.1448 196.413 26.4119C194.621 25.637 192.641 25.2597 190.474 25.28C189.391 25.2902 188.35 25.4874 187.35 25.8718C186.351 26.2562 185.518 26.8056 184.853 27.5202C184.229 28.2344 183.918 29.1331 183.919 30.2165C183.921 31.5915 184.527 32.6483 185.737 33.387C186.946 34.084 188.426 34.7993 190.177 35.5329L195.18 37.6111C198.14 38.8334 200.309 40.2923 201.687 41.9878C203.106 43.6412 203.817 45.6762 203.821 48.0929C203.824 50.5929 203.099 52.808 201.643 54.7383C200.229 56.6266 198.315 58.1237 195.9 59.2297C193.527 60.3352 190.882 60.9017 187.965 60.929Z" fill="#FFB132"/>
<path d="M180.901 59.7451L179.457 63.4867L179.487 63.4982L179.518 63.5091L180.901 59.7451ZM175.022 56.7376L171.022 56.7751L171.025 58.8577L172.733 60.036L175.022 56.7376ZM175.01 48.4876L177.357 45.2307L170.998 40.67L171.01 48.5251L175.01 48.4876ZM181.202 51.8047L179.722 55.5325L179.733 55.537L179.745 55.5414L181.202 51.8047ZM192.764 51.8839L190.513 48.5951L190.485 48.6144L190.457 48.6343L192.764 51.8839ZM193.756 46.7496L190.615 49.2503L190.713 49.3744L190.821 49.4902L193.756 46.7496ZM191.942 45.2666L189.774 48.6452L189.887 48.7172L190.004 48.7814L191.942 45.2666ZM189.628 44.1632L188.185 47.9055L188.248 47.9293L188.312 47.951L189.628 44.1632ZM183.187 41.7235L184.629 37.9812L184.617 37.9767L183.187 41.7235ZM175.552 34.9199L171.738 36.1549L171.759 36.2211L171.782 36.2865L175.552 34.9199ZM176.91 23.5945L173.69 21.2471L173.685 21.2532L173.681 21.2593L176.91 23.5945ZM182.403 19.1055L180.742 15.4796L180.73 15.4854L180.717 15.4914L182.403 19.1055ZM201.405 20.6776L205.404 20.6402L205.401 18.4808L203.594 17.3129L201.405 20.6776ZM201.417 28.9276L199.269 32.3186L205.428 36.1924L205.417 28.8902L201.417 28.9276ZM196.413 26.4119L194.802 30.0858L194.853 30.1078L194.904 30.1283L196.413 26.4119ZM184.853 27.5202L181.936 24.806L181.892 24.8532L181.85 24.9018L184.853 27.5202ZM185.737 33.387L183.632 36.8053L183.675 36.8316L183.719 36.8567L185.737 33.387ZM190.177 35.5329L188.607 39.2243L188.618 39.2289L190.177 35.5329ZM195.18 37.6111L193.621 41.3071L193.629 41.3103L195.18 37.6111ZM201.687 41.9878L198.574 44.525L198.608 44.5664L198.643 44.6069L201.687 41.9878ZM201.643 54.7383L198.456 52.346L198.448 52.3569L201.643 54.7383ZM195.9 59.2297L194.258 55.595L194.247 55.6004L194.235 55.6059L195.9 59.2297ZM187.965 60.929L187.959 56.929C185.963 56.9477 184.08 56.6289 182.285 55.9811L180.901 59.7451L179.518 63.5091C182.225 64.4859 185.051 64.9563 187.971 64.929L187.965 60.929ZM180.901 59.7451L182.345 56.0035C180.339 55.2425 178.673 54.3792 177.311 53.4392L175.022 56.7376L172.733 60.036C174.707 61.3982 176.961 62.5399 179.457 63.4867L180.901 59.7451ZM175.022 56.7376L179.022 56.7002L179.009 48.4502L175.01 48.4876L171.01 48.5251L171.022 56.7751L175.022 56.7376ZM175.01 48.4876L172.662 51.7446C174.788 53.2694 177.148 54.5276 179.722 55.5325L181.202 51.8047L182.682 48.0769C180.67 47.2913 178.902 46.3382 177.357 45.2307L175.01 48.4876ZM181.202 51.8047L179.745 55.5414C182.544 56.6144 185.458 57.1399 188.46 57.1118L188.454 53.1118L188.448 49.1118C186.45 49.1305 184.529 48.7847 182.659 48.068L181.202 51.8047ZM188.454 53.1118L188.46 57.1118C190.809 57.0898 193.111 56.5326 195.071 55.1336L192.764 51.8839L190.457 48.6343C190.17 48.8397 189.598 49.101 188.448 49.1118L188.454 53.1118ZM192.764 51.8839L195.015 55.1728C197.243 53.6385 198.513 51.3207 198.509 48.5801L194.509 48.6176L190.509 48.655C190.509 48.7149 190.503 48.7288 190.508 48.7081C190.51 48.6983 190.515 48.6828 190.522 48.6631C190.53 48.6435 190.539 48.6227 190.55 48.602C190.561 48.5813 190.572 48.5638 190.582 48.5499C190.592 48.5361 190.599 48.5284 190.601 48.5264C190.605 48.5222 190.582 48.5477 190.513 48.5951L192.764 51.8839ZM194.509 48.6176L198.509 48.5801C198.506 46.822 197.845 45.2456 196.691 44.0089L193.756 46.7496L190.821 49.4902C190.772 49.4371 190.682 49.3207 190.609 49.1396C190.535 48.9559 190.51 48.7827 190.509 48.655L194.509 48.6176ZM193.756 46.7496L196.898 44.2488C196.062 43.1947 195.023 42.376 193.879 41.7517L191.942 45.2666L190.004 48.7814C190.362 48.9763 190.533 49.1464 190.615 49.2503L193.756 46.7496ZM191.942 45.2666L194.11 41.8879C193.122 41.2587 192.063 40.7565 190.943 40.3754L189.628 44.1632L188.312 47.951C188.86 48.1376 189.344 48.371 189.774 48.6452L191.942 45.2666ZM189.628 44.1632L191.07 40.421L184.629 37.9812L183.187 41.7235L181.744 45.4657L188.185 47.9055L189.628 44.1632ZM183.187 41.7235L184.617 37.9767C182.771 37.2843 181.6 36.5418 180.894 35.8673L178.12 38.7709L175.346 41.6745C177.06 43.3107 179.267 44.5366 181.756 45.4703L183.187 41.7235ZM178.12 38.7709L180.894 35.8673C180.078 35.0881 179.593 34.3158 179.322 33.5533L175.552 34.9199L171.782 36.2865C172.515 38.348 173.742 40.143 175.346 41.6745L178.12 38.7709ZM175.552 34.9199L179.366 33.6849C179.035 32.6414 178.859 31.5078 178.857 30.2639L174.857 30.3013L170.858 30.3388C170.861 32.3449 171.147 34.2903 171.738 36.1549L175.552 34.9199ZM174.857 30.3013L178.857 30.2639C178.854 28.4322 179.324 27.0505 180.139 25.9298L176.91 23.5945L173.681 21.2593C171.751 23.9143 170.853 27.0038 170.858 30.3388L174.857 30.3013ZM176.91 23.5945L180.13 25.942C181.129 24.5778 182.423 23.5068 184.089 22.7197L182.403 19.1055L180.717 15.4914C177.886 16.8298 175.518 18.7514 173.69 21.2471L176.91 23.5945ZM182.403 19.1055L184.063 22.7315C185.82 21.9159 187.691 21.4935 189.719 21.4746L189.713 17.4746L189.707 13.4746C186.568 13.504 183.566 14.1689 180.742 15.4796L182.403 19.1055ZM189.713 17.4746L189.719 21.4746C191.817 21.4549 193.611 21.7226 195.142 22.2185L196.401 18.4119L197.661 14.6054C195.19 13.8054 192.525 13.4482 189.707 13.4746L189.713 17.4746ZM196.401 18.4119L195.142 22.2185C196.913 22.7921 198.246 23.4157 199.215 24.0424L201.405 20.6776L203.594 17.3129C201.895 16.2145 199.891 15.3277 197.661 14.6054L196.401 18.4119ZM201.405 20.6776L197.405 20.7151L197.417 28.9651L201.417 28.9276L205.417 28.8902L205.404 20.6402L201.405 20.6776ZM201.417 28.9276L203.565 25.5367C201.84 24.4515 199.955 23.5075 197.922 22.6956L196.413 26.4119L194.904 30.1283C196.541 30.782 197.991 31.5152 199.269 32.3186L201.417 28.9276ZM196.413 26.4119L198.024 22.7381C195.67 21.7206 193.132 21.2551 190.468 21.28L190.474 25.28L190.48 29.28C192.15 29.2644 193.571 29.5535 194.802 30.0858L196.413 26.4119ZM190.474 25.28L190.468 21.28C188.912 21.2946 187.395 21.5801 185.94 22.1396L187.35 25.8718L188.76 29.604C189.304 29.3947 189.87 29.2857 190.48 29.28L190.474 25.28ZM187.35 25.8718L185.94 22.1396C184.425 22.7223 183.06 23.5993 181.936 24.806L184.853 27.5202L187.77 30.2344C187.977 30.012 188.277 29.79 188.76 29.604L187.35 25.8718ZM184.853 27.5202L181.85 24.9018C180.488 26.4604 179.917 28.3484 179.92 30.2539L183.919 30.2165L187.919 30.179C187.919 30.1004 187.925 30.0506 187.929 30.0254C187.933 30.0009 187.935 29.9982 187.93 30.012C187.925 30.0264 187.916 30.0494 187.9 30.0764C187.884 30.1034 187.868 30.1246 187.856 30.1386L184.853 27.5202ZM183.919 30.2165L179.92 30.2539C179.924 33.0693 181.295 35.378 183.632 36.8053L185.737 33.387L187.841 29.9687C187.771 29.9262 187.754 29.9059 187.767 29.9184C187.781 29.9328 187.815 29.9702 187.849 30.0306C187.884 30.0914 187.905 30.1487 187.915 30.1894C187.925 30.2277 187.919 30.2289 187.919 30.179L183.919 30.2165ZM185.737 33.387L183.719 36.8567C185.113 37.6604 186.753 38.4474 188.607 39.2243L190.177 35.5329L191.747 31.8416C190.099 31.1512 188.779 30.5076 187.754 29.9173L185.737 33.387ZM190.177 35.5329L188.618 39.2289L193.621 41.3071L195.18 37.6111L196.739 33.9152L191.736 31.837L190.177 35.5329ZM195.18 37.6111L193.629 41.3103C196.243 42.3895 197.76 43.5232 198.574 44.525L201.687 41.9878L204.799 39.4505C202.858 37.0614 200.038 35.2773 196.731 33.912L195.18 37.6111ZM201.687 41.9878L198.643 44.6069C199.38 45.4662 199.818 46.5562 199.821 48.1303L203.821 48.0929L207.82 48.0554C207.816 44.7962 206.831 41.8161 204.73 39.3686L201.687 41.9878ZM203.821 48.0929L199.821 48.1303C199.823 49.7911 199.362 51.1451 198.456 52.3461L201.643 54.7383L204.83 57.1306C206.835 54.4709 207.825 51.3946 207.82 48.0554L203.821 48.0929ZM201.643 54.7383L198.448 52.3569C197.489 53.6384 196.139 54.7339 194.258 55.595L195.9 59.2297L197.542 62.8644C200.491 61.5135 202.97 59.6148 204.838 57.1198L201.643 54.7383ZM195.9 59.2297L194.235 55.6059C192.44 56.4419 190.371 56.9064 187.959 56.929L187.965 60.929L187.971 64.929C191.393 64.8969 194.613 64.2286 197.565 62.8534L195.9 59.2297Z" fill="black" mask="url(#path-7-outside-4_1_99)"/>
<mask id="path-9-outside-5_1_99" maskUnits="userSpaceOnUse" x="201.181" y="23.4182" width="61.3234" height="61.7086" fill="black">
<rect fill="white" x="201.181" y="23.4182" width="61.3234" height="61.7086"/>
<path d="M212.662 74.9212L229.952 54.7236L245.376 33.1477L254.321 34.6027L221.545 76.3662L212.662 74.9212ZM226.38 61.8547L218.726 28.8129L227.856 30.298L233.533 57.0128L226.38 61.8547Z"/>
</mask>
<path d="M212.662 74.9212L229.952 54.7236L245.376 33.1477L254.321 34.6027L221.545 76.3662L212.662 74.9212ZM226.38 61.8547L218.726 28.8129L227.856 30.298L233.533 57.0128L226.38 61.8547Z" fill="#FFB132"/>
<path d="M212.662 74.9212L209.621 72.4784L205.117 77.7397L211.791 78.8253L212.662 74.9212ZM229.952 54.7236L232.993 57.1664L233.115 57.0239L233.224 56.8717L229.952 54.7236ZM245.376 33.1477L246.246 29.2436L243.66 28.8229L242.104 30.9996L245.376 33.1477ZM254.321 34.6027L257.478 36.904L261.537 31.7308L255.191 30.6986L254.321 34.6027ZM221.545 76.3662L220.675 80.2702L223.131 80.6698L224.702 78.6675L221.545 76.3662ZM226.38 61.8547L222.434 62.9254L223.693 68.3609L228.556 65.0694L226.38 61.8547ZM218.726 28.8129L219.597 24.9089L213.394 23.9L214.78 29.8836L218.726 28.8129ZM227.856 30.298L231.816 29.294L231.289 26.8106L228.727 26.3939L227.856 30.298ZM233.533 57.0128L235.709 60.2275L238.052 58.6411L237.493 56.0088L233.533 57.0128ZM212.662 74.9212L215.703 77.3641L232.993 57.1664L229.952 54.7236L226.911 52.2807L209.621 72.4784L212.662 74.9212ZM229.952 54.7236L233.224 56.8717L248.647 35.2959L245.376 33.1477L242.104 30.9996L226.68 52.5754L229.952 54.7236ZM245.376 33.1477L244.505 37.0518L253.45 38.5068L254.321 34.6027L255.191 30.6986L246.246 29.2436L245.376 33.1477ZM254.321 34.6027L251.164 32.3013L218.388 74.0648L221.545 76.3662L224.702 78.6675L257.478 36.904L254.321 34.6027ZM221.545 76.3662L222.416 72.4621L213.533 71.0171L212.662 74.9212L211.791 78.8253L220.675 80.2702L221.545 76.3662ZM226.38 61.8547L230.325 60.784L222.671 27.7422L218.726 28.8129L214.78 29.8836L222.434 62.9254L226.38 61.8547ZM218.726 28.8129L217.855 32.717L226.985 34.2021L227.856 30.298L228.727 26.3939L219.597 24.9089L218.726 28.8129ZM227.856 30.298L223.896 31.302L229.572 58.0168L233.533 57.0128L237.493 56.0088L231.816 29.294L227.856 30.298ZM233.533 57.0128L231.357 53.7981L224.204 58.64L226.38 61.8547L228.556 65.0694L235.709 60.2275L233.533 57.0128Z" fill="black" mask="url(#path-9-outside-5_1_99)"/>
<mask id="path-11-outside-6_1_99" maskUnits="userSpaceOnUse" x="249.792" y="31.1454" width="54.2435" height="50.3052" fill="black">
<rect fill="white" x="249.792" y="31.1454" width="54.2435" height="50.3052"/>
<path d="M275.597 73.4153L283.972 57.1374C284.951 55.2511 285.195 53.655 284.705 52.349C284.255 51.0583 283.195 50.085 281.528 49.4291C280.21 48.9104 278.777 48.8368 277.231 49.2081C275.684 49.5794 274.197 50.152 272.768 50.926L276.02 44.657C277.044 44.1244 278.164 43.6745 279.382 43.3074C280.657 42.9185 281.972 42.7233 283.327 42.7219C284.701 42.6834 286.047 42.9235 287.365 43.4422C289.382 44.2354 290.964 45.37 292.112 46.8461C293.261 48.3222 293.83 50.1048 293.82 52.1939C293.868 54.2614 293.23 56.5711 291.906 59.123L282.983 76.3212L275.597 73.4153ZM256.171 65.773L270.706 37.7567L278.093 40.6626L263.557 68.6789L256.171 65.773Z"/>
</mask>
<path d="M275.597 73.4153L283.972 57.1374C284.951 55.2511 285.195 53.655 284.705 52.349C284.255 51.0583 283.195 50.085 281.528 49.4291C280.21 48.9104 278.777 48.8368 277.231 49.2081C275.684 49.5794 274.197 50.152 272.768 50.926L276.02 44.657C277.044 44.1244 278.164 43.6745 279.382 43.3074C280.657 42.9185 281.972 42.7233 283.327 42.7219C284.701 42.6834 286.047 42.9235 287.365 43.4422C289.382 44.2354 290.964 45.37 292.112 46.8461C293.261 48.3222 293.83 50.1048 293.82 52.1939C293.868 54.2614 293.23 56.5711 291.906 59.123L282.983 76.3212L275.597 73.4153ZM256.171 65.773L270.706 37.7567L278.093 40.6626L263.557 68.6789L256.171 65.773Z" fill="#FFB132"/>
<path d="M275.597 73.4153L271.868 71.963L270.045 75.5065L273.755 76.9659L275.597 73.4153ZM283.972 57.1374L280.25 55.673L280.243 55.6851L283.972 57.1374ZM284.705 52.349L280.744 53.7516L280.757 53.788L280.771 53.8242L284.705 52.349ZM272.768 50.926L269.046 49.4616L263.419 60.3074L274.68 54.2066L272.768 50.926ZM276.02 44.657L274.176 41.3404L272.92 41.9941L272.298 43.1926L276.02 44.657ZM279.382 43.3074L280.421 46.9517L280.434 46.9475L279.382 43.3074ZM283.327 42.7219L283.048 46.5626L283.109 46.5625L283.169 46.5608L283.327 42.7219ZM293.82 52.1939L289.667 52.4393L289.667 52.4887L289.668 52.538L293.82 52.1939ZM282.983 76.3212L281.141 79.8718L284.863 81.3362L286.705 77.7856L282.983 76.3212ZM256.171 65.773L252.449 64.3087L250.606 67.8592L254.329 69.3236L256.171 65.773ZM270.706 37.7567L272.548 34.2061L268.826 32.7417L266.984 36.2923L270.706 37.7567ZM278.093 40.6626L281.815 42.127L283.657 38.5764L279.935 37.112L278.093 40.6626ZM263.557 68.6789L261.715 72.2295L265.438 73.6939L267.28 70.1433L263.557 68.6789ZM275.597 73.4153L279.325 74.8676L287.7 58.5897L283.972 57.1374L280.243 55.6851L271.868 71.963L275.597 73.4153ZM283.972 57.1374L287.694 58.6018C288.944 56.192 289.613 53.4687 288.64 50.8739L284.705 52.349L280.771 53.8242C280.777 53.8414 280.957 54.3103 280.25 55.673L283.972 57.1374ZM284.705 52.349L288.666 50.9465C287.797 48.4579 285.791 46.8308 283.37 45.8785L281.528 49.4291L279.686 52.9797C280.6 53.3392 280.712 53.6588 280.744 53.7516L284.705 52.349ZM281.528 49.4291L283.37 45.8785C281.18 45.017 278.819 44.9253 276.449 45.4943L277.231 49.2081L278.013 52.9219C278.736 52.7482 279.239 52.8038 279.686 52.9797L281.528 49.4291ZM277.231 49.2081L276.449 45.4943C274.5 45.9622 272.632 46.683 270.856 47.6454L272.768 50.926L274.68 54.2066C275.761 53.6211 276.869 53.1966 278.013 52.9219L277.231 49.2081ZM272.768 50.926L276.49 52.3904L279.743 46.1214L276.02 44.657L272.298 43.1926L269.046 49.4616L272.768 50.926ZM276.02 44.657L277.865 47.9736C278.606 47.5877 279.454 47.2433 280.421 46.9517L279.382 43.3074L278.343 39.663C276.875 40.1057 275.481 40.6611 274.176 41.3404L276.02 44.657ZM279.382 43.3074L280.434 46.9475C281.263 46.6949 282.128 46.5636 283.048 46.5626L283.327 42.7219L283.606 38.8812C281.817 38.8831 280.052 39.1421 278.329 39.6672L279.382 43.3074ZM283.327 42.7219L283.169 46.5608C283.917 46.5399 284.693 46.6659 285.523 46.9928L287.365 43.4422L289.208 39.8916C287.402 39.1811 285.485 38.827 283.485 38.8829L283.327 42.7219ZM287.365 43.4422L285.523 46.9928C286.971 47.5623 287.98 48.32 288.685 49.2263L292.112 46.8461L295.54 44.4659C293.948 42.4201 291.792 40.9085 289.208 39.8916L287.365 43.4422ZM292.112 46.8461L288.685 49.2263C289.304 50.022 289.674 51.0367 289.667 52.4393L293.82 52.1939L297.973 51.9486C297.986 49.1729 297.218 46.6224 295.54 44.4659L292.112 46.8461ZM293.82 52.1939L289.668 52.538C289.697 53.82 289.305 55.4975 288.184 57.6587L291.906 59.123L295.628 60.5874C297.155 57.6446 298.038 54.7027 297.972 51.8499L293.82 52.1939ZM291.906 59.123L288.184 57.6587L279.261 74.8568L282.983 76.3212L286.705 77.7856L295.628 60.5874L291.906 59.123ZM282.983 76.3212L284.825 72.7706L277.439 69.8647L275.597 73.4153L273.755 76.9659L281.141 79.8718L282.983 76.3212ZM256.171 65.773L259.893 67.2374L274.429 39.2211L270.706 37.7567L266.984 36.2923L252.449 64.3087L256.171 65.773ZM270.706 37.7567L268.864 41.3073L276.251 44.2132L278.093 40.6626L279.935 37.112L272.548 34.2061L270.706 37.7567ZM278.093 40.6626L274.37 39.1982L259.835 67.2146L263.557 68.6789L267.28 70.1433L281.815 42.127L278.093 40.6626ZM263.557 68.6789L265.399 65.1283L258.013 62.2225L256.171 65.773L254.329 69.3236L261.715 72.2295L263.557 68.6789Z" fill="black" mask="url(#path-11-outside-6_1_99)"/>
<mask id="path-13-outside-7_1_99" maskUnits="userSpaceOnUse" x="286.202" y="51.2575" width="54.7154" height="50.2413" fill="black">
<rect fill="white" x="286.202" y="51.2575" width="54.7154" height="50.2413"/>
<path d="M307.578 92.1281C305.44 91.0945 303.694 89.7686 302.339 88.1507C301.022 86.5509 300.114 84.782 299.615 82.8442C299.116 80.9063 299.044 78.9225 299.399 76.8927C299.791 74.8811 300.597 72.955 301.817 71.1143C303.037 69.2736 304.556 67.692 306.374 66.3695C308.229 65.0652 310.258 64.0969 312.46 63.4647C314.685 62.7979 316.952 62.5176 319.259 62.624C321.603 62.7486 323.845 63.3277 325.983 64.3614C328.121 65.3951 329.64 66.5419 330.538 67.8017C331.474 69.0797 332.141 70.2044 332.537 71.1756L328.497 77.2707C327.959 76.1394 327.221 75.0487 326.282 73.9988C325.381 72.9669 324.049 72.0249 322.286 71.1725C320.86 70.4834 319.31 70.1695 317.634 70.231C315.997 70.3105 314.453 70.7337 313.004 71.5005C311.554 72.2673 310.358 73.3627 309.414 74.7866C308.47 76.2105 307.967 77.6414 307.906 79.0792C307.845 80.517 308.195 81.856 308.958 83.0962C309.782 84.3198 310.944 85.2943 312.445 86.0197C314.208 86.872 315.839 87.3626 317.339 87.4914C318.876 87.6384 320.339 87.635 321.729 87.4814L317.724 93.5245C316.521 93.7688 315.049 93.8597 313.308 93.7972C311.626 93.7182 309.717 93.1618 307.578 92.1281Z"/>
</mask>
<path d="M307.578 92.1281C305.44 91.0945 303.694 89.7686 302.339 88.1507C301.022 86.5509 300.114 84.782 299.615 82.8442C299.116 80.9063 299.044 78.9225 299.399 76.8927C299.791 74.8811 300.597 72.955 301.817 71.1143C303.037 69.2736 304.556 67.692 306.374 66.3695C308.229 65.0652 310.258 64.0969 312.46 63.4647C314.685 62.7979 316.952 62.5176 319.259 62.624C321.603 62.7486 323.845 63.3277 325.983 64.3614C328.121 65.3951 329.64 66.5419 330.538 67.8017C331.474 69.0797 332.141 70.2044 332.537 71.1756L328.497 77.2707C327.959 76.1394 327.221 75.0487 326.282 73.9988C325.381 72.9669 324.049 72.0249 322.286 71.1725C320.86 70.4834 319.31 70.1695 317.634 70.231C315.997 70.3105 314.453 70.7337 313.004 71.5005C311.554 72.2673 310.358 73.3627 309.414 74.7866C308.47 76.2105 307.967 77.6414 307.906 79.0792C307.845 80.517 308.195 81.856 308.958 83.0962C309.782 84.3198 310.944 85.2943 312.445 86.0197C314.208 86.872 315.839 87.3626 317.339 87.4914C318.876 87.6384 320.339 87.635 321.729 87.4814L317.724 93.5245C316.521 93.7688 315.049 93.8597 313.308 93.7972C311.626 93.7182 309.717 93.1618 307.578 92.1281Z" fill="#FFB132"/>
<path d="M302.339 88.1507L298.871 90.5074L298.88 90.5185L298.889 90.5294L302.339 88.1507ZM299.399 76.8927L295.237 76.5011L295.231 76.5345L295.225 76.5681L299.399 76.8927ZM306.374 66.3695L303.9 63.4801L303.869 63.5017L303.839 63.5236L306.374 66.3695ZM312.46 63.4647L313.5 67.0376L313.528 67.0298L313.555 67.0216L312.46 63.4647ZM319.259 62.624L319.8 58.8694L319.783 58.8685L319.767 58.8678L319.259 62.624ZM330.538 67.8017L326.926 69.9705L326.938 69.9879L326.951 70.0053L330.538 67.8017ZM332.537 71.1756L336.138 72.9166L337.193 71.326L336.521 69.6796L332.537 71.1756ZM328.497 77.2707L324.588 78.9355L327.746 85.5776L332.098 79.0117L328.497 77.2707ZM326.282 73.9988L322.879 76.4324L322.893 76.4476L322.906 76.4627L326.282 73.9988ZM317.634 70.231L317.753 66.4729L317.724 66.4739L317.696 66.4753L317.634 70.231ZM308.958 83.0962L305.22 85.0742L305.255 85.1325L305.294 85.1895L308.958 83.0962ZM317.339 87.4914L318.075 83.7512L318.053 83.7491L318.031 83.7472L317.339 87.4914ZM321.729 87.4814L325.33 89.2224L329.548 82.859L321.496 83.7492L321.729 87.4814ZM317.724 93.5245L318.389 97.1889L320.308 96.7989L321.325 95.2654L317.724 93.5245ZM313.308 93.7972L312.795 97.5533L312.821 97.5546L312.847 97.5555L313.308 93.7972ZM307.578 92.1281L309.788 88.7941C308.104 87.9796 306.791 86.9686 305.789 85.772L302.339 88.1507L298.889 90.5294C300.597 92.5687 302.777 94.2093 305.368 95.4622L307.578 92.1281ZM302.339 88.1507L305.807 85.7939C304.797 84.5674 304.114 83.2318 303.737 81.7669L299.615 82.8442L295.493 83.9214C296.113 86.3323 297.246 88.5344 298.871 90.5074L302.339 88.1507ZM299.615 82.8442L303.737 81.7669C303.356 80.2865 303.3 78.7785 303.573 77.2174L299.399 76.8927L295.225 76.5681C294.788 79.0665 294.876 81.5261 295.493 83.9214L299.615 82.8442ZM299.399 76.8927L303.561 77.2844C303.859 75.7568 304.469 74.2872 305.419 72.8552L301.817 71.1143L298.216 69.3733C296.725 71.6227 295.724 74.0055 295.237 76.5011L299.399 76.8927ZM301.817 71.1143L305.419 72.8552C306.368 71.4232 307.529 70.2196 308.909 69.2154L306.374 66.3695L303.839 63.5236C301.584 65.1644 299.707 67.1239 298.216 69.3733L301.817 71.1143ZM306.374 66.3695L308.848 69.2589C310.275 68.2557 311.818 67.5205 313.5 67.0376L312.46 63.4647L311.42 59.8919C308.698 60.6733 306.183 61.8746 303.9 63.4801L306.374 66.3695ZM312.46 63.4647L313.555 67.0216C315.253 66.5126 316.975 66.2984 318.75 66.3803L319.259 62.624L319.767 58.8678C316.928 58.7368 314.118 59.0831 311.366 59.9079L312.46 63.4647ZM319.259 62.624L318.718 66.3787C320.435 66.4699 322.112 66.8923 323.773 67.6955L325.983 64.3614L328.193 61.0273C325.578 59.7631 322.772 59.0272 319.8 58.8694L319.259 62.624ZM325.983 64.3614L323.773 67.6955C325.577 68.5677 326.497 69.3691 326.926 69.9705L330.538 67.8017L334.151 65.633C332.782 63.7147 330.665 62.2225 328.193 61.0273L325.983 64.3614ZM330.538 67.8017L326.951 70.0053C327.796 71.1588 328.295 72.0394 328.553 72.6716L332.537 71.1756L336.521 69.6796C335.986 68.3693 335.153 67.0007 334.125 65.5982L330.538 67.8017ZM332.537 71.1756L328.936 69.4346L324.896 75.5298L328.497 77.2707L332.098 79.0117L336.138 72.9166L332.537 71.1756ZM328.497 77.2707L332.406 75.606C331.718 74.1592 330.792 72.8031 329.658 71.5348L326.282 73.9988L322.906 76.4627C323.649 77.2943 324.2 78.1195 324.588 78.9355L328.497 77.2707ZM326.282 73.9988L329.685 71.5651C328.367 70.0559 326.566 68.8394 324.496 67.8384L322.286 71.1725L320.076 74.5066C321.531 75.2103 322.395 75.878 322.879 76.4324L326.282 73.9988ZM322.286 71.1725L324.496 67.8384C322.438 66.8437 320.166 66.3844 317.753 66.4729L317.634 70.231L317.516 73.989C318.453 73.9547 319.282 74.1231 320.076 74.5066L322.286 71.1725ZM317.634 70.231L317.696 66.4753C315.352 66.5892 313.11 67.2037 311.035 68.3013L313.004 71.5005L314.972 74.6996C315.796 74.2637 316.642 74.0319 317.573 73.9866L317.634 70.231ZM313.004 71.5005L311.035 68.3013C308.847 69.459 307.112 71.0853 305.813 73.0456L309.414 74.7866L313.015 76.5276C313.603 75.64 314.261 75.0756 314.972 74.6996L313.004 71.5005ZM309.414 74.7866L305.813 73.0456C304.534 74.974 303.776 77.0402 303.684 79.1964L307.906 79.0792L312.128 78.962C312.159 78.2426 312.406 77.4471 313.015 76.5276L309.414 74.7866ZM307.906 79.0792L303.684 79.1964C303.594 81.3022 304.117 83.2815 305.22 85.0742L308.958 83.0962L312.697 81.1182C312.274 80.4304 312.095 79.7318 312.128 78.962L307.906 79.0792ZM308.958 83.0962L305.294 85.1895C306.492 86.9695 308.171 88.3563 310.235 89.3538L312.445 86.0197L314.654 82.6856C313.717 82.2322 313.072 81.6701 312.623 81.0028L308.958 83.0962ZM312.445 86.0197L310.235 89.3538C312.305 90.3548 314.453 91.0472 316.647 91.2356L317.339 87.4914L318.031 83.7472C317.225 83.678 316.11 83.3893 314.654 82.6856L312.445 86.0197ZM317.339 87.4914L316.603 91.2316C318.421 91.4055 320.212 91.4071 321.962 91.2136L321.729 87.4814L321.496 83.7492C320.467 83.8629 319.33 83.8713 318.075 83.7512L317.339 87.4914ZM321.729 87.4814L318.128 85.7405L314.122 91.7835L317.724 93.5245L321.325 95.2654L325.33 89.2224L321.729 87.4814ZM317.724 93.5245L317.058 89.86C316.352 90.0035 315.284 90.0933 313.768 90.039L313.308 93.7972L312.847 97.5555C314.815 97.626 316.691 97.534 318.389 97.1889L317.724 93.5245ZM313.308 93.7972L313.82 90.0412C312.959 90.0007 311.637 89.6879 309.788 88.7941L307.578 92.1281L305.368 95.4622C307.796 96.6358 310.294 97.4358 312.795 97.5533L313.308 93.7972Z" fill="black" mask="url(#path-13-outside-7_1_99)"/>
</g>
<defs>
<filter id="filter0_d_1_99" x="19.2181" y="13.4732" width="321.975" height="99.358" filterUnits="userSpaceOnUse" color-interpolation-filters="sRGB">
<feFlood flood-opacity="0" result="BackgroundImageFix"/>
<feColorMatrix in="SourceAlpha" type="matrix" values="0 0 0 0 0 0 0 0 0 0 0 0 0 0 0 0 0 0 127 0" result="hardAlpha"/>
<feOffset dy="8"/>
<feGaussianBlur stdDeviation="2"/>
<feComposite in2="hardAlpha" operator="out"/>
<feColorMatrix type="matrix" values="0 0 0 0 0 0 0 0 0 0 0 0 0 0 0 0 0 0 0.25 0"/>
<feBlend mode="normal" in2="BackgroundImageFix" result="effect1_dropShadow_1_99"/>
<feBlend mode="normal" in="SourceGraphic" in2="effect1_dropShadow_1_99" result="shape"/>
</filter>
</defs>
</svg>
