<svg width="355" height="113" viewBox="0 0 355 113" fill="none" xmlns="http://www.w3.org/2000/svg">
<mask id="path-1-outside-1_1_99" maskUnits="userSpaceOnUse" x="1.38885" y="34.6925" width="77.91" height="66.4253" fill="black">
<rect fill="white" x="1.38885" y="34.6925" width="77.91" height="66.4253"/>
<path d="M32.3786 94.9099L27.6701 51.1264L31.6558 49.3224L71.4387 77.2302L62.1577 81.4311L37.201 62.2534L41.6597 90.709L32.3786 94.9099ZM36.8628 84.0374L33.1387 78.0365L54.5478 68.3462L58.2719 74.347L36.8628 84.0374Z"/>
</mask>
<path d="M32.3786 94.9099L27.6701 51.1264L31.6558 49.3224L71.4387 77.2302L62.1577 81.4311L37.201 62.2534L41.6597 90.709L32.3786 94.9099ZM36.8628 84.0374L33.1387 78.0365L54.5478 68.3462L58.2719 74.347L36.8628 84.0374Z" fill="#E21E1E" fill-opacity="0.8"/>
<path d="M32.3786 94.9099L28.1877 94.9996L28.8195 100.874L34.4878 98.3086L32.3786 94.9099ZM27.6701 51.1264L25.5608 47.7277L23.2181 48.7881L23.4792 51.2161L27.6701 51.1264ZM31.6558 49.3224L34.0955 46.4109L31.8893 44.8633L29.5466 45.9237L31.6558 49.3224ZM71.4387 77.2302L73.548 80.6289L79.2163 78.0633L73.8784 74.3187L71.4387 77.2302ZM62.1577 81.4311L59.5563 84.2238L61.7987 85.9469L64.2669 84.8298L62.1577 81.4311ZM37.201 62.2534L39.8024 59.4607L31.5623 53.1286L33.0322 62.5095L37.201 62.2534ZM41.6597 90.709L43.7689 94.1077L46.2269 92.9952L45.8285 90.4529L41.6597 90.709ZM36.8628 84.0374L33.2187 85.6868L35.328 89.0855L38.9721 87.4361L36.8628 84.0374ZM33.1387 78.0365L31.0295 74.6378L27.3854 76.2873L29.4946 79.686L33.1387 78.0365ZM54.5478 68.3462L58.1919 66.6968L56.0827 63.2981L52.4386 64.9475L54.5478 68.3462ZM58.2719 74.347L60.3811 77.7457L64.0252 76.0963L61.916 72.6976L58.2719 74.347ZM32.3786 94.9099L36.5695 94.8202L31.8609 51.0367L27.6701 51.1264L23.4792 51.2161L28.1877 94.9996L32.3786 94.9099ZM27.6701 51.1264L29.7793 54.5251L33.765 52.7211L31.6558 49.3224L29.5466 45.9237L25.5608 47.7277L27.6701 51.1264ZM31.6558 49.3224L29.2161 52.2338L68.9991 80.1417L71.4387 77.2302L73.8784 74.3187L34.0955 46.4109L31.6558 49.3224ZM71.4387 77.2302L69.3295 73.8315L60.0485 78.0324L62.1577 81.4311L64.2669 84.8298L73.548 80.6289L71.4387 77.2302ZM62.1577 81.4311L64.7591 78.6383L39.8024 59.4607L37.201 62.2534L34.5996 65.0461L59.5563 84.2238L62.1577 81.4311ZM37.201 62.2534L33.0322 62.5095L37.4908 90.9652L41.6597 90.709L45.8285 90.4529L41.3699 61.9972L37.201 62.2534ZM41.6597 90.709L39.5504 87.3103L30.2694 91.5112L32.3786 94.9099L34.4878 98.3086L43.7689 94.1077L41.6597 90.709ZM36.8628 84.0374L40.5069 82.388L36.7828 76.3871L33.1387 78.0365L29.4946 79.686L33.2187 85.6868L36.8628 84.0374ZM33.1387 78.0365L35.248 81.4352L56.657 71.7449L54.5478 68.3462L52.4386 64.9475L31.0295 74.6378L33.1387 78.0365ZM54.5478 68.3462L50.9037 69.9956L54.6278 75.9965L58.2719 74.347L61.916 72.6976L58.1919 66.6968L54.5478 68.3462ZM58.2719 74.347L56.1627 70.9483L34.7536 80.6387L36.8628 84.0374L38.9721 87.4361L60.3811 77.7457L58.2719 74.347Z" fill="black" mask="url(#path-1-outside-1_1_99)"/>
<mask id="path-3-outside-2_1_99" maskUnits="userSpaceOnUse" x="66.3037" y="31.6465" width="49.9157" height="48.0776" fill="black">
<rect fill="white" x="66.3037" y="31.6465" width="49.9157" height="48.0776"/>
<path d="M96.8838 70.9317C94.2281 71.646 91.6668 71.7762 89.1996 71.3225C86.7727 70.858 84.6098 69.8498 82.7107 68.298C80.8374 66.6963 79.4179 64.5858 78.452 61.9665L71.9431 44.3159L79.7289 42.2219L85.7404 58.5238C86.5766 60.7912 87.7541 62.3652 89.273 63.2458C90.8177 64.0765 92.4752 64.2538 94.2456 63.7776C96.0161 63.3015 97.2354 62.3505 97.9038 60.9246C98.5979 59.4488 98.5269 57.5771 97.6908 55.3097L91.6793 39.0078L99.4651 36.9138L105.974 54.5644C106.94 57.1837 107.172 59.6134 106.672 61.8537C106.157 64.0548 105.04 65.9449 103.323 67.5241C101.645 69.0924 99.4992 70.2283 96.8838 70.9317Z"/>
</mask>
<path d="M96.8838 70.9317C94.2281 71.646 91.6668 71.7762 89.1996 71.3225C86.7727 70.858 84.6098 69.8498 82.7107 68.298C80.8374 66.6963 79.4179 64.5858 78.452 61.9665L71.9431 44.3159L79.7289 42.2219L85.7404 58.5238C86.5766 60.7912 87.7541 62.3652 89.273 63.2458C90.8177 64.0765 92.4752 64.2538 94.2456 63.7776C96.0161 63.3015 97.2354 62.3505 97.9038 60.9246C98.5979 59.4488 98.5269 57.5771 97.6908 55.3097L91.6793 39.0078L99.4651 36.9138L105.974 54.5644C106.94 57.1837 107.172 59.6134 106.672 61.8537C106.157 64.0548 105.04 65.9449 103.323 67.5241C101.645 69.0924 99.4992 70.2283 96.8838 70.9317Z" fill="#E21E1E" fill-opacity="0.8"/>
<path d="M89.1996 71.3225L88.6782 75.1379L88.6941 75.141L88.71 75.1439L89.1996 71.3225ZM82.7107 68.298L80.0914 71.1035L80.1296 71.1362L80.1686 71.1681L82.7107 68.298ZM71.9431 44.3159L70.5592 40.5629L66.6964 41.6018L68.0804 45.3548L71.9431 44.3159ZM79.7289 42.2219L83.5917 41.183L82.2077 37.43L78.345 38.4689L79.7289 42.2219ZM89.273 63.2458L87.3276 66.5286L87.3909 66.5653L87.4554 66.6L89.273 63.2458ZM97.9038 60.9246L94.1356 59.1233L94.1336 59.1276L97.9038 60.9246ZM91.6793 39.0078L90.2953 35.2549L86.4326 36.2937L87.8165 40.0467L91.6793 39.0078ZM99.4651 36.9138L103.328 35.8749L101.944 32.1219L98.0812 33.1608L99.4651 36.9138ZM106.672 61.8537L110.681 62.9617L110.685 62.9445L110.689 62.9273L106.672 61.8537ZM103.323 67.5241L100.357 64.6319L100.346 64.6421L100.335 64.6524L103.323 67.5241ZM96.8838 70.9317L95.4998 67.1788C93.3623 67.7537 91.4432 67.8237 89.6893 67.5012L89.1996 71.3225L88.71 75.1439C91.8904 75.7287 95.094 75.5382 98.2677 74.6847L96.8838 70.9317ZM89.1996 71.3225L89.7211 67.5071C88.0234 67.1822 86.5608 66.4968 85.2528 65.428L82.7107 68.298L80.1686 71.1681C82.6587 73.2029 85.522 74.5338 88.6782 75.1379L89.1996 71.3225ZM82.7107 68.298L85.33 65.4925C84.1158 64.4543 83.0768 62.9943 82.3147 60.9276L78.452 61.9665L74.5892 63.0054C75.7589 66.1773 77.5591 68.9383 80.0914 71.1035L82.7107 68.298ZM78.452 61.9665L82.3147 60.9276L75.8059 43.277L71.9431 44.3159L68.0804 45.3548L74.5892 63.0054L78.452 61.9665ZM71.9431 44.3159L73.3271 48.0689L81.1129 45.9748L79.7289 42.2219L78.345 38.4689L70.5592 40.5629L71.9431 44.3159ZM79.7289 42.2219L75.8662 43.2608L81.8777 59.5627L85.7404 58.5238L89.6032 57.4849L83.5917 41.183L79.7289 42.2219ZM85.7404 58.5238L81.8777 59.5627C82.9079 62.3563 84.5938 64.9436 87.3276 66.5286L89.273 63.2458L91.2183 59.963C90.9144 59.7868 90.2453 59.2261 89.6032 57.4849L85.7404 58.5238ZM89.273 63.2458L87.4554 66.6C90.0949 68.0195 92.9174 68.2601 95.6296 67.5306L94.2456 63.7776L92.8617 60.0247C92.0331 60.2475 91.5404 60.1336 91.0905 59.8917L89.273 63.2458ZM94.2456 63.7776L95.6296 67.5306C98.341 66.8013 100.504 65.2179 101.674 62.7215L97.9038 60.9246L94.1336 59.1276C93.967 59.483 93.6911 59.8016 92.8617 60.0247L94.2456 63.7776ZM97.9038 60.9246L101.672 62.7258C102.921 60.0707 102.595 57.0955 101.554 54.2708L97.6908 55.3097L93.828 56.3486C94.4587 58.0587 94.2751 58.8268 94.1356 59.1233L97.9038 60.9246ZM97.6908 55.3097L101.554 54.2708L95.542 37.9689L91.6793 39.0078L87.8165 40.0467L93.828 56.3486L97.6908 55.3097ZM91.6793 39.0078L93.0632 42.7608L100.849 40.6668L99.4651 36.9138L98.0812 33.1608L90.2953 35.2549L91.6793 39.0078ZM99.4651 36.9138L95.6024 37.9527L102.111 55.6033L105.974 54.5644L109.837 53.5255L103.328 35.8749L99.4651 36.9138ZM105.974 54.5644L102.111 55.6033C102.865 57.6476 102.977 59.3374 102.655 60.7801L106.672 61.8537L110.689 62.9273C111.368 59.8895 111.015 56.7198 109.837 53.5255L105.974 54.5644ZM106.672 61.8537L102.663 60.7456C102.313 62.2405 101.568 63.5189 100.357 64.6319L103.323 67.5241L106.288 70.4162C108.513 68.3709 110 65.8691 110.681 62.9617L106.672 61.8537ZM103.323 67.5241L100.335 64.6524C99.1591 65.7523 97.5886 66.617 95.4998 67.1788L96.8838 70.9317L98.2677 74.6847C101.41 73.8396 104.132 72.4326 106.31 70.3958L103.323 67.5241Z" fill="black" mask="url(#path-3-outside-2_1_99)"/>
<mask id="path-5-outside-3_1_99" maskUnits="userSpaceOnUse" x="112.06" y="23.3013" width="59.0792" height="45.7494" fill="black">
<rect fill="white" x="112.06" y="23.3013" width="59.0792" height="45.7494"/>
<path d="M126.431 64.0822L136.553 46.6519L121.775 32.8812L131.084 31.7716L140.661 40.8171L146.971 29.8778L156.28 28.7682L146.482 45.4683L161.806 59.8656L151.938 61.0418L142.344 51.118L136.299 62.906L126.431 64.0822Z"/>
</mask>
<path d="M126.431 64.0822L136.553 46.6519L121.775 32.8812L131.084 31.7716L140.661 40.8171L146.971 29.8778L156.28 28.7682L146.482 45.4683L161.806 59.8656L151.938 61.0418L142.344 51.118L136.299 62.906L126.431 64.0822Z" fill="#E21E1E" fill-opacity="0.8"/>
<path d="M126.431 64.0822L122.92 61.9971L118.847 69.0108L127.076 68.0299L126.431 64.0822ZM136.553 46.6519L140.064 48.737L141.633 46.0353L139.248 43.8134L136.553 46.6519ZM121.775 32.8812L121.129 28.9336L112.855 29.9199L119.079 35.7197L121.775 32.8812ZM131.084 31.7716L133.8 28.9527L132.362 27.5946L130.439 27.824L131.084 31.7716ZM140.661 40.8171L137.944 43.636L141.701 47.1847L144.177 42.893L140.661 40.8171ZM146.971 29.8778L146.326 25.9302L144.402 26.1595L143.455 27.8019L146.971 29.8778ZM156.28 28.7682L159.783 30.8679L163.91 23.8342L155.635 24.8205L156.28 28.7682ZM146.482 45.4683L142.98 43.3686L141.399 46.0631L143.774 48.2948L146.482 45.4683ZM161.806 59.8656L162.451 63.8132L170.68 62.8324L164.514 57.0391L161.806 59.8656ZM151.938 61.0418L149.084 63.7248L150.542 65.2328L152.583 64.9895L151.938 61.0418ZM142.344 51.118L145.198 48.435L141.236 44.3364L138.739 49.205L142.344 51.118ZM136.299 62.906L136.944 66.8537L138.985 66.6103L139.904 64.819L136.299 62.906ZM126.431 64.0822L129.942 66.1674L140.064 48.737L136.553 46.6519L133.042 44.5667L122.92 61.9971L126.431 64.0822ZM136.553 46.6519L139.248 43.8134L124.47 30.0427L121.775 32.8812L119.079 35.7197L133.857 49.4904L136.553 46.6519ZM121.775 32.8812L122.42 36.8289L131.729 35.7192L131.084 31.7716L130.439 27.824L121.129 28.9336L121.775 32.8812ZM131.084 31.7716L128.367 34.5904L137.944 43.636L140.661 40.8171L143.377 37.9983L133.8 28.9527L131.084 31.7716ZM140.661 40.8171L144.177 42.893L150.488 31.9537L146.971 29.8778L143.455 27.8019L137.144 38.7412L140.661 40.8171ZM146.971 29.8778L147.616 33.8254L156.926 32.7158L156.28 28.7682L155.635 24.8205L146.326 25.9302L146.971 29.8778ZM156.28 28.7682L152.778 26.6685L142.98 43.3686L146.482 45.4683L149.985 47.568L159.783 30.8679L156.28 28.7682ZM146.482 45.4683L143.774 48.2948L159.097 62.6921L161.806 59.8656L164.514 57.0391L149.191 42.6418L146.482 45.4683ZM161.806 59.8656L161.16 55.918L151.293 57.0942L151.938 61.0418L152.583 64.9895L162.451 63.8132L161.806 59.8656ZM151.938 61.0418L154.792 58.3589L145.198 48.435L142.344 51.118L139.49 53.8009L149.084 63.7248L151.938 61.0418ZM142.344 51.118L138.739 49.205L132.694 60.993L136.299 62.906L139.904 64.819L145.949 53.031L142.344 51.118ZM136.299 62.906L135.654 58.9584L125.786 60.1346L126.431 64.0822L127.076 68.0299L136.944 66.8537L136.299 62.906Z" fill="black" mask="url(#path-5-outside-3_1_99)"/>
<mask id="path-7-outside-4_1_99" maskUnits="userSpaceOnUse" x="170.02" y="13.0337" width="38.0762" height="52.3558" fill="black">
<rect fill="white" x="170.02" y="13.0337" width="38.0762" height="52.3558"/>
<path d="M187.965 60.9721C185.507 60.9951 183.152 60.6004 180.901 59.7882C178.65 58.9343 176.69 57.9318 175.022 56.7807L175.01 48.5307C176.845 49.8469 178.909 50.9526 181.202 51.8478C183.536 52.7426 185.954 53.1783 188.454 53.1549C190.204 53.1385 191.64 52.7292 192.764 51.927C193.93 51.1244 194.511 50.0356 194.509 48.6606C194.508 47.9523 194.257 47.3296 193.756 46.7926C193.297 46.2136 192.692 45.7193 191.942 45.3096C191.233 44.8579 190.461 44.4901 189.628 44.2063L183.187 41.7665C181.019 40.9535 179.33 39.9693 178.12 38.814C176.91 37.6586 176.054 36.3749 175.552 34.963C175.091 33.5089 174.86 31.9694 174.857 30.3444C174.853 27.7611 175.538 25.5255 176.91 23.6376C178.323 21.7077 180.154 20.2113 182.403 19.1486C184.693 18.0855 187.129 17.5418 189.713 17.5176C192.171 17.4946 194.4 17.8071 196.401 18.455C198.402 19.1029 200.07 19.8582 201.405 20.7207L201.417 28.9707C199.916 28.0264 198.248 27.1878 196.413 26.455C194.621 25.6801 192.641 25.3028 190.474 25.3231C189.391 25.3332 188.35 25.5305 187.35 25.9149C186.351 26.2992 185.518 26.8487 184.853 27.5633C184.229 28.2774 183.918 29.1762 183.919 30.2595C183.921 31.6345 184.527 32.6914 185.737 33.4301C186.946 34.1271 188.426 34.8424 190.177 35.576L195.18 37.6542C198.14 38.8765 200.309 40.3354 201.687 42.0308C203.106 43.6842 203.817 45.7193 203.821 48.1359C203.824 50.6359 203.099 52.8511 201.643 54.7814C200.229 56.6697 198.315 58.1668 195.9 59.2727C193.527 60.3783 190.882 60.9447 187.965 60.9721Z"/>
</mask>
<path d="M187.965 60.9721C185.507 60.9951 183.152 60.6004 180.901 59.7882C178.65 58.9343 176.69 57.9318 175.022 56.7807L175.01 48.5307C176.845 49.8469 178.909 50.9526 181.202 51.8478C183.536 52.7426 185.954 53.1783 188.454 53.1549C190.204 53.1385 191.64 52.7292 192.764 51.927C193.93 51.1244 194.511 50.0356 194.509 48.6606C194.508 47.9523 194.257 47.3296 193.756 46.7926C193.297 46.2136 192.692 45.7193 191.942 45.3096C191.233 44.8579 190.461 44.4901 189.628 44.2063L183.187 41.7665C181.019 40.9535 179.33 39.9693 178.12 38.814C176.91 37.6586 176.054 36.3749 175.552 34.963C175.091 33.5089 174.86 31.9694 174.857 30.3444C174.853 27.7611 175.538 25.5255 176.91 23.6376C178.323 21.7077 180.154 20.2113 182.403 19.1486C184.693 18.0855 187.129 17.5418 189.713 17.5176C192.171 17.4946 194.4 17.8071 196.401 18.455C198.402 19.1029 200.07 19.8582 201.405 20.7207L201.417 28.9707C199.916 28.0264 198.248 27.1878 196.413 26.455C194.621 25.6801 192.641 25.3028 190.474 25.3231C189.391 25.3332 188.35 25.5305 187.35 25.9149C186.351 26.2992 185.518 26.8487 184.853 27.5633C184.229 28.2774 183.918 29.1762 183.919 30.2595C183.921 31.6345 184.527 32.6914 185.737 33.4301C186.946 34.1271 188.426 34.8424 190.177 35.576L195.18 37.6542C198.14 38.8765 200.309 40.3354 201.687 42.0308C203.106 43.6842 203.817 45.7193 203.821 48.1359C203.824 50.6359 203.099 52.8511 201.643 54.7814C200.229 56.6697 198.315 58.1668 195.9 59.2727C193.527 60.3783 190.882 60.9447 187.965 60.9721Z" fill="#FFB132"/>
<path d="M180.901 59.7882L179.457 63.5298L179.487 63.5412L179.518 63.5522L180.901 59.7882ZM175.022 56.7807L171.022 56.8181L171.025 58.9008L172.733 60.0791L175.022 56.7807ZM175.01 48.5307L177.357 45.2737L170.998 40.7131L171.01 48.5682L175.01 48.5307ZM181.202 51.8478L179.722 55.5756L179.733 55.5801L179.745 55.5845L181.202 51.8478ZM192.764 51.927L190.513 48.6381L190.485 48.6575L190.457 48.6773L192.764 51.927ZM193.756 46.7926L190.615 49.2934L190.713 49.4175L190.821 49.5333L193.756 46.7926ZM191.942 45.3096L189.774 48.6882L189.887 48.7602L190.004 48.8244L191.942 45.3096ZM189.628 44.2063L188.185 47.9485L188.248 47.9724L188.312 47.9941L189.628 44.2063ZM183.187 41.7665L184.629 38.0243L184.617 38.0197L183.187 41.7665ZM175.552 34.963L171.738 36.198L171.759 36.2642L171.782 36.3295L175.552 34.963ZM176.91 23.6376L173.69 21.2901L173.685 21.2962L173.681 21.3023L176.91 23.6376ZM182.403 19.1486L180.742 15.5226L180.73 15.5285L180.717 15.5345L182.403 19.1486ZM201.405 20.7207L205.404 20.6832L205.401 18.5238L203.594 17.3559L201.405 20.7207ZM201.417 28.9707L199.269 32.3616L205.428 36.2354L205.417 28.9332L201.417 28.9707ZM196.413 26.455L194.802 30.1289L194.853 30.1508L194.904 30.1714L196.413 26.455ZM184.853 27.5633L181.936 24.8491L181.892 24.8963L181.85 24.9449L184.853 27.5633ZM185.737 33.4301L183.632 36.8484L183.675 36.8746L183.719 36.8998L185.737 33.4301ZM190.177 35.576L188.607 39.2674L188.618 39.272L190.177 35.576ZM195.18 37.6542L193.621 41.3502L193.629 41.3533L195.18 37.6542ZM201.687 42.0308L198.574 44.568L198.608 44.6095L198.643 44.6499L201.687 42.0308ZM201.643 54.7814L198.456 52.3891L198.448 52.3999L201.643 54.7814ZM195.9 59.2727L194.258 55.638L194.247 55.6435L194.235 55.649L195.9 59.2727ZM187.965 60.9721L187.959 56.9721C185.963 56.9907 184.08 56.672 182.285 56.0242L180.901 59.7882L179.518 63.5522C182.225 64.5289 185.051 64.9994 187.971 64.972L187.965 60.9721ZM180.901 59.7882L182.345 56.0466C180.339 55.2855 178.673 54.4223 177.311 53.4823L175.022 56.7807L172.733 60.0791C174.707 61.4412 176.961 62.583 179.457 63.5298L180.901 59.7882ZM175.022 56.7807L179.022 56.7432L179.009 48.4932L175.01 48.5307L171.01 48.5682L171.022 56.8181L175.022 56.7807ZM175.01 48.5307L172.662 51.7877C174.788 53.3125 177.148 54.5707 179.722 55.5756L181.202 51.8478L182.682 48.12C180.67 47.3344 178.902 46.3812 177.357 45.2737L175.01 48.5307ZM181.202 51.8478L179.745 55.5845C182.544 56.6574 185.458 57.183 188.46 57.1549L188.454 53.1549L188.448 49.1549C186.45 49.1736 184.529 48.8277 182.659 48.1111L181.202 51.8478ZM188.454 53.1549L188.46 57.1549C190.809 57.1329 193.111 56.5756 195.071 55.1767L192.764 51.927L190.457 48.6773C190.17 48.8828 189.598 49.1441 188.448 49.1549L188.454 53.1549ZM192.764 51.927L195.015 55.2159C197.243 53.6815 198.513 51.3638 198.509 48.6232L194.509 48.6606L190.509 48.6981C190.509 48.758 190.503 48.7718 190.508 48.7511C190.51 48.7413 190.515 48.7258 190.522 48.7062C190.53 48.6865 190.539 48.6657 190.55 48.645C190.561 48.6244 190.572 48.6068 190.582 48.593C190.592 48.5792 190.599 48.5715 190.601 48.5695C190.605 48.5652 190.582 48.5908 190.513 48.6381L192.764 51.927ZM194.509 48.6606L198.509 48.6232C198.506 46.8651 197.845 45.2886 196.691 44.052L193.756 46.7926L190.821 49.5333C190.772 49.4802 190.682 49.3637 190.609 49.1827C190.535 48.999 190.51 48.8258 190.509 48.6981L194.509 48.6606ZM193.756 46.7926L196.898 44.2919C196.062 43.2377 195.023 42.4191 193.879 41.7948L191.942 45.3096L190.004 48.8244C190.362 49.0194 190.533 49.1895 190.615 49.2934L193.756 46.7926ZM191.942 45.3096L194.11 41.931C193.122 41.3017 192.063 40.7996 190.943 40.4185L189.628 44.2063L188.312 47.9941C188.86 48.1807 189.344 48.4141 189.774 48.6882L191.942 45.3096ZM189.628 44.2063L191.07 40.464L184.629 38.0243L183.187 41.7665L181.744 45.5088L188.185 47.9485L189.628 44.2063ZM183.187 41.7665L184.617 38.0197C182.771 37.3274 181.6 36.5849 180.894 35.9103L178.12 38.814L175.346 41.7176C177.06 43.3537 179.267 44.5796 181.756 45.5134L183.187 41.7665ZM178.12 38.814L180.894 35.9103C180.078 35.1312 179.593 34.3588 179.322 33.5964L175.552 34.963L171.782 36.3295C172.515 38.391 173.742 40.186 175.346 41.7176L178.12 38.814ZM175.552 34.963L179.366 33.7279C179.035 32.6845 178.859 31.5508 178.857 30.3069L174.857 30.3444L170.858 30.3818C170.861 32.388 171.147 34.3333 171.738 36.198L175.552 34.963ZM174.857 30.3444L178.857 30.3069C178.854 28.4752 179.324 27.0935 180.139 25.9728L176.91 23.6376L173.681 21.3023C171.751 23.9574 170.853 27.0469 170.858 30.3818L174.857 30.3444ZM176.91 23.6376L180.13 25.985C181.129 24.6208 182.423 23.5498 184.089 22.7627L182.403 19.1486L180.717 15.5345C177.886 16.8728 175.518 18.7945 173.69 21.2901L176.91 23.6376ZM182.403 19.1486L184.063 22.7746C185.82 21.959 187.691 21.5366 189.719 21.5176L189.713 17.5176L189.707 13.5176C186.568 13.547 183.566 14.2119 180.742 15.5226L182.403 19.1486ZM189.713 17.5176L189.719 21.5176C191.817 21.498 193.611 21.7656 195.142 22.2616L196.401 18.455L197.661 14.6484C195.19 13.8485 192.525 13.4912 189.707 13.5176L189.713 17.5176ZM196.401 18.455L195.142 22.2616C196.913 22.8351 198.246 23.4588 199.215 24.0854L201.405 20.7207L203.594 17.3559C201.895 16.2575 199.891 15.3707 197.661 14.6484L196.401 18.455ZM201.405 20.7207L197.405 20.7581L197.417 29.0081L201.417 28.9707L205.417 28.9332L205.404 20.6832L201.405 20.7207ZM201.417 28.9707L203.565 25.5797C201.84 24.4946 199.955 23.5506 197.922 22.7386L196.413 26.455L194.904 30.1714C196.541 30.8251 197.991 31.5582 199.269 32.3616L201.417 28.9707ZM196.413 26.455L198.024 22.7811C195.67 21.7636 193.132 21.2982 190.468 21.3231L190.474 25.3231L190.48 29.3231C192.15 29.3075 193.571 29.5966 194.802 30.1289L196.413 26.455ZM190.474 25.3231L190.468 21.3231C188.912 21.3377 187.395 21.6232 185.94 22.1827L187.35 25.9149L188.76 29.647C189.304 29.4378 189.87 29.3288 190.48 29.3231L190.474 25.3231ZM187.35 25.9149L185.94 22.1827C184.425 22.7654 183.06 23.6423 181.936 24.8491L184.853 27.5633L187.77 30.2774C187.977 30.055 188.277 29.8331 188.76 29.647L187.35 25.9149ZM184.853 27.5633L181.85 24.9449C180.488 26.5035 179.917 28.3915 179.92 30.297L183.919 30.2595L187.919 30.2221C187.919 30.1434 187.925 30.0937 187.929 30.0685C187.933 30.0439 187.935 30.0413 187.93 30.0551C187.925 30.0695 187.916 30.0925 187.9 30.1194C187.884 30.1464 187.868 30.1677 187.856 30.1817L184.853 27.5633ZM183.919 30.2595L179.92 30.297C179.924 33.1123 181.295 35.421 183.632 36.8484L185.737 33.4301L187.841 30.0118C187.771 29.9693 187.754 29.949 187.767 29.9615C187.781 29.9759 187.815 30.0133 187.849 30.0737C187.884 30.1345 187.905 30.1918 187.915 30.2324C187.925 30.2707 187.919 30.2719 187.919 30.2221L183.919 30.2595ZM185.737 33.4301L183.719 36.8998C185.113 37.7035 186.753 38.4905 188.607 39.2673L190.177 35.576L191.747 31.8847C190.099 31.1943 188.779 30.5507 187.754 29.9603L185.737 33.4301ZM190.177 35.576L188.618 39.272L193.621 41.3502L195.18 37.6542L196.739 33.9582L191.736 31.88L190.177 35.576ZM195.18 37.6542L193.629 41.3533C196.243 42.4326 197.76 43.5663 198.574 44.568L201.687 42.0308L204.799 39.4936C202.858 37.1045 200.038 35.3204 196.731 33.955L195.18 37.6542ZM201.687 42.0308L198.643 44.6499C199.38 45.5093 199.818 46.5993 199.821 48.1734L203.821 48.1359L207.82 48.0985C207.816 44.8392 206.831 41.8592 204.73 39.4117L201.687 42.0308ZM203.821 48.1359L199.821 48.1734C199.823 49.8342 199.362 51.1882 198.456 52.3891L201.643 54.7814L204.83 57.1737C206.835 54.514 207.825 51.4377 207.82 48.0985L203.821 48.1359ZM201.643 54.7814L198.448 52.3999C197.489 53.6815 196.139 54.777 194.258 55.638L195.9 59.2727L197.542 62.9074C200.491 61.5566 202.97 59.6579 204.838 57.1628L201.643 54.7814ZM195.9 59.2727L194.235 55.649C192.44 56.4849 190.371 56.9495 187.959 56.9721L187.965 60.9721L187.971 64.972C191.393 64.94 194.613 64.2717 197.565 62.8965L195.9 59.2727Z" fill="black" mask="url(#path-7-outside-4_1_99)"/>
<mask id="path-9-outside-5_1_99" maskUnits="userSpaceOnUse" x="201.181" y="23.4612" width="61.3234" height="61.7086" fill="black">
<rect fill="white" x="201.181" y="23.4612" width="61.3234" height="61.7086"/>
<path d="M212.662 74.9643L229.952 54.7666L245.376 33.1907L254.321 34.6457L221.545 76.4092L212.662 74.9643ZM226.38 61.8977L218.726 28.856L227.856 30.341L233.533 57.0558L226.38 61.8977Z"/>
</mask>
<path d="M212.662 74.9643L229.952 54.7666L245.376 33.1907L254.321 34.6457L221.545 76.4092L212.662 74.9643ZM226.38 61.8977L218.726 28.856L227.856 30.341L233.533 57.0558L226.38 61.8977Z" fill="#FFB132"/>
<path d="M212.662 74.9643L209.621 72.5214L205.117 77.7828L211.791 78.8683L212.662 74.9643ZM229.952 54.7666L232.993 57.2094L233.115 57.0669L233.224 56.9147L229.952 54.7666ZM245.376 33.1907L246.246 29.2867L243.66 28.866L242.104 31.0426L245.376 33.1907ZM254.321 34.6457L257.478 36.947L261.537 31.7738L255.191 30.7416L254.321 34.6457ZM221.545 76.4092L220.675 80.3133L223.131 80.7128L224.702 78.7105L221.545 76.4092ZM226.38 61.8977L222.434 62.9684L223.693 68.4039L228.556 65.1124L226.38 61.8977ZM218.726 28.856L219.597 24.9519L213.394 23.943L214.78 29.9267L218.726 28.856ZM227.856 30.341L231.816 29.3371L231.289 26.8537L228.727 26.4369L227.856 30.341ZM233.533 57.0558L235.709 60.2705L238.052 58.6841L237.493 56.0518L233.533 57.0558ZM212.662 74.9643L215.703 77.4071L232.993 57.2094L229.952 54.7666L226.911 52.3238L209.621 72.5214L212.662 74.9643ZM229.952 54.7666L233.224 56.9147L248.647 35.3389L245.376 33.1907L242.104 31.0426L226.68 52.6185L229.952 54.7666ZM245.376 33.1907L244.505 37.0948L253.45 38.5498L254.321 34.6457L255.191 30.7416L246.246 29.2867L245.376 33.1907ZM254.321 34.6457L251.164 32.3444L218.388 74.1079L221.545 76.4092L224.702 78.7105L257.478 36.947L254.321 34.6457ZM221.545 76.4092L222.416 72.5051L213.533 71.0602L212.662 74.9643L211.791 78.8683L220.675 80.3133L221.545 76.4092ZM226.38 61.8977L230.325 60.827L222.671 27.7853L218.726 28.856L214.78 29.9267L222.434 62.9684L226.38 61.8977ZM218.726 28.856L217.855 32.7601L226.985 34.2451L227.856 30.341L228.727 26.4369L219.597 24.9519L218.726 28.856ZM227.856 30.341L223.896 31.345L229.572 58.0598L233.533 57.0558L237.493 56.0518L231.816 29.3371L227.856 30.341ZM233.533 57.0558L231.357 53.8411L224.204 58.683L226.38 61.8977L228.556 65.1124L235.709 60.2705L233.533 57.0558Z" fill="black" mask="url(#path-9-outside-5_1_99)"/>
<mask id="path-11-outside-6_1_99" maskUnits="userSpaceOnUse" x="249.792" y="31.1884" width="54.2435" height="50.3052" fill="black">
<rect fill="white" x="249.792" y="31.1884" width="54.2435" height="50.3052"/>
<path d="M275.597 73.4583L283.972 57.1804C284.951 55.2942 285.195 53.6981 284.705 52.3921C284.255 51.1013 283.195 50.128 281.528 49.4721C280.21 48.9535 278.777 48.8798 277.231 49.2511C275.684 49.6224 274.197 50.1951 272.768 50.969L276.02 44.7C277.044 44.1674 278.164 43.7175 279.382 43.3504C280.657 42.9615 281.972 42.7664 283.327 42.7649C284.701 42.7265 286.047 42.9666 287.365 43.4852C289.382 44.2784 290.964 45.4131 292.112 46.8891C293.261 48.3652 293.83 50.1478 293.82 52.237C293.868 54.3044 293.23 56.6141 291.906 59.1661L282.983 76.3642L275.597 73.4583ZM256.171 65.8161L270.706 37.7997L278.093 40.7056L263.557 68.722L256.171 65.8161Z"/>
</mask>
<path d="M275.597 73.4583L283.972 57.1804C284.951 55.2942 285.195 53.6981 284.705 52.3921C284.255 51.1013 283.195 50.128 281.528 49.4721C280.21 48.9535 278.777 48.8798 277.231 49.2511C275.684 49.6224 274.197 50.1951 272.768 50.969L276.02 44.7C277.044 44.1674 278.164 43.7175 279.382 43.3504C280.657 42.9615 281.972 42.7664 283.327 42.7649C284.701 42.7265 286.047 42.9666 287.365 43.4852C289.382 44.2784 290.964 45.4131 292.112 46.8891C293.261 48.3652 293.83 50.1478 293.82 52.237C293.868 54.3044 293.23 56.6141 291.906 59.1661L282.983 76.3642L275.597 73.4583ZM256.171 65.8161L270.706 37.7997L278.093 40.7056L263.557 68.722L256.171 65.8161Z" fill="#FFB132"/>
<path d="M275.597 73.4583L271.868 72.0061L270.045 75.5495L273.755 77.0089L275.597 73.4583ZM283.972 57.1804L280.25 55.716L280.243 55.7282L283.972 57.1804ZM284.705 52.3921L280.744 53.7946L280.757 53.8311L280.771 53.8672L284.705 52.3921ZM272.768 50.969L269.046 49.5046L263.419 60.3504L274.68 54.2496L272.768 50.969ZM276.02 44.7L274.176 41.3834L272.92 42.0371L272.298 43.2356L276.02 44.7ZM279.382 43.3504L280.421 46.9947L280.434 46.9906L279.382 43.3504ZM283.327 42.7649L283.048 46.6056L283.109 46.6056L283.169 46.6039L283.327 42.7649ZM293.82 52.237L289.667 52.4823L289.667 52.5317L289.668 52.581L293.82 52.237ZM282.983 76.3642L281.141 79.9148L284.863 81.3792L286.705 77.8286L282.983 76.3642ZM256.171 65.8161L252.449 64.3517L250.606 67.9023L254.329 69.3667L256.171 65.8161ZM270.706 37.7997L272.548 34.2491L268.826 32.7848L266.984 36.3353L270.706 37.7997ZM278.093 40.7056L281.815 42.17L283.657 38.6194L279.935 37.155L278.093 40.7056ZM263.557 68.722L261.715 72.2726L265.438 73.7369L267.28 70.1864L263.557 68.722ZM275.597 73.4583L279.325 74.9106L287.7 58.6327L283.972 57.1804L280.243 55.7282L271.868 72.0061L275.597 73.4583ZM283.972 57.1804L287.694 58.6448C288.944 56.235 289.613 53.5117 288.64 50.9169L284.705 52.3921L280.771 53.8672C280.777 53.8844 280.957 54.3533 280.25 55.716L283.972 57.1804ZM284.705 52.3921L288.666 50.9896C287.797 48.5009 285.791 46.8739 283.37 45.9215L281.528 49.4721L279.686 53.0227C280.6 53.3822 280.712 53.7018 280.744 53.7946L284.705 52.3921ZM281.528 49.4721L283.37 45.9215C281.18 45.0601 278.819 44.9684 276.449 45.5373L277.231 49.2511L278.013 52.9649C278.736 52.7912 279.239 52.8469 279.686 53.0227L281.528 49.4721ZM277.231 49.2511L276.449 45.5373C274.5 46.0052 272.632 46.726 270.856 47.6885L272.768 50.969L274.68 54.2496C275.761 53.6641 276.869 53.2396 278.013 52.9649L277.231 49.2511ZM272.768 50.969L276.49 52.4334L279.743 46.1644L276.02 44.7L272.298 43.2356L269.046 49.5046L272.768 50.969ZM276.02 44.7L277.865 48.0167C278.606 47.6307 279.454 47.2863 280.421 46.9947L279.382 43.3504L278.343 39.7061C276.875 40.1488 275.481 40.7041 274.176 41.3834L276.02 44.7ZM279.382 43.3504L280.434 46.9906C281.263 46.738 282.128 46.6066 283.048 46.6056L283.327 42.7649L283.606 38.9242C281.817 38.9261 280.052 39.1851 278.329 39.7102L279.382 43.3504ZM283.327 42.7649L283.169 46.6039C283.917 46.5829 284.693 46.709 285.523 47.0358L287.365 43.4852L289.208 39.9346C287.402 39.2242 285.485 38.87 283.485 38.926L283.327 42.7649ZM287.365 43.4852L285.523 47.0358C286.971 47.6053 287.98 48.363 288.685 49.2693L292.112 46.8891L295.54 44.509C293.948 42.4631 291.792 40.9515 289.208 39.9346L287.365 43.4852ZM292.112 46.8891L288.685 49.2693C289.304 50.065 289.674 51.0797 289.667 52.4823L293.82 52.237L297.973 51.9916C297.986 49.216 297.218 46.6654 295.54 44.509L292.112 46.8891ZM293.82 52.237L289.668 52.581C289.697 53.863 289.305 55.5405 288.184 57.7017L291.906 59.1661L295.628 60.6305C297.155 57.6876 298.038 54.7458 297.972 51.8929L293.82 52.237ZM291.906 59.1661L288.184 57.7017L279.261 74.8998L282.983 76.3642L286.705 77.8286L295.628 60.6305L291.906 59.1661ZM282.983 76.3642L284.825 72.8136L277.439 69.9078L275.597 73.4583L273.755 77.0089L281.141 79.9148L282.983 76.3642ZM256.171 65.8161L259.893 67.2805L274.429 39.2641L270.706 37.7997L266.984 36.3353L252.449 64.3517L256.171 65.8161ZM270.706 37.7997L268.864 41.3503L276.251 44.2562L278.093 40.7056L279.935 37.155L272.548 34.2491L270.706 37.7997ZM278.093 40.7056L274.37 39.2412L259.835 67.2576L263.557 68.722L267.28 70.1864L281.815 42.17L278.093 40.7056ZM263.557 68.722L265.399 65.1714L258.013 62.2655L256.171 65.8161L254.329 69.3667L261.715 72.2726L263.557 68.722Z" fill="black" mask="url(#path-11-outside-6_1_99)"/>
<mask id="path-13-outside-7_1_99" maskUnits="userSpaceOnUse" x="286.202" y="51.3006" width="54.7154" height="50.2413" fill="black">
<rect fill="white" x="286.202" y="51.3006" width="54.7154" height="50.2413"/>
<path d="M307.578 92.1712C305.44 91.1375 303.694 89.8117 302.339 88.1937C301.022 86.5939 300.114 84.8251 299.615 82.8872C299.116 80.9493 299.044 78.9655 299.399 76.9358C299.791 74.9242 300.597 72.998 301.817 71.1573C303.037 69.3166 304.556 67.735 306.374 66.4125C308.229 65.1082 310.258 64.1399 312.46 63.5078C314.685 62.8409 316.952 62.5607 319.259 62.6671C321.603 62.7916 323.845 63.3707 325.983 64.4044C328.121 65.4381 329.64 66.5849 330.538 67.8448C331.474 69.1228 332.141 70.2474 332.537 71.2186L328.497 77.3138C327.959 76.1824 327.221 75.0917 326.282 74.0418C325.381 73.01 324.049 72.0679 322.286 71.2156C320.86 70.5264 319.31 70.2126 317.634 70.274C315.997 70.3535 314.453 70.7767 313.004 71.5435C311.554 72.3103 310.358 73.4057 309.414 74.8296C308.47 76.2536 307.967 77.6844 307.906 79.1222C307.845 80.56 308.195 81.899 308.958 83.1392C309.782 84.3628 310.944 85.3373 312.445 86.0627C314.208 86.915 315.839 87.4056 317.339 87.5344C318.876 87.6814 320.339 87.6781 321.729 87.5244L317.724 93.5675C316.521 93.8118 315.049 93.9027 313.308 93.8403C311.626 93.7612 309.717 93.2049 307.578 92.1712Z"/>
</mask>
<path d="M307.578 92.1712C305.44 91.1375 303.694 89.8117 302.339 88.1937C301.022 86.5939 300.114 84.8251 299.615 82.8872C299.116 80.9493 299.044 78.9655 299.399 76.9358C299.791 74.9242 300.597 72.998 301.817 71.1573C303.037 69.3166 304.556 67.735 306.374 66.4125C308.229 65.1082 310.258 64.1399 312.46 63.5078C314.685 62.8409 316.952 62.5607 319.259 62.6671C321.603 62.7916 323.845 63.3707 325.983 64.4044C328.121 65.4381 329.64 66.5849 330.538 67.8448C331.474 69.1228 332.141 70.2474 332.537 71.2186L328.497 77.3138C327.959 76.1824 327.221 75.0917 326.282 74.0418C325.381 73.01 324.049 72.0679 322.286 71.2156C320.86 70.5264 319.31 70.2126 317.634 70.274C315.997 70.3535 314.453 70.7767 313.004 71.5435C311.554 72.3103 310.358 73.4057 309.414 74.8296C308.47 76.2536 307.967 77.6844 307.906 79.1222C307.845 80.56 308.195 81.899 308.958 83.1392C309.782 84.3628 310.944 85.3373 312.445 86.0627C314.208 86.915 315.839 87.4056 317.339 87.5344C318.876 87.6814 320.339 87.6781 321.729 87.5244L317.724 93.5675C316.521 93.8118 315.049 93.9027 313.308 93.8403C311.626 93.7612 309.717 93.2049 307.578 92.1712Z" fill="#FFB132"/>
<path d="M302.339 88.1937L298.871 90.5505L298.88 90.5615L298.889 90.5724L302.339 88.1937ZM299.399 76.9358L295.237 76.5441L295.231 76.5776L295.225 76.6111L299.399 76.9358ZM306.374 66.4125L303.9 63.5232L303.869 63.5447L303.839 63.5667L306.374 66.4125ZM312.46 63.5078L313.5 67.0806L313.528 67.0728L313.555 67.0646L312.46 63.5078ZM319.259 62.6671L319.8 58.9124L319.783 58.9115L319.767 58.9108L319.259 62.6671ZM330.538 67.8448L326.926 70.0135L326.938 70.031L326.951 70.0483L330.538 67.8448ZM332.537 71.2186L336.138 72.9596L337.193 71.369L336.521 69.7226L332.537 71.2186ZM328.497 77.3138L324.588 78.9785L327.746 85.6206L332.098 79.0547L328.497 77.3138ZM326.282 74.0418L322.879 76.4755L322.893 76.4907L322.906 76.5057L326.282 74.0418ZM317.634 70.274L317.753 66.5159L317.724 66.517L317.696 66.5183L317.634 70.274ZM308.958 83.1392L305.22 85.1172L305.255 85.1756L305.294 85.2325L308.958 83.1392ZM317.339 87.5344L318.075 83.7943L318.053 83.7922L318.031 83.7903L317.339 87.5344ZM321.729 87.5244L325.33 89.2654L329.548 82.902L321.496 83.7922L321.729 87.5244ZM317.724 93.5675L318.389 97.2319L320.308 96.8419L321.325 95.3084L317.724 93.5675ZM313.308 93.8403L312.795 97.5964L312.821 97.5976L312.847 97.5985L313.308 93.8403ZM307.578 92.1712L309.788 88.8371C308.104 88.0226 306.791 87.0116 305.789 85.815L302.339 88.1937L298.889 90.5724C300.597 92.6117 302.777 94.2524 305.368 95.5053L307.578 92.1712ZM302.339 88.1937L305.807 85.837C304.797 84.6104 304.114 83.2748 303.737 81.8099L299.615 82.8872L295.493 83.9645C296.113 86.3753 297.246 88.5774 298.871 90.5505L302.339 88.1937ZM299.615 82.8872L303.737 81.8099C303.356 80.3295 303.3 78.8215 303.573 77.2605L299.399 76.9358L295.225 76.6111C294.788 79.1095 294.876 81.5691 295.493 83.9645L299.615 82.8872ZM299.399 76.9358L303.561 77.3274C303.859 75.7998 304.469 74.3303 305.419 72.8983L301.817 71.1573L298.216 69.4164C296.725 71.6658 295.724 74.0485 295.237 76.5441L299.399 76.9358ZM301.817 71.1573L305.419 72.8983C306.368 71.4663 307.529 70.2627 308.909 69.2584L306.374 66.4125L303.839 63.5667C301.584 65.2074 299.707 67.167 298.216 69.4164L301.817 71.1573ZM306.374 66.4125L308.848 69.3019C310.275 68.2987 311.818 67.5635 313.5 67.0806L312.46 63.5078L311.42 59.9349C308.698 60.7163 306.183 61.9176 303.9 63.5232L306.374 66.4125ZM312.46 63.5078L313.555 67.0646C315.253 66.5556 316.975 66.3415 318.75 66.4234L319.259 62.6671L319.767 58.9108C316.928 58.7798 314.118 59.1262 311.366 59.9509L312.46 63.5078ZM319.259 62.6671L318.718 66.4217C320.435 66.513 322.112 66.9353 323.773 67.7385L325.983 64.4044L328.193 61.0703C325.578 59.8062 322.772 59.0703 319.8 58.9124L319.259 62.6671ZM325.983 64.4044L323.773 67.7385C325.577 68.6107 326.497 69.4121 326.926 70.0135L330.538 67.8448L334.151 65.676C332.782 63.7577 330.665 62.2656 328.193 61.0703L325.983 64.4044ZM330.538 67.8448L326.951 70.0483C327.796 71.2018 328.295 72.0824 328.553 72.7146L332.537 71.2186L336.521 69.7226C335.986 68.4123 335.153 67.0437 334.125 65.6412L330.538 67.8448ZM332.537 71.2186L328.936 69.4777L324.896 75.5728L328.497 77.3138L332.098 79.0547L336.138 72.9596L332.537 71.2186ZM328.497 77.3138L332.406 75.649C331.718 74.2022 330.792 72.8461 329.658 71.5778L326.282 74.0418L322.906 76.5057C323.649 77.3373 324.2 78.1626 324.588 78.9785L328.497 77.3138ZM326.282 74.0418L329.685 71.6081C328.367 70.0989 326.566 68.8825 324.496 67.8815L322.286 71.2156L320.076 74.5496C321.531 75.2533 322.395 75.9211 322.879 76.4755L326.282 74.0418ZM322.286 71.2156L324.496 67.8815C322.438 66.8868 320.166 66.4274 317.753 66.5159L317.634 70.274L317.516 74.0321C318.453 73.9977 319.282 74.1661 320.076 74.5496L322.286 71.2156ZM317.634 70.274L317.696 66.5183C315.352 66.6322 313.11 67.2467 311.035 68.3444L313.004 71.5435L314.972 74.7427C315.796 74.3067 316.642 74.0749 317.573 74.0297L317.634 70.274ZM313.004 71.5435L311.035 68.3444C308.847 69.502 307.112 71.1284 305.813 73.0887L309.414 74.8296L313.015 76.5706C313.603 75.683 314.261 75.1186 314.972 74.7427L313.004 71.5435ZM309.414 74.8296L305.813 73.0887C304.534 75.017 303.776 77.0832 303.684 79.2394L307.906 79.1222L312.128 79.005C312.159 78.2856 312.406 77.4901 313.015 76.5706L309.414 74.8296ZM307.906 79.1222L303.684 79.2394C303.594 81.3452 304.117 83.3246 305.22 85.1172L308.958 83.1392L312.697 81.1612C312.274 80.4735 312.095 79.7748 312.128 79.005L307.906 79.1222ZM308.958 83.1392L305.294 85.2325C306.492 87.0125 308.171 88.3994 310.235 89.3968L312.445 86.0627L314.654 82.7286C313.717 82.2752 313.072 81.7131 312.623 81.0459L308.958 83.1392ZM312.445 86.0627L310.235 89.3968C312.305 90.3978 314.453 91.0902 316.647 91.2786L317.339 87.5344L318.031 83.7903C317.225 83.721 316.11 83.4323 314.654 82.7286L312.445 86.0627ZM317.339 87.5344L316.603 91.2746C318.421 91.4485 320.212 91.4502 321.962 91.2567L321.729 87.5244L321.496 83.7922C320.467 83.906 319.33 83.9143 318.075 83.7943L317.339 87.5344ZM321.729 87.5244L318.128 85.7835L314.122 91.8265L317.724 93.5675L321.325 95.3084L325.33 89.2654L321.729 87.5244ZM317.724 93.5675L317.058 89.9031C316.352 90.0465 315.284 90.1364 313.768 90.082L313.308 93.8403L312.847 97.5985C314.815 97.6691 316.691 97.5771 318.389 97.2319L317.724 93.5675ZM313.308 93.8403L313.82 90.0842C312.959 90.0437 311.637 89.7309 309.788 88.8371L307.578 92.1712L305.368 95.5053C307.796 96.6788 310.294 97.4788 312.795 97.5964L313.308 93.8403Z" fill="black" mask="url(#path-13-outside-7_1_99)"/>
</svg>
