<svg width="363" height="110" viewBox="0 0 363 110" fill="none" xmlns="http://www.w3.org/2000/svg">
<mask id="path-1-outside-1_1_99" maskUnits="userSpaceOnUse" x="1.38607" y="34.6271" width="77.8905" height="66.4469" fill="black">
<rect fill="white" x="1.38607" y="34.6271" width="77.8905" height="66.4469"/>
<path d="M32.3627 94.8638L27.6632 51.0689L31.6485 49.2638L71.4183 77.174L62.1383 81.3772L37.1902 62.1976L41.6427 90.6605L32.3627 94.8638ZM36.8481 83.9877L33.1258 77.9857L54.5324 68.2898L58.2546 74.2918L36.8481 83.9877Z"/>
</mask>
<path d="M32.3627 94.8638L27.6632 51.0689L31.6485 49.2638L71.4183 77.174L62.1383 81.3772L37.1902 62.1976L41.6427 90.6605L32.3627 94.8638ZM36.8481 83.9877L33.1258 77.9857L54.5324 68.2898L58.2546 74.2918L36.8481 83.9877Z" fill="#E21E1E" fill-opacity="0.8"/>
<path d="M32.3627 94.8638L28.1727 94.9541L28.8032 100.83L34.4709 98.2632L32.3627 94.8638ZM27.6632 51.0689L25.555 47.6695L23.2126 48.7305L23.4732 51.1592L27.6632 51.0689ZM31.6485 49.2638L34.0882 46.3512L31.8828 44.8034L29.5403 45.8644L31.6485 49.2638ZM71.4183 77.174L73.5264 80.5733L79.1941 78.0062L73.858 74.2614L71.4183 77.174ZM62.1383 81.3772L59.5369 84.1711L61.7786 85.8944L64.2465 84.7766L62.1383 81.3772ZM37.1902 62.1976L39.7916 59.4038L31.5543 53.0711L33.0221 62.4544L37.1902 62.1976ZM41.6427 90.6605L43.7509 94.0599L46.2086 92.9467L45.8108 90.4037L41.6427 90.6605ZM36.8481 83.9877L33.2044 85.6381L35.3126 89.0374L38.9562 87.387L36.8481 83.9877ZM33.1258 77.9857L31.0177 74.5863L27.374 76.2367L29.4822 79.6361L33.1258 77.9857ZM54.5324 68.2898L58.176 66.6394L56.0678 63.2401L52.4242 64.8905L54.5324 68.2898ZM58.2546 74.2918L60.3628 77.6911L64.0064 76.0408L61.8983 72.6414L58.2546 74.2918ZM32.3627 94.8638L36.5528 94.7735L31.8533 50.9786L27.6632 51.0689L23.4732 51.1592L28.1727 94.9541L32.3627 94.8638ZM27.6632 51.0689L29.7714 54.4682L33.7567 52.6631L31.6485 49.2638L29.5403 45.8644L25.555 47.6695L27.6632 51.0689ZM31.6485 49.2638L29.2087 52.1764L68.9785 80.0866L71.4183 77.174L73.858 74.2614L34.0882 46.3512L31.6485 49.2638ZM71.4183 77.174L69.3101 73.7746L60.0301 77.9779L62.1383 81.3772L64.2465 84.7766L73.5264 80.5733L71.4183 77.174ZM62.1383 81.3772L64.7397 78.5834L39.7916 59.4038L37.1902 62.1976L34.5888 64.9915L59.5369 84.1711L62.1383 81.3772ZM37.1902 62.1976L33.0221 62.4544L37.4746 90.9173L41.6427 90.6605L45.8108 90.4037L41.3583 61.9408L37.1902 62.1976ZM41.6427 90.6605L39.5345 87.2612L30.2546 91.4645L32.3627 94.8638L34.4709 98.2632L43.7509 94.0599L41.6427 90.6605ZM36.8481 83.9877L40.4917 82.3373L36.7695 76.3353L33.1258 77.9857L29.4822 79.6361L33.2044 85.6381L36.8481 83.9877ZM33.1258 77.9857L35.234 81.3851L56.6405 71.6892L54.5324 68.2898L52.4242 64.8905L31.0177 74.5863L33.1258 77.9857ZM54.5324 68.2898L50.8887 69.9402L54.6109 75.9422L58.2546 74.2918L61.8983 72.6414L58.176 66.6394L54.5324 68.2898ZM58.2546 74.2918L56.1464 70.8924L34.7399 80.5883L36.8481 83.9877L38.9562 87.387L60.3628 77.6911L58.2546 74.2918Z" fill="black" mask="url(#path-1-outside-1_1_99)"/>
<mask id="path-3-outside-2_1_99" maskUnits="userSpaceOnUse" x="68.8921" y="31.5457" width="49.9054" height="48.0869" fill="black">
<rect fill="white" x="68.8921" y="31.5457" width="49.9054" height="48.0869"/>
<path d="M99.4636 70.8368C96.8081 71.5515 94.2469 71.6821 91.7801 71.2287C89.3536 70.7645 87.191 69.7565 85.2924 68.2047C83.4196 66.603 82.0006 64.4924 81.0353 61.873L74.5304 44.2209L82.3158 42.1255L88.3237 58.4288C89.1593 60.6964 90.3364 62.2704 91.855 63.1509C93.3994 63.9815 95.0567 64.1586 96.8271 63.6821C98.5974 63.2057 99.8168 62.2544 100.485 60.8282C101.18 59.3521 101.109 57.4802 100.273 55.2126L94.2656 38.9094L102.051 36.814L108.556 54.4661C109.521 57.0856 109.753 59.5156 109.252 61.7562C108.737 63.9577 107.62 65.8482 105.903 67.4278C104.225 68.9966 102.079 70.1329 99.4636 70.8368Z"/>
</mask>
<path d="M99.4636 70.8368C96.8081 71.5515 94.2469 71.6821 91.7801 71.2287C89.3536 70.7645 87.191 69.7565 85.2924 68.2047C83.4196 66.603 82.0006 64.4924 81.0353 61.873L74.5304 44.2209L82.3158 42.1255L88.3237 58.4288C89.1593 60.6964 90.3364 62.2704 91.855 63.1509C93.3994 63.9815 95.0567 64.1586 96.8271 63.6821C98.5974 63.2057 99.8168 62.2544 100.485 60.8282C101.18 59.3521 101.109 57.4802 100.273 55.2126L94.2656 38.9094L102.051 36.814L108.556 54.4661C109.521 57.0856 109.753 59.5156 109.252 61.7562C108.737 63.9577 107.62 65.8482 105.903 67.4278C104.225 68.9966 102.079 70.1329 99.4636 70.8368Z" fill="#E21E1E" fill-opacity="0.8"/>
<path d="M91.7801 71.2287L91.258 75.0447L91.2739 75.0477L91.2898 75.0507L91.7801 71.2287ZM85.2924 68.2047L82.6728 71.011L82.711 71.0436L82.75 71.0755L85.2924 68.2047ZM74.5304 44.2209L73.1473 40.4676L69.2847 41.5072L70.6678 45.2604L74.5304 44.2209ZM82.3158 42.1255L86.1784 41.0859L84.7953 37.3327L80.9327 38.3722L82.3158 42.1255ZM91.855 63.1509L89.9092 66.4344L89.9725 66.4711L90.0369 66.5058L91.855 63.1509ZM100.485 60.8282L96.7179 59.0272L96.7159 59.0315L100.485 60.8282ZM94.2656 38.9094L92.8825 35.1561L89.02 36.1957L90.4031 39.9489L94.2656 38.9094ZM102.051 36.814L105.914 35.7744L104.531 32.0212L100.668 33.0607L102.051 36.814ZM109.252 61.7562L113.261 62.8639L113.265 62.8466L113.269 62.8294L109.252 61.7562ZM105.903 67.4278L102.938 64.5357L102.927 64.5459L102.916 64.5562L105.903 67.4278ZM99.4636 70.8368L98.0805 67.0835C95.943 67.6588 94.0241 67.7291 92.2704 67.4068L91.7801 71.2287L91.2898 75.0507C94.4698 75.6352 97.6732 75.4442 100.847 74.5901L99.4636 70.8368ZM91.7801 71.2287L92.3022 67.4128C90.6048 67.088 89.1425 66.4028 87.8348 65.3339L85.2924 68.2047L82.75 71.0755C85.2395 73.1102 88.1023 74.441 91.258 75.0447L91.7801 71.2287ZM85.2924 68.2047L87.912 65.3985C86.6981 64.3603 85.6595 62.9002 84.8978 60.8334L81.0353 61.873L77.1727 62.9125C78.3417 66.0846 80.1412 68.8457 82.6728 71.011L85.2924 68.2047ZM81.0353 61.873L84.8978 60.8334L78.3929 43.1813L74.5304 44.2209L70.6678 45.2604L77.1727 62.9125L81.0353 61.873ZM74.5304 44.2209L75.9135 47.9741L83.6989 45.8788L82.3158 42.1255L80.9327 38.3722L73.1473 40.4676L74.5304 44.2209ZM82.3158 42.1255L78.4533 43.1651L84.4611 59.4683L88.3237 58.4288L92.1862 57.3892L86.1784 41.0859L82.3158 42.1255ZM88.3237 58.4288L84.4611 59.4683C85.4907 62.2622 87.1759 64.8496 89.9092 66.4344L91.855 63.1509L93.8007 59.8674C93.4969 59.6913 92.8279 59.1305 92.1862 57.3892L88.3237 58.4288ZM91.855 63.1509L90.0369 66.5058C92.6759 67.9251 95.4981 68.1653 98.2102 67.4354L96.8271 63.6821L95.444 59.9289C94.6154 60.1519 94.1228 60.038 93.673 59.7961L91.855 63.1509ZM96.8271 63.6821L98.2102 67.4354C100.921 66.7057 103.084 65.1217 104.255 62.6249L100.485 60.8282L96.7159 59.0315C96.5493 59.387 96.2733 59.7057 95.444 59.9289L96.8271 63.6821ZM100.485 60.8282L104.253 62.6291C105.502 59.9735 105.177 56.998 104.136 54.1731L100.273 55.2126L96.4109 56.2522C97.0412 57.9624 96.8574 58.7306 96.7179 59.0272L100.485 60.8282ZM100.273 55.2126L104.136 54.1731L98.1282 37.8698L94.2656 38.9094L90.4031 39.9489L96.4109 56.2522L100.273 55.2126ZM94.2656 38.9094L95.6487 42.6626L103.434 40.5673L102.051 36.814L100.668 33.0607L92.8825 35.1561L94.2656 38.9094ZM102.051 36.814L98.1885 37.8536L104.693 55.5057L108.556 54.4661L112.419 53.4265L105.914 35.7744L102.051 36.814ZM108.556 54.4661L104.693 55.5057C105.447 57.5501 105.559 59.2401 105.236 60.683L109.252 61.7562L113.269 62.8294C113.948 59.7911 113.596 56.621 112.419 53.4265L108.556 54.4661ZM109.252 61.7562L105.244 60.6485C104.894 62.1437 104.149 63.4224 102.938 64.5357L105.903 67.4278L108.867 70.32C111.092 68.2741 112.58 65.7717 113.261 62.8639L109.252 61.7562ZM105.903 67.4278L102.916 64.5562C101.74 65.6564 100.169 66.5214 98.0805 67.0835L99.4636 70.8368L100.847 74.5901C103.989 73.7445 106.711 72.3369 108.889 70.2995L105.903 67.4278Z" fill="black" mask="url(#path-3-outside-2_1_99)"/>
<mask id="path-5-outside-3_1_99" maskUnits="userSpaceOnUse" x="111.831" y="23.2919" width="59.0744" height="45.7544" fill="black">
<rect fill="white" x="111.831" y="23.2919" width="59.0744" height="45.7544"/>
<path d="M126.198 64.077L136.321 46.6453L121.545 32.8754L130.854 31.765L140.43 40.8101L146.742 29.87L156.051 28.7596L146.251 45.4609L161.572 59.8575L151.705 61.0346L142.112 51.1111L136.066 62.9L126.198 64.077Z"/>
</mask>
<path d="M126.198 64.077L136.321 46.6453L121.545 32.8754L130.854 31.765L140.43 40.8101L146.742 29.87L156.051 28.7596L146.251 45.4609L161.572 59.8575L151.705 61.0346L142.112 51.1111L136.066 62.9L126.198 64.077Z" fill="#E21E1E" fill-opacity="0.8"/>
<path d="M126.198 64.077L122.687 61.9921L118.614 69.0063L126.843 68.0247L126.198 64.077ZM136.321 46.6453L139.832 48.7303L141.401 46.0283L139.017 43.8065L136.321 46.6453ZM121.545 32.8754L120.9 28.9277L112.626 29.9147L118.849 35.7142L121.545 32.8754ZM130.854 31.765L133.571 28.9459L132.133 27.5879L130.209 27.8173L130.854 31.765ZM140.43 40.8101L137.713 43.6292L141.47 47.1778L143.946 42.8858L140.43 40.8101ZM146.742 29.87L146.097 25.9223L144.173 26.1517L143.225 27.7943L146.742 29.87ZM156.051 28.7596L159.553 30.859L163.68 23.8249L155.406 24.8119L156.051 28.7596ZM146.251 45.4609L142.749 43.3614L141.168 46.0562L143.542 48.2877L146.251 45.4609ZM161.572 59.8575L162.217 63.8052L170.446 62.8237L164.281 57.0307L161.572 59.8575ZM151.705 61.0346L148.851 63.7178L150.308 65.2257L152.35 64.9822L151.705 61.0346ZM142.112 51.1111L144.967 48.4279L141.005 44.3294L138.507 49.1983L142.112 51.1111ZM136.066 62.9L136.711 66.8477L138.752 66.6042L139.671 64.8128L136.066 62.9ZM126.198 64.077L129.709 66.162L139.832 48.7303L136.321 46.6453L132.811 44.5604L122.687 61.9921L126.198 64.077ZM136.321 46.6453L139.017 43.8065L124.241 30.0366L121.545 32.8754L118.849 35.7142L133.626 49.4841L136.321 46.6453ZM121.545 32.8754L122.19 36.8231L131.499 35.7127L130.854 31.765L130.209 27.8173L120.9 28.9277L121.545 32.8754ZM130.854 31.765L128.138 34.5842L137.713 43.6292L140.43 40.8101L143.147 37.991L133.571 28.9459L130.854 31.765ZM140.43 40.8101L143.946 42.8858L150.258 31.9456L146.742 29.87L143.225 27.7943L136.914 38.7344L140.43 40.8101ZM146.742 29.87L147.386 33.8176L156.695 32.7073L156.051 28.7596L155.406 24.8119L146.097 25.9223L146.742 29.87ZM156.051 28.7596L152.548 26.6601L142.749 43.3614L146.251 45.4609L149.753 47.5604L159.553 30.859L156.051 28.7596ZM146.251 45.4609L143.542 48.2877L158.864 62.6843L161.572 59.8575L164.281 57.0307L148.96 42.6341L146.251 45.4609ZM161.572 59.8575L160.928 55.9098L151.06 57.0869L151.705 61.0346L152.35 64.9822L162.217 63.8052L161.572 59.8575ZM151.705 61.0346L154.559 58.3513L144.967 48.4279L142.112 51.1111L139.258 53.7943L148.851 63.7178L151.705 61.0346ZM142.112 51.1111L138.507 49.1983L132.461 60.9872L136.066 62.9L139.671 64.8128L145.717 53.0239L142.112 51.1111ZM136.066 62.9L135.421 58.9523L125.553 60.1293L126.198 64.077L126.843 68.0247L136.711 66.8477L136.066 62.9Z" fill="black" mask="url(#path-5-outside-3_1_99)"/>
<mask id="path-7-outside-4_1_99" maskUnits="userSpaceOnUse" x="172.33" y="14.2669" width="39.4486" height="52.7463" fill="black">
<rect fill="white" x="172.33" y="14.2669" width="39.4486" height="52.7463"/>
<path d="M190.321 62.3589C187.863 62.3093 185.521 61.8452 183.295 60.9668C181.07 60.0468 179.14 58.9868 177.507 57.787L177.738 49.5402C179.533 50.91 181.564 52.0762 183.829 53.0388C186.137 54.0021 188.54 54.5091 191.039 54.5595C192.789 54.5948 194.237 54.2281 195.384 53.4595C196.573 52.6917 197.186 51.6205 197.225 50.2461C197.245 49.538 197.012 48.9082 196.528 48.3567C196.086 47.7643 195.496 47.2523 194.757 46.8207C194.062 46.3482 193.302 45.9578 192.477 45.6495L186.111 43.0206C183.968 42.1438 182.309 41.1102 181.133 39.9196C179.958 38.729 179.14 37.4206 178.68 35.9944C178.262 34.5274 178.077 32.9817 178.122 31.3574C178.194 28.775 178.944 26.5606 180.371 24.7141C181.841 22.8268 183.716 21.3852 185.995 20.3893C188.315 19.3943 190.767 18.9228 193.349 18.975C195.807 19.0246 198.027 19.4027 200.007 20.1095C201.988 20.8163 203.633 21.6204 204.942 22.522L204.711 30.7687C203.238 29.7805 201.595 28.8931 199.783 28.1064C198.014 27.2789 196.047 26.8432 193.88 26.7995C192.797 26.7777 191.751 26.9441 190.74 27.2988C189.73 27.6534 188.882 28.1781 188.195 28.8727C187.551 29.5681 187.213 30.4573 187.183 31.5402C187.144 32.9147 187.718 33.9889 188.906 34.763C190.094 35.4955 191.552 36.2542 193.281 37.0392L198.22 39.2642C201.143 40.5734 203.268 42.0957 204.595 43.8312C205.964 45.5257 206.615 47.5809 206.548 49.9966C206.478 52.4956 205.687 54.6884 204.175 56.5749C202.706 58.4206 200.749 59.8605 198.302 60.8946C195.897 61.9296 193.237 62.4177 190.321 62.3589Z"/>
</mask>
<path d="M190.321 62.3589C187.863 62.3093 185.521 61.8452 183.295 60.9668C181.07 60.0468 179.14 58.9868 177.507 57.787L177.738 49.5402C179.533 50.91 181.564 52.0762 183.829 53.0388C186.137 54.0021 188.54 54.5091 191.039 54.5595C192.789 54.5948 194.237 54.2281 195.384 53.4595C196.573 52.6917 197.186 51.6205 197.225 50.2461C197.245 49.538 197.012 48.9082 196.528 48.3567C196.086 47.7643 195.496 47.2523 194.757 46.8207C194.062 46.3482 193.302 45.9578 192.477 45.6495L186.111 43.0206C183.968 42.1438 182.309 41.1102 181.133 39.9196C179.958 38.729 179.14 37.4206 178.68 35.9944C178.262 34.5274 178.077 32.9817 178.122 31.3574C178.194 28.775 178.944 26.5606 180.371 24.7141C181.841 22.8268 183.716 21.3852 185.995 20.3893C188.315 19.3943 190.767 18.9228 193.349 18.975C195.807 19.0246 198.027 19.4027 200.007 20.1095C201.988 20.8163 203.633 21.6204 204.942 22.522L204.711 30.7687C203.238 29.7805 201.595 28.8931 199.783 28.1064C198.014 27.2789 196.047 26.8432 193.88 26.7995C192.797 26.7777 191.751 26.9441 190.74 27.2988C189.73 27.6534 188.882 28.1781 188.195 28.8727C187.551 29.5681 187.213 30.4573 187.183 31.5402C187.144 32.9147 187.718 33.9889 188.906 34.763C190.094 35.4955 191.552 36.2542 193.281 37.0392L198.22 39.2642C201.143 40.5734 203.268 42.0957 204.595 43.8312C205.964 45.5257 206.615 47.5809 206.548 49.9966C206.478 52.4956 205.687 54.6884 204.175 56.5749C202.706 58.4206 200.749 59.8605 198.302 60.8946C195.897 61.9296 193.237 62.4177 190.321 62.3589Z" fill="#FFB132"/>
<path d="M183.295 60.9668L181.741 64.6642L181.771 64.6765L181.801 64.6883L183.295 60.9668ZM177.507 57.787L173.507 57.7063L173.449 59.7881L175.121 61.0164L177.507 57.787ZM177.738 49.5402L180.18 46.354L173.958 41.6075L173.738 49.4595L177.738 49.5402ZM183.829 53.0388L182.24 56.7212L182.251 56.7261L182.263 56.7308L183.829 53.0388ZM195.384 53.4595L193.231 50.1056L193.203 50.1241L193.174 50.1431L195.384 53.4595ZM196.528 48.3567L193.314 50.7635L193.408 50.8905L193.513 51.0094L196.528 48.3567ZM194.757 46.8207L192.491 50.1338L192.602 50.2091L192.717 50.2767L194.757 46.8207ZM192.477 45.6495L190.925 49.3475L190.987 49.3732L191.05 49.3968L192.477 45.6495ZM186.111 43.0206L187.663 39.3225L187.651 39.3176L186.111 43.0206ZM178.68 35.9944L174.831 37.1163L174.85 37.183L174.871 37.2491L178.68 35.9944ZM180.371 24.7141L177.222 22.2726L177.217 22.2785L177.213 22.2845L180.371 24.7141ZM185.995 20.3893L184.442 16.7159L184.429 16.7214L184.416 16.727L185.995 20.3893ZM204.942 22.522L208.941 22.6027L209.001 20.4441L207.23 19.2234L204.942 22.522ZM204.711 30.7687L202.463 34.0947L208.505 38.1488L208.71 30.8494L204.711 30.7687ZM199.783 28.1064L198.065 31.731L198.115 31.7545L198.165 31.7765L199.783 28.1064ZM188.195 28.8727L185.36 26.0735L185.314 26.1194L185.271 26.1667L188.195 28.8727ZM188.906 34.763L186.701 38.1177L186.744 38.1452L186.786 38.1716L188.906 34.763ZM193.281 37.0392L191.603 40.6826L191.614 40.6875L193.281 37.0392ZM198.22 39.2642L196.553 42.9126L196.561 42.916L198.22 39.2642ZM204.595 43.8312L201.409 46.2753L201.441 46.3177L201.475 46.3592L204.595 43.8312ZM204.175 56.5749L201.06 54.0895L201.052 54.1001L204.175 56.5749ZM198.302 60.8946L196.768 57.213L196.756 57.2181L196.744 57.2233L198.302 60.8946ZM190.321 62.3589L190.433 58.3604C188.437 58.3201 186.564 57.9459 184.789 57.2454L183.295 60.9668L181.801 64.6883C184.478 65.7446 187.289 66.2984 190.209 66.3573L190.321 62.3589ZM183.295 60.9668L184.849 57.2695C182.865 56.4496 181.226 55.5375 179.892 54.5576L177.507 57.787L175.121 61.0164C177.055 62.4362 179.274 63.644 181.741 64.6642L183.295 60.9668ZM177.507 57.787L181.506 57.8677L181.737 49.621L177.738 49.5402L173.738 49.4595L173.507 57.7063L177.507 57.787ZM177.738 49.5402L175.295 52.7265C177.375 54.3134 179.697 55.6408 182.24 56.7212L183.829 53.0388L185.419 49.3563C183.431 48.5117 181.691 47.5067 180.18 46.354L177.738 49.5402ZM183.829 53.0388L182.263 56.7308C185.029 57.886 187.926 58.4974 190.927 58.5579L191.039 54.5595L191.151 50.5611C189.154 50.5208 187.244 50.1183 185.396 49.3467L183.829 53.0388ZM191.039 54.5595L190.927 58.5579C193.276 58.6053 195.594 58.1163 197.594 56.7759L195.384 53.4595L193.174 50.1431C192.881 50.3399 192.302 50.5843 191.151 50.5611L191.039 54.5595ZM195.384 53.4595L197.537 56.8134C199.809 55.3455 201.147 53.0663 201.224 50.3268L197.225 50.2461L193.226 50.1654C193.224 50.2253 193.217 50.2389 193.223 50.2184C193.226 50.2086 193.23 50.1933 193.238 50.1739C193.246 50.1544 193.256 50.1339 193.268 50.1135C193.279 50.0932 193.291 50.076 193.301 50.0625C193.312 50.049 193.319 50.0414 193.321 50.0395C193.325 50.0354 193.302 50.0603 193.231 50.1056L195.384 53.4595ZM197.225 50.2461L201.224 50.3268C201.273 48.5694 200.658 46.9741 199.542 45.7039L196.528 48.3567L193.513 51.0094C193.465 50.9549 193.378 50.8358 193.311 50.6527C193.242 50.4669 193.222 50.293 193.226 50.1654L197.225 50.2461ZM196.528 48.3567L199.741 45.9498C198.937 44.8714 197.923 44.0224 196.798 43.3646L194.757 46.8207L192.717 50.2767C193.069 50.4822 193.234 50.6572 193.314 50.7635L196.528 48.3567ZM194.757 46.8207L197.024 43.5076C196.055 42.8494 195.011 42.3162 193.904 41.9022L192.477 45.6495L191.05 49.3968C191.592 49.5995 192.069 49.8471 192.491 50.1338L194.757 46.8207ZM192.477 45.6495L194.029 41.9514L187.663 39.3225L186.111 43.0206L184.559 46.7186L190.925 49.3475L192.477 45.6495ZM186.111 43.0206L187.651 39.3176C185.826 38.5711 184.678 37.7943 183.992 37.0992L181.133 39.9196L178.275 42.74C179.939 44.4261 182.11 45.7166 184.571 46.7235L186.111 43.0206ZM181.133 39.9196L183.992 37.0992C183.199 36.2962 182.737 35.5099 182.488 34.7398L178.68 35.9944L174.871 37.2491C175.543 39.3313 176.717 41.1618 178.275 42.74L181.133 39.9196ZM178.68 35.9944L182.529 34.8726C182.229 33.8199 182.086 32.6815 182.121 31.4381L178.122 31.3574L174.123 31.2767C174.067 33.282 174.296 35.235 174.831 37.1163L178.68 35.9944ZM178.122 31.3574L182.121 31.4381C182.172 29.6071 182.683 28.2399 183.53 27.1437L180.371 24.7141L177.213 22.2845C175.205 24.8814 174.216 27.943 174.123 31.2767L178.122 31.3574ZM180.371 24.7141L183.521 27.1556C184.56 25.8215 185.885 24.7892 187.573 24.0517L185.995 20.3893L184.416 16.727C181.546 17.9811 179.123 19.832 177.222 22.2726L180.371 24.7141ZM185.995 20.3893L187.547 24.0627C189.327 23.2994 191.21 22.9325 193.237 22.9734L193.349 18.975L193.461 14.9765C190.323 14.9132 187.302 15.4891 184.442 16.7159L185.995 20.3893ZM193.349 18.975L193.237 22.9734C195.335 23.0157 197.12 23.3363 198.637 23.8772L200.007 20.1095L201.378 16.3418C198.933 15.4692 196.279 15.0334 193.461 14.9765L193.349 18.975ZM200.007 20.1095L198.637 23.8772C200.39 24.5028 201.703 25.1656 202.654 25.8206L204.942 22.522L207.23 19.2234C205.563 18.0752 203.587 17.1297 201.378 16.3418L200.007 20.1095ZM204.942 22.522L200.942 22.4413L200.711 30.688L204.711 30.7687L208.71 30.8494L208.941 22.6027L204.942 22.522ZM204.711 30.7687L206.958 27.4427C205.266 26.3071 203.409 25.3078 201.401 24.4362L199.783 28.1064L198.165 31.7765C199.782 32.4783 201.21 33.254 202.463 34.0947L204.711 30.7687ZM199.783 28.1064L201.502 24.4817C199.179 23.3951 196.656 22.8548 193.992 22.8011L193.88 26.7995L193.768 30.798C195.437 30.8316 196.849 31.1626 198.065 31.731L199.783 28.1064ZM193.88 26.7995L193.992 22.8011C192.437 22.7697 190.912 23.0103 189.441 23.5266L190.74 27.2988L192.04 31.0709C192.59 30.8779 193.158 30.7856 193.768 30.798L193.88 26.7995ZM190.74 27.2988L189.441 23.5266C187.909 24.0642 186.519 24.9005 185.36 26.0735L188.195 28.8727L191.031 31.6718C191.244 31.4556 191.551 31.2426 192.04 31.0709L190.74 27.2988ZM188.195 28.8727L185.271 26.1667C183.864 27.6845 183.237 29.5547 183.183 31.4595L187.183 31.5402L191.182 31.6209C191.184 31.5423 191.191 31.4927 191.196 31.4677C191.2 31.4432 191.203 31.4407 191.198 31.4543C191.192 31.4685 191.182 31.4913 191.166 31.5177C191.149 31.5443 191.132 31.565 191.12 31.5786L188.195 28.8727ZM187.183 31.5402L183.183 31.4595C183.105 34.2737 184.408 36.622 186.701 38.1177L188.906 34.763L191.11 31.4084C191.042 31.3639 191.025 31.3431 191.037 31.3559C191.051 31.3707 191.084 31.4091 191.116 31.4705C191.149 31.5323 191.168 31.5902 191.177 31.6311C191.186 31.6697 191.18 31.6707 191.182 31.6209L187.183 31.5402ZM188.906 34.763L186.786 38.1716C188.156 39.0162 189.772 39.8513 191.603 40.6825L193.281 37.0392L194.959 33.3959C193.332 32.6571 192.031 31.9748 191.025 31.3544L188.906 34.763ZM193.281 37.0392L191.614 40.6875L196.553 42.9126L198.22 39.2642L199.888 35.6159L194.948 33.3909L193.281 37.0392ZM198.22 39.2642L196.561 42.916C199.141 44.072 200.625 45.25 201.409 46.2753L204.595 43.8312L207.78 41.387C205.911 38.9415 203.145 37.0749 199.88 35.6125L198.22 39.2642ZM204.595 43.8312L201.475 46.3592C202.187 47.24 202.593 48.3425 202.549 49.9159L206.548 49.9966L210.547 50.0773C210.638 46.8194 209.742 43.8115 207.714 41.3031L204.595 43.8312ZM206.548 49.9966L202.549 49.9159C202.502 51.5761 202.001 52.9159 201.06 54.0895L204.175 56.5749L207.29 59.0603C209.373 56.4609 210.453 53.4152 210.547 50.0773L206.548 49.9966ZM204.175 56.5749L201.052 54.1001C200.055 55.3527 198.673 56.4079 196.768 57.213L198.302 60.8946L199.836 64.5763C202.824 63.3131 205.358 61.4884 207.298 59.0497L204.175 56.5749ZM198.302 60.8946L196.744 57.2233C194.926 58.0059 192.844 58.4091 190.433 58.3604L190.321 62.3589L190.209 66.3573C193.63 66.4263 196.868 65.8534 199.86 64.566L198.302 60.8946Z" fill="black" mask="url(#path-7-outside-4_1_99)"/>
<mask id="path-9-outside-5_1_99" maskUnits="userSpaceOnUse" x="204.927" y="23.8805" width="61.3146" height="61.7157" fill="black">
<rect fill="white" x="204.927" y="23.8805" width="61.3146" height="61.7157"/>
<path d="M216.407 75.3863L233.694 55.1892L249.114 33.6137L258.058 35.0697L225.29 76.8322L216.407 75.3863ZM230.123 62.3204L222.464 29.276L231.594 30.7621L237.274 57.4789L230.123 62.3204Z"/>
</mask>
<path d="M216.407 75.3863L233.694 55.1892L249.114 33.6137L258.058 35.0697L225.29 76.8322L216.407 75.3863ZM230.123 62.3204L222.464 29.276L231.594 30.7621L237.274 57.4789L230.123 62.3204Z" fill="#FFB132"/>
<path d="M216.407 75.3863L213.366 72.943L208.863 78.2042L215.537 79.2905L216.407 75.3863ZM233.694 55.1892L236.735 57.6325L236.857 57.49L236.965 57.3378L233.694 55.1892ZM249.114 33.6137L249.984 29.7095L247.397 29.2885L245.842 31.4651L249.114 33.6137ZM258.058 35.0697L261.216 37.3715L265.274 32.1984L258.929 31.1655L258.058 35.0697ZM225.29 76.8322L224.42 80.7364L226.876 81.1362L228.447 79.1339L225.29 76.8322ZM230.123 62.3204L226.177 63.3907L227.437 68.8266L232.299 65.5355L230.123 62.3204ZM222.464 29.276L223.334 25.3718L217.132 24.3623L218.519 30.3464L222.464 29.276ZM231.594 30.7621L235.554 29.7585L235.026 27.2749L232.464 26.8579L231.594 30.7621ZM237.274 57.4789L239.451 60.694L241.794 59.1078L241.235 56.4753L237.274 57.4789ZM216.407 75.3863L219.448 77.8295L236.735 57.6325L233.694 55.1892L230.652 52.7459L213.366 72.943L216.407 75.3863ZM233.694 55.1892L236.965 57.3378L252.386 35.7623L249.114 33.6137L245.842 31.4651L230.422 53.0406L233.694 55.1892ZM249.114 33.6137L248.244 37.518L257.188 38.9739L258.058 35.0697L258.929 31.1655L249.984 29.7095L249.114 33.6137ZM258.058 35.0697L254.901 32.7679L222.133 74.5304L225.29 76.8322L228.447 79.1339L261.216 37.3715L258.058 35.0697ZM225.29 76.8322L226.16 72.9279L217.277 71.482L216.407 75.3863L215.537 79.2905L224.42 80.7364L225.29 76.8322ZM230.123 62.3204L234.068 61.25L226.41 28.2057L222.464 29.276L218.519 30.3464L226.177 63.3907L230.123 62.3204ZM222.464 29.276L221.594 33.1803L230.724 34.6663L231.594 30.7621L232.464 26.8579L223.334 25.3718L222.464 29.276ZM231.594 30.7621L227.634 31.7657L233.314 58.4826L237.274 57.4789L241.235 56.4753L235.554 29.7585L231.594 30.7621ZM237.274 57.4789L235.098 54.2638L227.946 59.1053L230.123 62.3204L232.299 65.5355L239.451 60.694L237.274 57.4789Z" fill="black" mask="url(#path-9-outside-5_1_99)"/>
<mask id="path-11-outside-6_1_99" maskUnits="userSpaceOnUse" x="254.809" y="32.0635" width="52.6557" height="49.1391" fill="black">
<rect fill="white" x="254.809" y="32.0635" width="52.6557" height="49.1391"/>
<path d="M280.939 73.8028L288.234 57.0131C289.087 55.067 289.227 53.4581 288.654 52.1864C288.12 50.9274 286.999 50.0246 285.293 49.4781C283.944 49.046 282.51 49.0654 280.991 49.5363C279.472 50.0072 278.025 50.6752 276.65 51.5404L279.487 45.0725C280.473 44.4745 281.562 43.9528 282.753 43.5074C284 43.0366 285.299 42.7565 286.651 42.6672C288.019 42.5397 289.378 42.692 290.727 43.1241C292.791 43.7851 294.443 44.8149 295.685 46.2136C296.927 47.6124 297.611 49.3546 297.737 51.4404C297.92 53.5007 297.434 55.8473 296.279 58.4803L288.498 76.224L280.939 73.8028ZM261.058 67.4352L273.735 38.5302L281.294 40.9514L268.618 69.8564L261.058 67.4352Z"/>
</mask>
<path d="M280.939 73.8028L288.234 57.0131C289.087 55.067 289.227 53.4581 288.654 52.1864C288.12 50.9274 286.999 50.0246 285.293 49.4781C283.944 49.046 282.51 49.0654 280.991 49.5363C279.472 50.0072 278.025 50.6752 276.65 51.5404L279.487 45.0725C280.473 44.4745 281.562 43.9528 282.753 43.5074C284 43.0366 285.299 42.7565 286.651 42.6672C288.019 42.5397 289.378 42.692 290.727 43.1241C292.791 43.7851 294.443 44.8149 295.685 46.2136C296.927 47.6124 297.611 49.3546 297.737 51.4404C297.92 53.5007 297.434 55.8473 296.279 58.4803L288.498 76.224L280.939 73.8028ZM261.058 67.4352L273.735 38.5302L281.294 40.9514L268.618 69.8564L261.058 67.4352Z" fill="#FFB132"/>
<path d="M280.939 73.8028L277.124 72.5952L275.536 76.25L279.332 77.466L280.939 73.8028ZM288.234 57.0131L284.424 55.7929L284.419 55.8054L288.234 57.0131ZM288.654 52.1864L284.793 53.8431L284.808 53.8787L284.824 53.9139L288.654 52.1864ZM276.65 51.5404L272.841 50.3202L267.934 61.51L278.772 54.6906L276.65 51.5404ZM279.487 45.0725L277.43 41.8819L276.22 42.6159L275.677 43.8524L279.487 45.0725ZM282.753 43.5074L284.027 47.0774L284.04 47.0723L282.753 43.5074ZM286.651 42.6672L286.623 46.5186L286.683 46.5146L286.743 46.509L286.651 42.6672ZM297.737 51.4404L293.61 51.9546L293.613 52.004L293.617 52.0531L297.737 51.4404ZM288.498 76.224L286.891 79.8872L290.701 81.1073L292.307 77.4441L288.498 76.224ZM261.058 67.4352L257.249 66.2151L255.643 69.8783L259.452 71.0985L261.058 67.4352ZM273.735 38.5302L275.341 34.867L271.532 33.6469L269.925 37.3101L273.735 38.5302ZM281.294 40.9514L285.103 42.1715L286.71 38.5083L282.901 37.2882L281.294 40.9514ZM268.618 69.8564L267.011 73.5196L270.821 74.7398L272.427 71.0766L268.618 69.8564ZM280.939 73.8028L284.753 75.0104L292.049 58.2207L288.234 57.0131L284.419 55.8054L277.124 72.5952L280.939 73.8028ZM288.234 57.0131L292.043 58.2332C293.134 55.7469 293.623 52.9855 292.483 50.4589L288.654 52.1864L284.824 53.9139C284.831 53.9306 285.041 54.387 284.424 55.7929L288.234 57.0131ZM288.654 52.1864L292.514 50.5297C291.485 48.1022 289.377 46.6084 286.9 45.8149L285.293 49.4781L283.687 53.1413C284.622 53.4409 284.755 53.7526 284.793 53.8431L288.654 52.1864ZM285.293 49.4781L286.9 45.8149C284.659 45.0971 282.296 45.1588 279.969 45.8804L280.991 49.5363L282.014 53.1922C282.724 52.9719 283.229 52.9948 283.687 53.1413L285.293 49.4781ZM280.991 49.5363L279.969 45.8804C278.055 46.4738 276.238 47.3143 274.528 48.3901L276.65 51.5404L278.772 54.6906C279.812 54.0361 280.89 53.5406 282.014 53.1922L280.991 49.5363ZM276.65 51.5404L280.46 52.7605L283.296 46.2926L279.487 45.0725L275.677 43.8524L272.841 50.3202L276.65 51.5404ZM279.487 45.0725L281.543 48.2631C282.258 47.8298 283.081 47.4311 284.027 47.0773L282.753 43.5074L281.479 39.9375C280.043 40.4746 278.688 41.1193 277.43 41.8819L279.487 45.0725ZM282.753 43.5074L284.04 47.0723C284.85 46.7665 285.705 46.5793 286.623 46.5186L286.651 42.6672L286.679 38.8158C284.894 38.9337 283.15 39.3067 281.465 39.9425L282.753 43.5074ZM286.651 42.6672L286.743 46.509C287.489 46.4395 288.27 46.5151 289.121 46.7874L290.727 43.1241L292.334 39.4609C290.485 38.869 288.55 38.6399 286.559 38.8254L286.651 42.6672ZM290.727 43.1241L289.121 46.7874C290.602 47.2619 291.658 47.9527 292.42 48.8115L295.685 46.2136L298.95 43.6157C297.229 41.677 294.979 40.3082 292.334 39.4609L290.727 43.1241ZM295.685 46.2136L292.42 48.8115C293.09 49.5655 293.525 50.5543 293.61 51.9546L297.737 51.4404L301.865 50.9261C301.698 48.1549 300.765 45.6592 298.95 43.6157L295.685 46.2136ZM297.737 51.4404L293.617 52.0531C293.73 53.3307 293.448 55.0304 292.47 57.2601L296.279 58.4803L300.089 59.7004C301.42 56.6642 302.11 53.6707 301.858 50.8276L297.737 51.4404ZM296.279 58.4803L292.47 57.2601L284.688 75.0038L288.498 76.224L292.307 77.4441L300.089 59.7004L296.279 58.4803ZM288.498 76.224L290.104 72.5607L282.545 70.1396L280.939 73.8028L279.332 77.466L286.891 79.8872L288.498 76.224ZM261.058 67.4352L264.868 68.6554L277.544 39.7503L273.735 38.5302L269.925 37.3101L257.249 66.2151L261.058 67.4352ZM273.735 38.5302L272.128 42.1934L279.687 44.6146L281.294 40.9514L282.901 37.2882L275.341 34.867L273.735 38.5302ZM281.294 40.9514L277.485 39.7313L264.808 68.6363L268.618 69.8564L272.427 71.0766L285.103 42.1715L281.294 40.9514ZM268.618 69.8564L270.224 66.1932L262.665 63.772L261.058 67.4352L259.452 71.0985L267.011 73.5196L268.618 69.8564Z" fill="black" mask="url(#path-11-outside-6_1_99)"/>
<mask id="path-13-outside-7_1_99" maskUnits="userSpaceOnUse" x="294.136" y="46.3041" width="54.7001" height="50.2573" fill="black">
<rect fill="white" x="294.136" y="46.3041" width="54.7001" height="50.2573"/>
<path d="M315.509 87.1866C313.371 86.1523 311.624 84.8259 310.27 83.2073C308.952 81.6068 308.044 79.8374 307.545 77.8988C307.046 75.9603 306.974 73.9759 307.328 71.9456C307.72 69.9335 308.526 68.0069 309.745 66.1658C310.965 64.3247 312.483 62.7428 314.3 61.4202C316.155 60.1157 318.183 59.1474 320.384 58.5153C322.609 57.8485 324.875 57.5685 327.181 57.6752C329.525 57.8001 331.766 58.3797 333.904 59.414C336.042 60.4483 337.561 61.5956 338.459 62.8559C339.395 64.1344 340.062 65.2595 340.458 66.231L336.42 72.3275C335.882 71.1957 335.144 70.1046 334.205 69.0542C333.304 68.022 331.972 67.0795 330.209 66.2266C328.784 65.5371 327.234 65.223 325.559 65.2842C323.921 65.3636 322.378 65.7867 320.929 66.5535C319.48 67.3204 318.284 68.4159 317.341 69.8401C316.397 71.2644 315.895 72.6956 315.834 74.1338C315.773 75.572 316.124 76.9115 316.887 78.1521C317.71 79.3762 318.872 80.3511 320.373 81.0769C322.136 81.9297 323.767 82.4207 325.266 82.5497C326.803 82.6969 328.266 82.6938 329.656 82.5403L325.652 88.5846C324.45 88.8288 322.978 88.9196 321.237 88.8569C319.556 88.7776 317.647 88.2209 315.509 87.1866Z"/>
</mask>
<path d="M315.509 87.1866C313.371 86.1523 311.624 84.8259 310.27 83.2073C308.952 81.6068 308.044 79.8374 307.545 77.8988C307.046 75.9603 306.974 73.9759 307.328 71.9456C307.72 69.9335 308.526 68.0069 309.745 66.1658C310.965 64.3247 312.483 62.7428 314.3 61.4202C316.155 60.1157 318.183 59.1474 320.384 58.5153C322.609 57.8485 324.875 57.5685 327.181 57.6752C329.525 57.8001 331.766 58.3797 333.904 59.414C336.042 60.4483 337.561 61.5956 338.459 62.8559C339.395 64.1344 340.062 65.2595 340.458 66.231L336.42 72.3275C335.882 71.1957 335.144 70.1046 334.205 69.0542C333.304 68.022 331.972 67.0795 330.209 66.2266C328.784 65.5371 327.234 65.223 325.559 65.2842C323.921 65.3636 322.378 65.7867 320.929 66.5535C319.48 67.3204 318.284 68.4159 317.341 69.8401C316.397 71.2644 315.895 72.6956 315.834 74.1338C315.773 75.572 316.124 76.9115 316.887 78.1521C317.71 79.3762 318.872 80.3511 320.373 81.0769C322.136 81.9297 323.767 82.4207 325.266 82.5497C326.803 82.6969 328.266 82.6938 329.656 82.5403L325.652 88.5846C324.45 88.8288 322.978 88.9196 321.237 88.8569C319.556 88.7776 317.647 88.2209 315.509 87.1866Z" fill="#FFB132"/>
<path d="M310.27 83.2073L306.803 85.5643L306.812 85.5753L306.821 85.5863L310.27 83.2073ZM307.328 71.9456L303.167 71.5533L303.161 71.5868L303.155 71.6203L307.328 71.9456ZM314.3 61.4202L311.826 58.5296L311.795 58.5512L311.765 58.5732L314.3 61.4202ZM320.384 58.5153L321.425 62.0894L321.452 62.0815L321.479 62.0734L320.384 58.5153ZM327.181 57.6752L327.722 53.9195L327.705 53.9187L327.689 53.9179L327.181 57.6752ZM338.459 62.8559L334.848 65.0248L334.861 65.0423L334.873 65.0596L338.459 62.8559ZM340.458 66.231L344.059 67.973L345.113 66.382L344.441 64.7351L340.458 66.231ZM336.42 72.3275L332.512 73.9922L335.671 80.6367L340.021 74.0694L336.42 72.3275ZM334.205 69.0542L330.803 71.4882L330.817 71.5034L330.83 71.5185L334.205 69.0542ZM325.559 65.2842L325.676 61.525L325.648 61.5261L325.62 61.5275L325.559 65.2842ZM316.887 78.1521L313.149 80.1302L313.185 80.1886L313.223 80.2456L316.887 78.1521ZM325.266 82.5497L326.001 78.8085L325.979 78.8064L325.957 78.8045L325.266 82.5497ZM329.656 82.5403L333.256 84.2822L337.472 77.9175L329.422 78.8069L329.656 82.5403ZM325.652 88.5846L326.318 92.2502L328.237 91.8603L329.253 90.3265L325.652 88.5846ZM321.237 88.8569L320.725 92.614L320.751 92.6153L320.777 92.6162L321.237 88.8569ZM315.509 87.1866L317.718 83.8518C316.033 83.0369 314.72 82.0254 313.718 80.8283L310.27 83.2073L306.821 85.5863C308.528 87.6264 310.708 89.2678 313.3 90.5214L315.509 87.1866ZM310.27 83.2073L313.737 80.8503C312.727 79.6232 312.044 78.2871 311.667 76.8218L307.545 77.8988L303.424 78.9759C304.045 81.3876 305.178 83.5905 306.803 85.5643L310.27 83.2073ZM307.545 77.8988L311.667 76.8218C311.285 75.3409 311.229 73.8325 311.502 72.271L307.328 71.9456L303.155 71.6203C302.719 74.1194 302.807 76.5798 303.424 78.9759L307.545 77.8988ZM307.328 71.9456L311.489 72.3379C311.787 70.8099 312.397 69.34 313.346 67.9077L309.745 66.1658L306.144 64.4238C304.654 66.6737 303.653 69.057 303.167 71.5533L307.328 71.9456ZM309.745 66.1658L313.346 67.9077C314.295 66.4754 315.455 65.2716 316.835 64.2672L314.3 61.4202L311.765 58.5732C309.511 60.214 307.635 62.174 306.144 64.4238L309.745 66.1658ZM314.3 61.4202L316.774 64.3107C318.201 63.3074 319.743 62.5722 321.425 62.0894L320.384 58.5153L319.344 54.9413C316.623 55.7226 314.109 56.9239 311.826 58.5296L314.3 61.4202ZM320.384 58.5153L321.479 62.0734C323.177 61.5644 324.899 61.3504 326.674 61.4326L327.181 57.6752L327.689 53.9179C324.851 53.7866 322.041 54.1326 319.29 54.9573L320.384 58.5153ZM327.181 57.6752L326.641 61.431C328.358 61.5224 330.034 61.9451 331.696 62.7488L333.904 59.414L336.113 56.0792C333.499 54.8143 330.693 54.0778 327.722 53.9195L327.181 57.6752ZM333.904 59.414L331.696 62.7488C333.499 63.6214 334.419 64.4232 334.848 65.0248L338.459 62.8559L342.07 60.687C340.702 58.7679 338.585 57.2751 336.113 56.0792L333.904 59.414ZM338.459 62.8559L334.873 65.0596C335.718 66.2136 336.218 67.0946 336.476 67.727L340.458 66.231L344.441 64.7351C343.906 63.4243 343.073 62.0552 342.045 60.6522L338.459 62.8559ZM340.458 66.231L336.857 64.4891L332.819 70.5855L336.42 72.3275L340.021 74.0694L344.059 67.973L340.458 66.231ZM336.42 72.3275L340.328 70.6627C339.64 69.2154 338.714 67.8588 337.58 66.59L334.205 69.0542L330.83 71.5185C331.574 72.3504 332.124 73.176 332.512 73.9922L336.42 72.3275ZM334.205 69.0542L337.607 66.6203C336.289 65.1104 334.488 63.8934 332.418 62.8919L330.209 66.2266L328 69.5614C329.456 70.2655 330.319 70.9336 330.803 71.4882L334.205 69.0542ZM330.209 66.2266L332.418 62.8919C330.361 61.8966 328.089 61.4368 325.676 61.525L325.559 65.2842L325.441 69.0434C326.378 69.0091 327.207 69.1777 328 69.5614L330.209 66.2266ZM325.559 65.2842L325.62 61.5275C323.276 61.6411 321.035 62.2555 318.961 63.3532L320.929 66.5535L322.898 69.7539C323.721 69.3179 324.567 69.0861 325.498 69.041L325.559 65.2842ZM320.929 66.5535L318.961 63.3532C316.773 64.5109 315.039 66.1375 313.74 68.0982L317.341 69.8401L320.941 71.5821C321.529 70.6943 322.187 70.1299 322.898 69.7539L320.929 66.5535ZM317.341 69.8401L313.74 68.0982C312.462 70.027 311.704 72.0937 311.613 74.2505L315.834 74.1338L320.055 74.0171C320.086 73.2975 320.332 72.5018 320.941 71.5821L317.341 69.8401ZM315.834 74.1338L311.613 74.2505C311.523 76.3569 312.046 78.3369 313.149 80.1302L316.887 78.1521L320.624 76.174C320.201 75.486 320.022 74.7871 320.055 74.0171L315.834 74.1338ZM316.887 78.1521L313.223 80.2456C314.422 82.0263 316.101 83.4137 318.164 84.4117L320.373 81.0769L322.582 77.7421C321.644 77.2885 320.999 76.7261 320.55 76.0586L316.887 78.1521ZM320.373 81.0769L318.164 84.4117C320.234 85.4133 322.382 86.1062 324.575 86.2949L325.266 82.5497L325.957 78.8045C325.152 78.7352 324.037 78.4462 322.582 77.7421L320.373 81.0769ZM325.266 82.5497L324.531 86.2909C326.349 86.4651 328.139 86.467 329.889 86.2736L329.656 82.5403L329.422 78.8069C328.393 78.9206 327.257 78.9288 326.001 78.8085L325.266 82.5497ZM329.656 82.5403L326.055 80.7984L322.051 86.8427L325.652 88.5846L329.253 90.3265L333.256 84.2822L329.656 82.5403ZM325.652 88.5846L324.986 84.919C324.28 85.0624 323.213 85.1522 321.697 85.0976L321.237 88.8569L320.777 92.6162C322.744 92.687 324.62 92.5953 326.318 92.2502L325.652 88.5846ZM321.237 88.8569L321.749 85.0998C320.888 85.0592 319.566 84.7461 317.718 83.8518L315.509 87.1866L313.3 90.5214C315.727 91.6956 318.225 92.4961 320.725 92.614L321.237 88.8569Z" fill="black" mask="url(#path-13-outside-7_1_99)"/>
</svg>
