<svg width="17" height="21" viewBox="0 0 17 21" fill="none" xmlns="http://www.w3.org/2000/svg">
<path fill-rule="evenodd" clip-rule="evenodd" d="M10.6189 0.33126C11.6667 -0.539653 13.0631 0.408472 13.0631 1.9902V18.2117C13.0631 19.7945 11.6667 20.7415 10.6189 19.8706L5.21351 15.3798C5.17695 15.349 5.13404 15.3325 5.09009 15.3321H2.47748C1.82041 15.3321 1.19025 15.0031 0.725636 14.4175C0.261019 13.8319 0 13.0377 0 12.2095V7.99234C0 7.16418 0.261019 6.36995 0.725636 5.78435C1.19025 5.19876 1.82041 4.86977 2.47748 4.86977H5.09009C5.13426 4.86995 5.17749 4.85376 5.21441 4.82322L10.6189 0.33126ZM15.991 5.84288C16.1702 5.84288 16.3421 5.9326 16.4688 6.09231C16.5955 6.25202 16.6667 6.46863 16.6667 6.69449V13.5074C16.6667 13.7332 16.5955 13.9498 16.4688 14.1095C16.3421 14.2693 16.1702 14.359 15.991 14.359C15.8118 14.359 15.6399 14.2693 15.5132 14.1095C15.3865 13.9498 15.3153 13.7332 15.3153 13.5074V6.69449C15.3153 6.46863 15.3865 6.25202 15.5132 6.09231C15.6399 5.9326 15.8118 5.84288 15.991 5.84288Z" fill="black"/>
</svg>
