<svg width="17" height="21" viewBox="0 0 17 21" fill="none" xmlns="http://www.w3.org/2000/svg">
<path fill-rule="evenodd" clip-rule="evenodd" d="M14.4065 4.38946C14.5208 4.22998 14.6758 4.14041 14.8374 4.14041C14.999 4.14041 15.154 4.22998 15.2683 4.38946L15.2699 4.39173L15.2724 4.39401L15.278 4.40195L15.2943 4.42466L15.3447 4.50301C15.3854 4.56773 15.4423 4.65971 15.5081 4.77666C16.2593 6.14034 16.6666 7.81262 16.6667 9.53319C16.6666 11.2537 16.2593 12.926 15.5081 14.2897C15.44 14.4111 15.3684 14.5285 15.2935 14.6417L15.2772 14.6644L15.2724 14.6724L15.2699 14.6746L15.2691 14.6758L14.8545 14.0989L15.2691 14.678C15.1547 14.8378 14.9996 14.9276 14.8378 14.9276C14.676 14.9276 14.5209 14.8378 14.4065 14.678C14.2921 14.5183 14.2279 14.3016 14.2279 14.0757C14.2279 13.8497 14.2921 13.6331 14.4065 13.4733L14.4057 13.4744L14.4041 13.4756L14.4081 13.4699L14.435 13.429C14.461 13.3897 14.4986 13.3264 14.548 13.2394C15.0623 12.3016 15.3705 11.1754 15.4352 9.99759C15.4998 8.81978 15.3182 7.64109 14.9122 6.60478C14.8062 6.33205 14.6844 6.07191 14.548 5.82698C14.5038 5.7473 14.4572 5.67039 14.4081 5.59648L14.4041 5.5908C14.2907 5.43077 14.2273 5.21455 14.2278 4.98943C14.2282 4.76431 14.2925 4.5486 14.4065 4.38946ZM9.58293 0.331259C10.5285 -0.539653 11.7886 0.408472 11.7886 1.9902V18.2117C11.7886 19.7945 10.5285 20.7415 9.58293 19.8706L4.70488 15.3798C4.67188 15.349 4.63316 15.3325 4.5935 15.3321H2.23577C1.64281 15.3321 1.07413 15.0031 0.654843 14.4175C0.235554 13.8319 0 13.0377 0 12.2095V7.99234C0 7.16418 0.235554 6.36995 0.654843 5.78435C1.07413 5.19876 1.64281 4.86977 2.23577 4.86977H4.5935C4.63335 4.86995 4.67237 4.85376 4.70569 4.82322L9.58293 0.331259Z" fill="black"/>
</svg>
