<svg width="35" height="30" viewBox="0 0 35 30" fill="none" xmlns="http://www.w3.org/2000/svg">
<path fill-rule="evenodd" clip-rule="evenodd" d="M24.9021 6.51853C25.1116 6.2817 25.3955 6.14868 25.6915 6.14868C25.9875 6.14868 26.2714 6.2817 26.4809 6.51853L26.4838 6.5219L26.4883 6.52527L26.4987 6.53708L26.5285 6.5708L26.6209 6.68715C26.6953 6.78326 26.7996 6.91984 26.9202 7.09352C28.2964 9.11858 29.0425 11.6019 29.0426 14.157C29.0425 16.712 28.2964 19.1953 26.9202 21.2204C26.7955 21.4006 26.6643 21.575 26.527 21.7431L26.4972 21.7768L26.4883 21.7886L26.4838 21.792L26.4824 21.7937L25.7228 20.9371L26.4824 21.7971C26.2728 22.0343 25.9886 22.1676 25.6922 22.1676C25.3959 22.1676 25.1117 22.0343 24.9021 21.7971C24.6926 21.5598 24.5749 21.2381 24.5749 20.9025C24.5749 20.567 24.6926 20.2453 24.9021 20.008L24.9006 20.0097L24.8977 20.0114L24.9051 20.003L24.9543 19.9423C25.0019 19.8838 25.0709 19.7899 25.1613 19.6607C26.1035 18.2681 26.6681 16.5957 26.7866 14.8466C26.9051 13.0975 26.5722 11.3472 25.8285 9.80828C25.6344 9.40327 25.4112 9.01696 25.1613 8.65324C25.0804 8.53491 24.9949 8.4207 24.9051 8.31095L24.8977 8.30252C24.69 8.06487 24.5739 7.74378 24.5747 7.40948C24.5755 7.07517 24.6933 6.75484 24.9021 6.51853Z" fill="black"/>
<path fill-rule="evenodd" clip-rule="evenodd" d="M29.3702 1.45979C29.5797 1.22297 29.8636 1.08994 30.1596 1.08994C30.4556 1.08994 30.7395 1.22297 30.9489 1.45979L30.9534 1.46316L30.9579 1.46822L30.9713 1.48508C31.0358 1.55718 31.0975 1.63257 31.156 1.71103C31.2736 1.8611 31.436 2.07862 31.6266 2.36022C32.0094 2.92172 32.5113 3.74795 33.0102 4.82205C34.0081 6.97025 35 10.1217 35 14.1568C35 18.1918 34.0081 21.3433 33.0102 23.4932C32.6127 24.3575 32.1498 25.1812 31.6266 25.955C31.4208 26.258 31.2021 26.5495 30.9713 26.8285L30.9564 26.8453L30.9534 26.8504L30.9504 26.8521L30.1596 25.9601L30.9489 26.8538C30.7384 27.0842 30.4563 27.2119 30.1634 27.2091C29.8705 27.2064 29.5903 27.0736 29.3831 26.8392C29.1759 26.6048 29.0583 26.2877 29.0556 25.9561C29.0529 25.6245 29.1653 25.305 29.3687 25.0664L29.3896 25.0428L29.4834 24.9248C29.5718 24.8146 29.6959 24.6437 29.8557 24.4122C30.1715 23.9468 30.6004 23.2436 31.0323 22.3146C31.8962 20.4597 32.766 17.7096 32.766 14.1568C32.766 10.604 31.8962 7.85381 31.0323 5.99901C30.6932 5.26339 30.2996 4.56166 29.8557 3.90139C29.708 3.68411 29.5524 3.47373 29.3896 3.27076L29.3687 3.24715C29.1595 3.01003 29.042 2.6886 29.042 2.35347C29.042 2.01834 29.161 1.69691 29.3702 1.45979ZM17.5551 0.49192C19.2872 -0.801385 21.5957 0.606581 21.5957 2.95544V27.0443C21.5957 29.3948 19.2872 30.8011 17.5551 29.5078L8.61894 22.839C8.55848 22.7933 8.48755 22.7687 8.41489 22.7681H4.09574C3.00949 22.7681 1.96772 22.2796 1.19962 21.41C0.431515 20.5404 0 19.3609 0 18.1311V11.8686C0 11.2597 0.10594 10.6567 0.31177 10.0941C0.5176 9.53153 0.819291 9.02035 1.19962 8.58976C1.57994 8.15917 2.03145 7.81761 2.52837 7.58458C3.02529 7.35155 3.55788 7.23161 4.09574 7.23161H8.41489C8.48791 7.23188 8.55938 7.20784 8.62043 7.16248L17.5551 0.49192Z" fill="black"/>
</svg>
